<svg xmlns="http://www.w3.org/2000/svg" xmlns:xlink="http://www.w3.org/1999/xlink" xmlns:lucid="lucid" width="706" height="297"><g transform="translate(-1876 -51)" lucid:page-tab-id="0_0"><path d="M0 0h3677.73v1322.83H0z" fill="#0d1117"/><path d="M2091.95 455.56h265.22" stroke="#a6b7c8" stroke-width="1.52"/><path d="M2357.17 455.56l-1.25 4.8 15-4.8-15-5.23 1.25 5.23z" stroke="#000" stroke-opacity="0" stroke-width="1.52" fill="#a6b7c8"/><path d="M2158.26 442.04h133.23c3.12 0 4.37 1.74 4.37 4.8v17.45c0 3.04-1.25 4.8-4.38 4.8h-133.24c-3.13 0-5-1.76-5-4.8v-17.46c0-3.06 1.87-4.8 5-4.8z" stroke="#000" stroke-opacity="0" stroke-width="0" fill="#2b2b2b"/><path d="M2091.95 193.78h265.22" stroke="#a6b7c8" stroke-width="1.52"/><path d="M2357.17 193.78l-1.25 5.24 15-5.24-15-4.8 1.25 4.8z" stroke="#000" stroke-opacity="0" stroke-width="1.52" fill="#a6b7c8"/><path d="M2158.26 180.26h133.23c3.12 0 4.37 1.74 4.37 4.8v17.45c0 3.06-1.25 4.8-4.38 4.8h-133.24c-3.13 0-5-1.74-5-4.8v-17.44c0-3.06 1.87-4.8 5-4.8z" stroke="#000" stroke-opacity="0" stroke-width="0" fill="#2b2b2b"/><path d="M2091.33 455.56c0 48-38.78 87.26-86.32 87.26-47.53 0-86.3-39.27-86.3-87.26 0-48.43 38.77-87.26 86.3-87.26 47.55 0 86.33 38.83 86.33 87.26zM2544.2 455.56c0 48-38.78 87.26-86.32 87.26-47.54 0-86.32-39.27-86.32-87.26 0-48.43 38.78-87.26 86.32-87.26 47.54 0 86.32 38.83 86.32 87.26zM2091.33 193.78c0 48.43-38.78 87.26-86.32 87.26-47.53 0-86.3-38.83-86.3-87.26 0-48 38.77-87.26 86.3-87.26 47.55 0 86.33 39.27 86.33 87.26zM2544.2 193.78c0 48.43-38.78 87.26-86.32 87.26-47.54 0-86.32-38.83-86.32-87.26 0-48 38.78-87.26 86.32-87.26 47.54 0 86.32 39.27 86.32 87.26z" stroke="#a6b7c8" stroke-width="1.52" fill="#2b2b2b"/><path d="M2175.9 186.34h107.72v15.86H2175.9z" fill="none"/><use xlink:href="#a" transform="matrix(1,0,0,1,2175.9024781408134,186.33567953695012) translate(0 12.757577881496925)"/><use xlink:href="#b" transform="matrix(1,0,0,1,2175.9024781408134,186.33567953695012) translate(9.522904261172185 12.757577881496925)"/><path d="M1984.5 172.52h40.24v13.82h-40.23z" fill="none"/><use xlink:href="#c" transform="matrix(1,0,0,1,1984.5100982215308,172.52229269401644) translate(0 12.695139415382023)"/><path d="M1952.5 199.93h47.85v18.1h-47.85z" fill="none"/><use xlink:href="#d" transform="matrix(1,0,0,1,1952.4995296980223,199.92871250603318) translate(0 14.923810520385814)"/><path d="M2010.12 199.93h44.02v18.1h-44.02z" fill="none"/><use xlink:href="#e" transform="matrix(1,0,0,1,2010.1185545237556,199.92871250603318) translate(0 14.923810520385814)"/><path d="M2437.4 172.52h40.23v13.82h-40.23z" fill="none"/><use xlink:href="#c" transform="matrix(1,0,0,1,2437.4003742364403,172.52229269401644) translate(0 12.695139415382023)"/><path d="M2405.4 199.93h47.84v18.1h-47.85z" fill="none"/><use xlink:href="#d" transform="matrix(1,0,0,1,2405.389805712932,199.92871250603318) translate(0 14.923810520385814)"/><path d="M2463 199.93h34.35v18.1H2463z" fill="none"/><use xlink:href="#f" transform="matrix(1,0,0,1,2463.008830538665,199.92871250603318) translate(0 14.923810520385814)"/><path d="M2404.4 208.97h-45.9" stroke="#000" stroke-opacity="0" stroke-width="2" fill="none"/><path d="M2343.24 208.97l14.26-4.63v9.27z" stroke="#000" stroke-opacity="0" stroke-width="2" fill-opacity="0"/><defs><path fill="#a6b7c8" d="M1121-976c0 225-142 341-344 379L1177 0H957L591-575H353V0H162v-1349h482c281 3 477 100 477 373zM633-726c181-1 296-73 296-247 0-149-101-223-304-223H353v470h280" id="g"/><path fill="#a6b7c8" d="M162 0v-1349h919v156H353v422h668v154H353v461h769V0H162" id="h"/><path fill="#a6b7c8" d="M385-1193v494h676v158H385V0H194v-1349h891v156H385" id="i"/><path fill="#a6b7c8" d="M614-1226c-167 1-283 53-283 213 0 183 186 193 334 234 230 63 463 120 463 409 0 286-219 387-518 390C309 23 131-98 79-338l185-37c34 165 149 248 351 246 184-2 324-58 324-238 0-203-207-221-372-266-210-57-422-111-422-377 0-267 201-356 470-360 279-5 430 101 480 324l-188 33c-28-141-121-215-293-213" id="j"/><path fill="#a6b7c8" d="M-5 220v-96h1238v96H-5" id="k"/><path fill="#a6b7c8" d="M709-1193V0H519v-1193H76v-156h1076v156H709" id="l"/><path fill="#a6b7c8" d="M102-681c0-398 126-689 513-689 165 0 291 58 379 174s132 287 132 515c-1 318-88 554-298 657-123 61-317 58-438-3-206-104-288-341-288-654zm749 406c94-160 97-656-5-807-57-85-130-132-231-132-104 0-178 47-234 132-101 153-99 655 1 809 57 89 130 138 232 138 109 0 184-49 237-140" id="m"/><g id="b"><use transform="matrix(0.007748498178333754,0,0,0.007748498178333754,0,0)" xlink:href="#g"/><use transform="matrix(0.007748498178333754,0,0,0.007748498178333754,9.522904261172185,0)" xlink:href="#h"/><use transform="matrix(0.007748498178333754,0,0,0.007748498178333754,19.04580852234437,0)" xlink:href="#i"/><use transform="matrix(0.007748498178333754,0,0,0.007748498178333754,28.568712783516553,0)" xlink:href="#h"/><use transform="matrix(0.007748498178333754,0,0,0.007748498178333754,38.09161704468874,0)" xlink:href="#g"/><use transform="matrix(0.007748498178333754,0,0,0.007748498178333754,47.614521305860926,0)" xlink:href="#j"/><use transform="matrix(0.007748498178333754,0,0,0.007748498178333754,57.13742556703311,0)" xlink:href="#k"/><use transform="matrix(0.007748498178333754,0,0,0.007748498178333754,66.66032982820529,0)" xlink:href="#l"/><use transform="matrix(0.007748498178333754,0,0,0.007748498178333754,76.18323408937748,0)" xlink:href="#m"/></g><path fill="#a6b7c8" d="M23-677c-68-88 127-122 212-122 113 0 253 24 291 82 92 144-48 310-153 365-52 27-102 48-161 69-56 20-53 15-58 80-4 49-8 103-13 153-3 31-19 46-43 46-44 0-65-28-63-81 5-162 8-330 16-486 3-53-4-75-28-106zm415 73c0-44-44-66-132-66-78 0-124 8-135 26-10 16-14 89-14 218 0 44 22 39 57 25 83-34 224-115 224-203" id="n"/><path fill="#a6b7c8" d="M103-24C79 10-2-14 8-59c42-186 129-353 193-524 23-62 63-135 99-197 39-38 106-10 109 47 27 100 51 209 81 307 8 25 72 24 72 63 0 44-26 46-37 75 12 83 46 156 55 243 7 63-106 47-114 11-13-58-36-170-57-231-3-4-7-8-9-14-69 4-134 40-198 52-53 21-53 108-81 160-4 16-8 29-18 43zm215-551c-16 18-92 195-73 208 46 2 100-12 123-31-5-30-32-162-38-171-2-3-6-5-12-6" id="o"/><path fill="#a6b7c8" d="M590-683c0-95-64-132-148-103-62 21-113 58-161 92-97 69-165 165-223 275C-45-222 51 11 277-12c154-16 257-81 343-160 63-58 100-126 109-243 12-155-158-93-246-67-61 18-178 69-168 115-2 30 28 68 54 64 69-10 133-52 201-67 9-2 20 9 20 17 0 11-18 38-57 79-85 91-188 136-306 136-55 0-99-68-99-127 0-30 16-69 37-123 25-64 237-288 318-281 25-8 66 40 79 44 19 0 28-19 28-58" id="p"/><path fill="#a6b7c8" d="M330-158c82-22 193-18 286-31 38 11 58 81 24 113-25 24-71 25-116 25-135 0-238 34-358 47C61 7 4-52 15-159c12-113 37-213 32-340-2-59 2-121-2-178-2-44 35-62 81-61 104-31 222-52 345-64 68-7 103 34 111 94 2 12-3 22-9 31-33 14-62 15-103 16-100 2-196 10-270 40h-8c-18 23-11 79-15 106-1 13 5 22 16 25 82-10 176-25 264-12 44 7 78 26 71 72-7 49-76 30-125 30-78 0-138 22-210 29-24 1-35 28-36 52-2 41-10 83-8 126-19 84 122 51 181 35" id="q"/><g id="c"><use transform="matrix(0.01586892426922753,0,0,0.01586892426922753,0,0)" xlink:href="#n"/><use transform="matrix(0.01586892426922753,0,0,0.01586892426922753,8.950073287844326,0)" xlink:href="#o"/><use transform="matrix(0.01586892426922753,0,0,0.01586892426922753,18.265131833880886,0)" xlink:href="#p"/><use transform="matrix(0.01586892426922753,0,0,0.01586892426922753,30.325514278493806,0)" xlink:href="#q"/></g><path fill="#a6b7c8" d="M706-1102c241 0 344 136 343 381V0H868v-695c1-168-57-273-220-268-190 6-283 138-283 336V0H185c-3-360 6-732-6-1082h170c4 54 7 126 8 185h3c63-121 164-204 346-205" id="r"/><path fill="#a6b7c8" d="M1000-272c3 95 12 159 101 161 21 0 41-3 59-7V-6c-44 10-86 16-139 16-141 2-191-84-197-217h-6C748-76 648 20 446 20c-207 0-318-120-318-322 0-266 194-348 454-354l236-4c12-191-40-305-222-305-140 0-220 47-232 172l-188-17c33-204 181-292 423-292 255 0 401 118 401 364v466zm-683-27c0 109 63 184 175 182 166-3 259-96 306-217 24-65 20-120 20-200-232 7-501-28-501 235" id="s"/><path fill="#a6b7c8" d="M904-1102c199 0 220 177 220 381V0H956v-686c-3-114 0-215-60-264-70-33-125-4-158 71-26 56-39 140-39 252V0H531v-686c-3-114-1-215-61-264-78-41-136 24-157 84-24 69-39 159-39 259V0H105c-3-360 6-732-6-1082h149c6 50 3 123 8 175 36-100 83-195 216-195 135 0 166 79 196 196 42-105 93-196 236-196" id="t"/><path fill="#a6b7c8" d="M617-1102c355 0 481 238 477 599H322c5 222 84 388 301 388 144 0 244-59 284-166l158 45C1002-72 854 20 623 20c-342 0-490-220-490-568 0-346 151-554 484-554zm291 461c-18-192-90-328-289-328-194 0-287 128-295 328h584" id="u"/><path fill="#a6b7c8" d="M496 0v-299h235V0H496zm0-783v-299h235v299H496" id="v"/><g id="d"><use transform="matrix(0.0088335676227782,0,0,0.0088335676227782,0,0)" xlink:href="#r"/><use transform="matrix(0.0088335676227782,0,0,0.0088335676227782,10.856454608394406,0)" xlink:href="#s"/><use transform="matrix(0.0088335676227782,0,0,0.0088335676227782,21.712909216788812,0)" xlink:href="#t"/><use transform="matrix(0.0088335676227782,0,0,0.0088335676227782,32.56936382518322,0)" xlink:href="#u"/><use transform="matrix(0.0088335676227782,0,0,0.0088335676227782,43.425818433577625,0)" xlink:href="#v"/></g><path fill="#a6b7c8" d="M1034 0L896-382H333L196 0H0l510-1349h217L1228 0h-194zM847-531c-77-225-157-447-231-674-69 231-154 451-232 674h463" id="w"/><path fill="#a6b7c8" d="M698-1104c312 3 392 244 392 558 0 315-82 566-392 566-169 0-277-65-331-184h-5c8 188 2 394 4 589H185V-858c0-76-1-156-6-224h175c6 52 9 120 10 178h4c58-122 150-202 330-200zm-49 991c225 0 255-203 255-433 0-225-32-419-253-419-236 0-285 192-285 441 0 237 53 411 283 411" id="x"/><path fill="#a6b7c8" d="M736-142h380V0H134v-142h422v-1200H267v-142h469v1342" id="y"/><g id="e"><use transform="matrix(0.0088335676227782,0,0,0.0088335676227782,0,0)" xlink:href="#w"/><use transform="matrix(0.0088335676227782,0,0,0.0088335676227782,10.856454608394406,0)" xlink:href="#x"/><use transform="matrix(0.0088335676227782,0,0,0.0088335676227782,21.712909216788812,0)" xlink:href="#x"/><use transform="matrix(0.0088335676227782,0,0,0.0088335676227782,32.56936382518322,0)" xlink:href="#y"/><use transform="matrix(0.0088335676227782,0,0,0.0088335676227782,43.425818433577625,0)" xlink:href="#u"/></g><path fill="#a6b7c8" d="M839-1102c70 0 148 7 206 17v167c-112-18-268-36-363 15-129 69-208 203-208 395V0H294c-10-367 32-789-52-1082h171c21 75 41 161 48 250h5c67-152 152-270 373-270" id="z"/><path fill="#a6b7c8" d="M528 20c-247 0-343-132-343-381v-721h180v686c-4 177 45 284 224 277 194-8 279-136 279-336v-627h181c3 360-6 732 6 1082H885c-4-54-7-126-8-185h-3C809-64 714 20 528 20" id="A"/><path fill="#a6b7c8" d="M745-142h380V0H143v-142h422v-798H246v-142h499v940zM545-1292v-192h200v192H545" id="B"/><path fill="#a6b7c8" d="M682 16c-209 0-323-80-324-285v-671H190v-142h170l58-282h120v282h432v142H538v652c2 114 60 155 182 155 106 0 209-16 297-34v137C921-4 806 16 682 16" id="C"/><g id="f"><use transform="matrix(0.0088335676227782,0,0,0.0088335676227782,0,0)" xlink:href="#i"/><use transform="matrix(0.0088335676227782,0,0,0.0088335676227782,10.856454608394406,0)" xlink:href="#z"/><use transform="matrix(0.0088335676227782,0,0,0.0088335676227782,21.712909216788812,0)" xlink:href="#A"/><use transform="matrix(0.0088335676227782,0,0,0.0088335676227782,32.56936382518322,0)" xlink:href="#B"/><use transform="matrix(0.0088335676227782,0,0,0.0088335676227782,43.425818433577625,0)" xlink:href="#C"/></g></defs></g></svg>