<svg xmlns="http://www.w3.org/2000/svg" xmlns:xlink="http://www.w3.org/1999/xlink" xmlns:lucid="lucid" width="1370" height="353"><g transform="translate(-1614 -846)" lucid:page-tab-id="0_0"><path d="M0 0h3677.73v1322.83H0z" fill="#0d1117"/><path d="M2441.22 1054.78a6 6 0 0 1 6-6h208a6 6 0 0 1 6 6v88a6 6 0 0 1-6 6h-208a6 6 0 0 1-6-6z" stroke="#5e5e5e" stroke-width="3" fill="#f2f3f5"/><path d="M2449.85 1066.35a6 6 0 0 1 6-6h208a6 6 0 0 1 6 6v88a6 6 0 0 1-6 6h-208a6 6 0 0 1-6-6z" stroke="#5e5e5e" stroke-width="3" fill="#f2f3f5"/><path d="M2461.1 1075.6a6 6 0 0 1 6-6h208a6 6 0 0 1 6 6v88a6 6 0 0 1-6 6h-208a6 6 0 0 1-6-6z" stroke="#5e5e5e" stroke-width="3" fill="#f2f3f5"/><path d="M2469.85 1087.1a6 6 0 0 1 6-6h208a6 6 0 0 1 6 6v88a6 6 0 0 1-6 6h-208a6 6 0 0 1-6-6z" stroke="#5e5e5e" stroke-width="3" fill="#f2f3f5"/><use xlink:href="#a" transform="matrix(1,0,0,1,2481.8450261068574,1093.0956514911143) translate(98 42.36666666666667)"/><path d="M2534.77 1087.1a6 6 0 0 1 6-6h131.12a6 6 0 0 1 6 6v88a6 6 0 0 1-6 6h-131.13a6 6 0 0 1-6-6z" stroke="#000" stroke-opacity="0" stroke-width="3" fill="#fff" fill-opacity="0"/><use xlink:href="#b" transform="matrix(1,0,0,1,2539.7669011068574,1086.0956514911143) translate(18.6 40.27777777777778)"/><use xlink:href="#c" transform="matrix(1,0,0,1,2539.7669011068574,1086.0956514911143) translate(9.25555555555556 64.14444444444445)"/><path d="M2506.03 1112.84h3.36m-8.44 5.47v-9.14c0-2 1.52-3.64 3.36-3.64h13.55c1.84 0 3.36 1.64 3.36 3.64v18.3c0 2-1.52 3.64-3.36 3.64h-13.55c-1.84 0-3.36 1.63-3.36 3.63v18.3c0 2 1.52 3.64 3.36 3.64h13.55c1.84 0 3.36-1.64 3.36-3.63v-9.16m-8.43-23.73h-22.02c-1.84 0-3.36 1.64-3.36 3.63v18.26c0 2.05 1.52 3.68 3.36 3.68h10.18m8.43-3.68h22c1.85 0 3.37-1.64 3.37-3.63v-18.25c0-2.04-1.52-3.68-3.36-3.68h-10.17m-8.43 32.88h3.36" stroke="#000" fill-opacity="0"/><path d="M2040.95 1045.25a6 6 0 0 1 6-6h208a6 6 0 0 1 6 6v88a6 6 0 0 1-6 6h-208a6 6 0 0 1-6-6z" stroke="#5e5e5e" stroke-width="3" fill="#f2f3f5"/><path d="M2109.58 1043.38a6 6 0 0 1 6-6h139.37a6 6 0 0 1 6 6v88a6 6 0 0 1-6 6h-139.37a6 6 0 0 1-6-6z" stroke="#000" stroke-opacity="0" stroke-width="3" fill="#fff" fill-opacity="0"/><use xlink:href="#d" transform="matrix(1,0,0,1,2114.578190774856,1042.3767060004106) translate(33.355555555555554 51.52777777777778)"/><path d="M2079.5 1104.42c.6.22 1.22.3 1.9.3 3.24 0 5.86-2.42 5.86-5.43 0-.7-.15-1.36-.4-1.95l8.97-2.34c.92.55 2.04.9 3.25.9 3.2 0 5.86-2.46 5.86-5.43 0-1.13-.4-2.16-.97-3.02l3.3-5.26c.87.53 1.93.84 3.1.84 3.24 0 5.86-2.43 5.86-5.44 0-3.02-2.62-5.45-5.86-5.45-3.25 0-5.87 2.43-5.87 5.45 0 1.2.44 2.34 1.17 3.24l-3.25 5.17c-.92-.62-2.08-.98-3.34-.98-3.25 0-5.86 2.43-5.86 5.45 0 1.08.33 2.1.92 2.97l-8.43 2.16c-1.06-1.08-2.56-1.76-4.3-1.76-3.25 0-5.87 2.43-5.87 5.45 0 1.6.78 3.1 2.04 4.08l-7.7 6.4v-43.03h-2.1v44c0 .55.5 1 1.08 1h47.38v-1.93H2073l6.5-5.4zm30.87-30.33c2.08 0 3.77 1.56 3.77 3.5 0 1.93-1.7 3.46-3.77 3.46-2.1 0-3.73-1.53-3.73-3.46 0-1.94 1.64-3.5 3.73-3.5zm-11.3 12.86c2.04 0 3.74 1.57 3.74 3.5 0 1.9-1.7 3.47-3.72 3.47-2.1 0-3.78-1.57-3.78-3.46 0-1.94 1.7-3.5 3.78-3.5zm-17.68 8.82c2.08 0 3.77 1.57 3.77 3.5 0 1.94-1.7 3.47-3.78 3.47-2.1 0-3.74-1.53-3.74-3.46 0-1.95 1.65-3.52 3.73-3.52z" stroke="#000" stroke-opacity="0" stroke-width=".32" fill="#0d1117"/><path d="M2044.74 907.88a6 6 0 0 1 6-6h208a6 6 0 0 1 6 6v88a6 6 0 0 1-6 6h-208a6 6 0 0 1-6-6z" stroke="#5e5e5e" stroke-width="3" fill="#f2f3f5"/><path d="M2113.37 906a6 6 0 0 1 6-6h139.37a6 6 0 0 1 6 6v88a6 6 0 0 1-6 6h-139.37a6 6 0 0 1-6-6z" stroke="#000" stroke-opacity="0" stroke-width="3" fill="#fff" fill-opacity="0"/><use xlink:href="#e" transform="matrix(1,0,0,1,2118.3653652426847,905) translate(40.34444444444444 51.52777777777778)"/><path d="M2116.43 932.48c-.9-5.8-3.64-9.8-7.64-11.4-1.38-.5-2.8-.7-4.3-.64-.57.07-1.13.42-1.33.98-.2.56-.05 1.2.36 1.6 1.97 2.1 3.24 5.54 3.5 9.74.24 4.48-.57 9.52-2.44 14.42-.52 1.26-1.07 2.52-1.68 3.78-3.24-2.6-7.24-4-11.44-4-4.2 0-8.2 1.4-11.44 4-.6-1.26-1.16-2.52-1.67-3.78-1.87-4.9-2.68-9.94-2.43-14.42.25-4.2 1.52-7.63 3.5-9.73.4-.42.55-1.05.35-1.6-.2-.57-.77-.92-1.33-1-1.52-.06-2.93.15-4.3.64-4 1.6-6.73 5.6-7.64 11.4-.9 5.54-.05 12.05 2.33 18.35 1.3 3.43 3.08 6.8 4.85 9.24-.54 1.82-.85 3.78-.85 5.74v18.55c0 .63.36 1.2.9 1.4l10.4 4.55c.2.07.4.14.6.14.3 0 .6-.07.86-.28.4-.28.67-.7.67-1.26v-10.7c0-.85-.66-1.55-1.52-1.55h-3.7v-9.03l9.82 4.2h.05c0 .07.05.07.05.07h.16c.05.06.1.06.1.06h.5s.05 0 .1-.07H2091.98s.06 0 .06-.08h.05l9.8-4.2v9.03h-3.7c-.85 0-1.5.7-1.5 1.54v10.7c0 .84.65 1.54 1.5 1.54h1.33c.2 0 .45-.07.66-.14l9.1-4.55c.5-.28.8-.84.8-1.4V965.8c0-1.96-.3-3.92-.85-5.74 1.77-2.45 3.54-5.8 4.85-9.24 2.38-6.3 3.24-12.8 2.33-18.34zm-36.34 31.43c-.46-.2-.97-.13-1.43.15-.4.28-.65.77-.65 1.26v12.9c0 .83.65 1.53 1.5 1.53h3.76v6.86l-7.44-3.23V965.8c0-1.54.2-3 .66-4.4l8.6.34 3 5.6-8-3.43zm27.02 19.54l-7.44 3.7v-7.4h3.74c.87 0 1.52-.7 1.52-1.55v-12.9c0-.48-.25-.97-.65-1.25-.47-.28-.98-.35-1.43-.14l-8 3.44 3-5.6 8.6-.35c.45 1.4.65 2.86.65 4.4v17.64zm4.15-33.67c-1.16 3.15-2.9 6.37-4.5 8.54l-9.87.43c-.56.07-1.02.35-1.27.84l-4.15 7.7-4.15-7.7c-.25-.5-.7-.77-1.27-.84l-9.87-.42c-1.63-2.16-3.35-5.38-4.5-8.53-2.24-5.8-3-11.76-2.2-16.8.72-4.55 2.7-7.77 5.58-8.96-1.2 2.32-1.92 5.26-2.12 8.55-.3 4.97.6 10.36 2.63 15.68.75 2.03 1.6 4 2.62 5.8.05 0 .05.08.1.15.25.42.5.9.8 1.33.47.78 1.38 1 2.1.5.7-.42.9-1.33.44-2.1-.05-.07-.1-.14-.15-.28 2.8-2.3 6.28-3.64 9.98-3.64s7.2 1.33 9.97 3.64c-.05.14-.1.2-.15.28-.46.77-.25 1.68.45 2.1.7.5 1.67.28 2.08-.5.3-.4.56-.9.8-1.32.06-.07.06-.14.1-.14 1.02-1.82 1.88-3.78 2.64-5.8 2.03-5.33 2.94-10.72 2.63-15.7-.2-3.28-.9-6.22-2.12-8.53 2.88 1.2 4.86 4.42 5.57 8.97.8 5.04.05 11-2.18 16.8z" stroke="#000" stroke-opacity="0" stroke-width=".33" fill="#0d1117"/><path d="M2095.93 953.55c-1.4-.56-2.93-.77-4.45-.77s-3.04.2-4.45.77c-.76.28-1.17 1.2-.86 1.96.2.64.75 1 1.36 1 .2 0 .36 0 .56-.08 1.05-.42 2.22-.63 3.38-.63 1.16 0 2.33.2 3.4.62.8.28 1.66-.14 1.9-.9.32-.78-.1-1.7-.85-1.97z" stroke="#000" stroke-opacity="0" stroke-width=".33" fill="#0d1117"/><path d="M1660 975.7a6 6 0 0 1 6-6h208a6 6 0 0 1 6 6v88a6 6 0 0 1-6 6h-208a6 6 0 0 1-6-6z" stroke="#5e5e5e" stroke-width="3" fill="#f2f3f5"/><path d="M1728.63 975.7a6 6 0 0 1 6-6H1874a6 6 0 0 1 6 6v88a6 6 0 0 1-6 6h-139.38a6 6 0 0 1-6-6z" stroke="#000" stroke-opacity="0" stroke-width="3" fill="#fff" fill-opacity="0"/><use xlink:href="#f" transform="matrix(1,0,0,1,1733.625,974.6962651948514) translate(22.855555555555554 51.52777777777778)"/><path d="M1731.96 1016.97c-.1-.82-.23-1.77-.46-2.78-.27-1.02-.72-2.12-1.26-3.3-.64-1.16-1.36-2.4-2.4-3.56-.36-.48-.8-.86-1.27-1.34.73-2.68-.8-5.03-.8-5.03-2.68-.14-4.3.82-4.94 1.25l-.3-.14c-.42-.15-.92-.34-1.37-.48-.5-.15-1-.34-1.45-.4-.5-.13-.98-.23-1.53-.32-.1 0-.18-.05-.27-.05-1.13-3.54-4.43-5.07-4.43-5.07-3.8 2.4-4.52 5.55-4.52 5.55s0 .1-.04.2l-.63.15c-.27.1-.54.2-.8.33-.28.1-.6.2-.87.34-.54.23-1.1.47-1.63.76l-1.54.96c-.1-.05-.13-.1-.13-.1-5.1-1.9-9.63.4-9.63.4-.4 5.3 2.03 8.6 2.53 9.23-.14.33-.23.62-.36.96-.4 1.3-.64 2.4-.82 3.68-.04.2-.04.4-.1.6-4.7 2.24-6.1 6.93-6.1 6.93 3.94 4.4 8.55 4.64 8.55 4.64.6 1.1 1.23 1.97 2 2.88.3.38.67.76 1.03 1.15-1.44 3.97.18 7.32.18 7.32 4.44.2 7.3-1.87 7.92-2.34l1.3.38c1.37.33 2.77.57 4.12.62h1.77c2.02 2.87 5.7 3.26 5.7 3.26 2.56-2.68 2.74-5.27 2.74-5.84V1037.5c.55-.38 1.04-.76 1.6-1.2 1.03-.85 1.9-1.9 2.7-3 .1-.1.13-.24.18-.34 2.94.2 4.97-1.77 4.97-1.77-.46-2.98-2.22-4.42-2.54-4.7h-.04l-.05-.05-.04-.05c0-.2.04-.34.04-.57.05-.34.05-.63.05-.96v-1.25c0-.1 0-.14-.05-.24l-.1-.52c-.03-.34-.12-.63-.17-.96-.32-1.34-.77-2.4-1.5-3.6-.72-1.1-1.44-2-2.48-2.87-1-.86-1.94-1.43-3.12-1.96-1.17-.52-2.2-.8-3.44-.96-.58-.03-1.22-.03-1.76-.03h-.87c-.3.04-.62.04-.9.1-1.17.23-2.25.66-3.2 1.2-.95.56-1.8 1.28-2.5 2.1-.7.76-1.17 1.58-1.57 2.58-.32.86-.55 1.87-.6 2.73v1.05c0 .1 0 .2.05.34.15 1.34.6 2.5 1.46 3.6.5.66 1.1 1.2 1.72 1.62.68.42 1.3.7 2.03.9.7.24 1.33.33 1.96.3h.9c.1 0 .18-.06.23-.06.08 0 .13-.05.22-.05.13-.06.27-.1.4-.15.27-.05.55-.2.82-.3.22-.14.45-.23.63-.37.04-.05.14-.1.18-.15.23-.14.27-.43.1-.67-.2-.14-.42-.2-.7-.1 0 0-.03 0-.12.05-.23.1-.36.2-.6.25l-.62.15c-.13 0-.22.04-.36.04h-.72s-.04 0 0 0h-.18c-.05 0-.14 0-.18-.04-.5-.05-1-.2-1.5-.43-.5-.2-.94-.48-1.35-.87-.4-.38-.76-.8-1.07-1.34-.32-.48-.5-1.05-.55-1.58-.04-.33-.1-.62-.04-.9v-.25c0 .05 0 0 0 0V1022c0-.15.04-.3.1-.48.2-1.34.8-2.45 1.84-3.4.27-.3.54-.48.82-.67.3-.2.63-.4.95-.48.27-.15.63-.3 1-.34.3-.1.67-.2 1.03-.2.18 0 .36-.04.54-.04h.32c.04 0 0 0 0 0h.18c1.22.1 2.26.42 3.3 1 1.4.76 2.58 1.9 3.3 3.3.32.67.6 1.44.73 2.25.04.2.04.4.1.58v1.1c0 .24-.06.43-.06.67-.05.2-.05.38-.1.62l-.14.62c-.04.24-.27.82-.36 1.25-.13.42-.77 1.57-1.26 2.24-1.13 1.48-2.4 2.5-4.12 3.25-.8.33-1.67.66-2.53.76-.46.1-.87.14-1.32.14h-.63c.04 0 0 0 0 0h-.05c-.23 0-.5 0-.72-.04-.95-.1-1.86-.24-2.8-.53-.9-.24-1.77-.57-2.58-1-1.77-.92-3.08-1.97-4.35-3.5-.54-.72-1.08-1.5-1.53-2.3-.4-.77-.73-1.63-1-2.5-.27-.9-.4-1.67-.4-2.62v-1.29c0-.42.04-.9.1-1.37.03-.43.12-.87.2-1.34.1-.5.24-.92.37-1.36.13-.47.58-1.77.94-2.58.82-1.58 1.8-3.07 3-4.2.3-.3.58-.54.94-.78.13-.14.45-.38.77-.62.36-.2.72-.43 1.08-.58.18-.1.36-.2.6-.28.08 0 .17-.05.3-.1.1-.05.2-.1.32-.14.36-.15.77-.3 1.18-.44.04-.04.18-.04.27-.1.1-.04.23 0 .32-.04.1-.05.4-.1.63-.2.04-.04.18-.04.27-.1l.32-.03h.3l.33-.1c.1 0 .23-.05.32-.05.12 0 .2-.05.35-.05.1 0 .27-.04.36-.04.1 0 .15 0 .2-.04h.3c.14 0 .23 0 .37-.05h.18s.04 0 0 0h1.58c.82.06 1.58.15 2.35.3 1.5.24 2.76.67 4.16 1.34 1.3.62 2.3 1.24 3.4 2.15.04.04.13.1.18.18.04.05.13.1.18.15.13.1.22.24.36.33.13.05.22.2.3.3.1.1.24.18.33.33 1.2 1.18 2.07 2.38 2.9 3.9l.08.2c.04.05.04.1.1.15.03.1.08.24.17.33.04.05.1.2.1.3.03.1.08.18.12.28.18.38.32.76.46 1.15.22.58.36 1.1.5 1.54.04.2.17.3.35.3.23 0 .37-.16.37-.4-.05-.48-.05-1.05-.1-1.67z" stroke="#000" stroke-opacity="0" fill="#0d1117"/><path d="M1728.92 1019.7h39-49.67" stroke="#000" stroke-opacity="0" stroke-width="2" fill="none"/><path d="M1702.98 1019.7l14.27-4.64v9.27z" stroke="#000" stroke-opacity="0" stroke-width="2" fill-opacity="0"/><path d="M1960.93 1014.75l-.27 1.1-.42 1.03-.57.93-.72.85-.83.7-.94.6-1.02.4-1.06.26-1.06.1h-55.57v-2h55.5l.8-.07.77-.18.73-.3.67-.4.6-.52.5-.6.4-.67.3-.72.2-.72.02-23.7h2zm81.35-61.87l-77.1.07-.72.18-.73.3-.67.4-.6.5-.5.6-.4.68-.3.73-.2.77-.06.82-.03 19.58h-2l.03-19.66.08-1.06.26-1.07.42-1 .57-.94.72-.83.83-.72.94-.56 1.02-.42 1.1-.27 77.34-.07z" stroke="#f2f3f5" stroke-width=".05" fill="#f2f3f5"/><path d="M1897.47 1024.33l-14.27-4.63 14.27-4.64z" fill="#f2f3f5"/><path d="M1898.47 1025.7l-18.5-6 18.5-6.02zm-12.03-6l10.03 3.26v-6.52z" stroke="#f2f3f5" stroke-width=".05" fill="#f2f3f5"/><path d="M2043.28 952.88h-1.03v-2h1.03z" fill="#f2f3f5"/><path d="M2043.3 952.9h-1.07v-2.05h1.07zm-1.02-2v1.95h.97v-1.95z" stroke="#f2f3f5" stroke-width=".05" fill="#f2f3f5"/><use xlink:href="#g" transform="matrix(1,0,0,1,1927.9947916666667,977.5001754411463) translate(0.005000000000002558 10.664062499999998)"/><use xlink:href="#h" transform="matrix(1,0,0,1,1927.9947916666667,977.5001754411463) translate(32.01020833333333 10.664062499999998)"/><path d="M1960.73 1081.34l.06.82.17.76.3.73.4.66.52.6.6.52.66.4.72.3.73.18 73.6.08v2l-73.83-.08-1.1-.26-1.02-.42-.94-.58-.83-.7-.7-.85-.58-.94-.43-1.02-.26-1.07-.07-1.05-.03-21.22h2zm-5.9-62.56l1.06.26 1 .42.94.57.84.7.7.85.6.94.4 1 .27 1.12.03 22.23h-2l-.03-22-.17-.72-.3-.72-.4-.67-.52-.6-.6-.5-.67-.42-.73-.3-.76-.18-.8-.06h-55.23v-2h55.3z" stroke="#f2f3f5" stroke-width=".05" fill="#f2f3f5"/><path d="M1897.47 1024.33l-14.27-4.63 14.27-4.64z" fill="#f2f3f5"/><path d="M1898.47 1025.7l-18.5-6 18.5-6.02zm-12.03-6l10.03 3.26v-6.52z" stroke="#f2f3f5" stroke-width=".05" fill="#f2f3f5"/><path d="M2039.5 1088.38h-1.04v-2h1.03z" fill="#f2f3f5"/><path d="M2039.5 1088.4h-1.06v-2.05h1.07zm-1-2v1.95h.96v-1.95z" stroke="#f2f3f5" stroke-width=".05" fill="#f2f3f5"/><use xlink:href="#g" transform="matrix(1,0,0,1,1915.7186529542678,1046.8698189309641) translate(0.005000000000002558 10.664062499999998)"/><use xlink:href="#i" transform="matrix(1,0,0,1,1915.7186529542678,1046.8698189309641) translate(32.01020833333333 10.664062499999998)"/><path d="M2432.6 883.95a6 6 0 0 1 6-6h208a6 6 0 0 1 6 6v88a6 6 0 0 1-6 6h-208a6 6 0 0 1-6-6z" stroke="#5e5e5e" stroke-width="3" fill="#f2f3f5"/><path d="M2441.22 895.52a6 6 0 0 1 6-6h208a6 6 0 0 1 6 6v88a6 6 0 0 1-6 6h-208a6 6 0 0 1-6-6z" stroke="#5e5e5e" stroke-width="3" fill="#f2f3f5"/><path d="M2452.47 904.77a6 6 0 0 1 6-6h208a6 6 0 0 1 6 6v88a6 6 0 0 1-6 6h-208a6 6 0 0 1-6-6z" stroke="#5e5e5e" stroke-width="3" fill="#f2f3f5"/><path d="M2461.22 916.27a6 6 0 0 1 6-6h208a6 6 0 0 1 6 6v88a6 6 0 0 1-6 6h-208a6 6 0 0 1-6-6z" stroke="#5e5e5e" stroke-width="3" fill="#f2f3f5"/><use xlink:href="#a" transform="matrix(1,0,0,1,2473.2200261068574,922.2670116638903) translate(98 42.36666666666667)"/><path d="M2526.14 916.27a6 6 0 0 1 6-6h131.13a6 6 0 0 1 6 6v88a6 6 0 0 1-6 6h-131.13a6 6 0 0 1-6-6z" stroke="#000" stroke-opacity="0" stroke-width="3" fill="#fff" fill-opacity="0"/><use xlink:href="#j" transform="matrix(1,0,0,1,2531.1419011068574,915.2670116638903) translate(19.455555555555556 51.52777777777778)"/><path d="M2497.4 942h3.37m-8.43 5.48v-9.15c0-2 1.5-3.63 3.36-3.63h13.54c1.85 0 3.36 1.63 3.36 3.63v18.3c0 2-1.5 3.64-3.36 3.64h-13.54c-1.85 0-3.36 1.63-3.36 3.63v18.3c0 2 1.5 3.64 3.36 3.64h13.54c1.85 0 3.36-1.64 3.36-3.63v-9.15m-8.43-23.73h-22c-1.86 0-3.37 1.64-3.37 3.63v18.26c0 2.06 1.5 3.7 3.36 3.7h10.18m8.43-3.7h22c1.86 0 3.37-1.63 3.37-3.62v-18.26c0-2.04-1.5-3.68-3.36-3.68h-10.18m-8.43 32.88h3.37" stroke="#000" fill-opacity="0"/><path d="M2740 976a6 6 0 0 1 6-6h208a6 6 0 0 1 6 6v88a6 6 0 0 1-6 6h-208a6 6 0 0 1-6-6z" stroke="#5e5e5e" stroke-width="3" fill="#f2f3f5"/><path d="M2808.63 976a6 6 0 0 1 6-6H2954a6 6 0 0 1 6 6v88a6 6 0 0 1-6 6h-139.38a6 6 0 0 1-6-6z" stroke="#000" stroke-opacity="0" stroke-width="3" fill="#fff" fill-opacity="0"/><use xlink:href="#k" transform="matrix(1,0,0,1,2813.625,975) translate(14.033333333333331 51.52777777777778)"/><path d="M2808.55 1016.24h-15.92c-1.28-.12-2.25-.96-2.25-1.92v-12.4c0-1.08-1.17-1.92-2.55-1.92h-5.6c-1.44 0-2.56.84-2.56 1.92v12.52c-.05.96-1.12 1.72-2.4 1.8h-4.18c-1.24-.12-2.16-.88-2.26-1.8v-12.52c0-1.08-1.17-1.92-2.55-1.92h-5.62c-1.43 0-2.55.84-2.55 1.92v36.16c0 1.08 1.17 1.92 2.55 1.92h45.92c1.43 0 2.55-.84 2.55-1.92v-19.92c0-1.08-1.17-1.92-2.6-1.92zm-7.35 13.68c0 1.04-1.12 1.92-2.55 1.92h-5.56c-1.44 0-2.6-.88-2.6-1.92V1026c0-1.04 1.16-1.88 2.6-1.88h5.55c1.43 0 2.55.84 2.55 1.88v3.92z" stroke="#000" stroke-opacity="0" fill="#0d1117"/><path d="M2300.66 936.72h-15.97v-2h15.96zm129.48 0h-33.47v-2h33.47z" stroke="#f2f3f5" stroke-width=".05" fill="#f2f3f5"/><path d="M2283.7 940.35l-14.27-4.63 14.26-4.64z" fill="#f2f3f5"/><path d="M2284.7 941.73l-18.5-6 18.5-6.02zm-12.04-6l10.03 3.25v-6.52z" stroke="#f2f3f5" stroke-width=".05" fill="#f2f3f5"/><path d="M2431.14 936.72h-1.03v-2h1.04z" fill="#f2f3f5"/><path d="M2431.16 936.74h-1.07v-2.05h1.06zm-1.02-2v1.95h.97v-1.96z" stroke="#f2f3f5" stroke-width=".05" fill="#f2f3f5"/><use xlink:href="#l" transform="matrix(1,0,0,1,2300.656395232883,929.0513374809924) translate(0.005000000000002558 10.664062499999998)"/><use xlink:href="#h" transform="matrix(1,0,0,1,2300.656395232883,929.0513374809924) translate(64.01541666666665 10.664062499999998)"/><path d="M2347.7 1051.06l-.27 1.1-.42 1.02-.56.94-.72.84-.83.7-.95.58-1 .42-1.08.26-1.06.08h-59.9v-2h59.83l.82-.06.77-.18.72-.3.67-.4.6-.52.5-.6.42-.67.3-.72.18-.73.03-38.2h2zm82.46-94.18l-78.2.07-.73.18-.73.3-.67.4-.6.52-.5.6-.4.66-.3.74-.2.76-.06.82-.03 37.36h-2l.03-37.44.1-1.05.24-1.08.43-1.02.58-.94.72-.83.84-.7.93-.6 1-.4 1.1-.28 78.45-.07z" stroke="#f2f3f5" stroke-width=".05" fill="#f2f3f5"/><path d="M2279.9 1060.64l-14.27-4.64 14.26-4.63z" fill="#f2f3f5"/><path d="M2280.9 1062.02l-18.5-6.02 18.5-6zm-12.04-6.02l10.03 3.26v-6.52z" stroke="#f2f3f5" stroke-width=".05" fill="#f2f3f5"/><path d="M2431.16 956.88h-1.03v-2h1.02z" fill="#f2f3f5"/><path d="M2431.18 956.9h-1.08v-2.04h1.08zm-1.03-2v1.96h.98v-1.95z" stroke="#f2f3f5" stroke-width=".05" fill="#f2f3f5"/><use xlink:href="#l" transform="matrix(1,0,0,1,2286.762132054277,999.2756330291539) translate(0.005000000000002558 10.664062499999998)"/><use xlink:href="#i" transform="matrix(1,0,0,1,2286.762132054277,999.2756330291539) translate(64.01541666666665 10.664062499999998)"/><path d="M2305 1095.12h-24.08v-2H2305zm133.75 0H2425v-2h13.75z" stroke="#f2f3f5" stroke-width=".05" fill="#f2f3f5"/><path d="M2279.92 1098.75l-14.26-4.63 14.26-4.64z" fill="#f2f3f5"/><path d="M2280.92 1100.13l-18.5-6 18.5-6.03zm-12.03-6l10.02 3.25v-6.52z" stroke="#f2f3f5" stroke-width=".05" fill="#f2f3f5"/><path d="M2439.75 1095.12h-1.02v-2h1.02z" fill="#f2f3f5"/><path d="M2439.78 1095.14h-1.08v-2.05h1.08zm-1.03-2v1.95h.98v-1.96z" stroke="#f2f3f5" stroke-width=".05" fill="#f2f3f5"/><use xlink:href="#l" transform="matrix(1,0,0,1,2304.990234375,1087.4496460327862) translate(0.005000000000002558 10.664062499999998)"/><use xlink:href="#i" transform="matrix(1,0,0,1,2304.990234375,1087.4496460327862) translate(64.01541666666665 10.664062499999998)"/><path d="M2851 1070.98v54.12a6 6 0 0 1-6 6h-135.2" stroke="#f2f3f5" stroke-width="2" fill="none"/><path d="M2852 1071h-2V1070h2z" stroke="#f2f3f5" stroke-width=".05" fill="#f2f3f5"/><path d="M2694.54 1131.1l14.27-4.64v9.27z" stroke="#f2f3f5" stroke-width="2" fill="#f2f3f5"/><g><use xlink:href="#g" transform="matrix(1,0,0,1,2755.6422948696973,1113.7623181577808) translate(0.005000000000002558 10.664062499999998)"/><use xlink:href="#m" transform="matrix(1,0,0,1,2755.6422948696973,1113.7623181577808) translate(32.01020833333333 10.664062499999998)"/></g><defs><path fill="#333" d="M629-645c28 177 9 401 28 582 3 29-18 50-47 50-97 0-67-194-71-306-1-24-4-66-3-92 1-39-15-57-30-33-49 79-88 161-139 243-9 15-21 23-34 23-33 0-70-69-89-115-10-23-57-152-73-152-28 0-27 119-31 162-9 93-16 174-27 265-2 3-35 21-48 20-71-3-50-117-43-176 24-211 38-410 84-595 39-67 121 2 138 59 22 73 63 167 84 249 7 23 13 34 20 34 17 0 54-75 107-225 17-48 42-155 115-96 31 25 52 57 59 103" id="n"/><path fill="#333" d="M330-158c82-22 193-18 286-31 38 11 58 81 24 113-25 24-71 25-116 25-135 0-238 34-358 47C61 7 4-52 15-159c12-113 37-213 32-340-2-59 2-121-2-178-2-44 35-62 81-61 104-31 222-52 345-64 68-7 103 34 111 94 2 12-3 22-9 31-33 14-62 15-103 16-100 2-196 10-270 40h-8c-18 23-11 79-15 106-1 13 5 22 16 25 82-10 176-25 264-12 44 7 78 26 71 72-7 49-76 30-125 30-78 0-138 22-210 29-24 1-35 28-36 52-2 41-10 83-8 126-19 84 122 51 181 35" id="o"/><path fill="#333" d="M382-556c-3 158-18 304-18 470 0 31 6 72-21 86-20 35-87 21-104-6-1-188 14-367 23-549 1-24 13-80-17-80-77 0-131 31-210 31-15-10-43-18-33-45 0-82 83-94 148-109 103-23 215-12 315-40 43-12 91-17 142-23 62-8 95 53 77 116-8 28-47 14-75 18-68 9-134 10-195 30-32 11-31 60-32 101" id="p"/><path fill="#333" d="M608-642l-20 77c-36 56-69 94-113 138-49 48-58 40-29 81 33 46 69 89 97 147 44 89 52 141 40 147-3 38-20 49-63 52-68 5-97-106-129-160-40-68-56-162-144-164-53-1-27 78-45 121-7 56-12 123-28 170C157-4 113 24 66-1 46-11 40-39 49-87c19-111 19-139 19-313 0-144 1-187-40-242-27-37-13-94 26-108 103-36 250-59 389-41 63 8 182 85 165 149zm-140 11c-10-39-42-58-96-57-53 12-154 21-179 43-5 9-8 31-8 65 0 151 19 135 127 94 94-36 148-79 156-145" id="q"/><path fill="#333" d="M292-638c-67 2-113 14-176 21-81 9-112-68-58-103 132-46 304-52 470-66l65 5c50 52 43 111-50 111-45 0-75 15-112 18-18 16-19 83-24 152-7 108-21 214-33 322-5 46 36 20 67 20 54 0 81-10 139-16 43 25 50 62 23 110-151 29-311 50-490 79C58 24-8 22 3-44c14-83 161-45 224-90 22-16 24-69 29-107 17-126 33-258 36-397" id="r"/><path fill="#333" d="M521-275c40-33 108-24 108 34 0 49-75 103-210 183-80 47-247 72-323 10-66-54-95-101-82-218 12-106 41-136 91-224 55-96 145-209 240-278 32-23 68-33 107-33 86 2 108 61 107 158 0 55-15 82-44 82-55 1-25-116-79-110-132 15-229 223-291 334-48 86-31 226 81 218 122-9 217-92 295-156" id="s"/><path fill="#333" d="M371-533c189 0 256 55 239 237-9 91-67 138-157 205C374-33 301-7 236-7 155-7 13-82 18-160c3-44 62-73 96-38 43 44 152 73 218 29 77-51 166-125 156-169 2-44-67-63-119-62-47 1-108 1-155 3C87-393 13-429 1-531c11-87 101-150 165-187 90-52 160-96 290-87 34 2 118 78 115 115-3 35-23 38-55 45-15 4-26-4-33-24-37-64-116-1-164 12-41 11-154 77-154 113 0 15 14 22 41 22 45 0 127-11 165-11" id="t"/><g id="b"><use transform="matrix(0.022222222222222223,0,0,0.022222222222222223,0,0)" xlink:href="#n"/><use transform="matrix(0.022222222222222223,0,0,0.022222222222222223,14.933333333333334,0)" xlink:href="#o"/><use transform="matrix(0.022222222222222223,0,0,0.022222222222222223,25.866666666666667,0)" xlink:href="#p"/><use transform="matrix(0.022222222222222223,0,0,0.022222222222222223,41.955555555555556,0)" xlink:href="#q"/><use transform="matrix(0.022222222222222223,0,0,0.022222222222222223,55.68888888888889,0)" xlink:href="#r"/><use transform="matrix(0.022222222222222223,0,0,0.022222222222222223,69.8,0)" xlink:href="#s"/><use transform="matrix(0.022222222222222223,0,0,0.022222222222222223,82.77777777777777,0)" xlink:href="#t"/></g><path fill="#333" d="M23-677c-68-88 127-122 212-122 113 0 253 24 291 82 92 144-48 310-153 365-52 27-102 48-161 69-56 20-53 15-58 80-4 49-8 103-13 153-3 31-19 46-43 46-44 0-65-28-63-81 5-162 8-330 16-486 3-53-4-75-28-106zm415 73c0-44-44-66-132-66-78 0-124 8-135 26-10 16-14 89-14 218 0 44 22 39 57 25 83-34 224-115 224-203" id="u"/><path fill="#333" d="M44-443c79-191 208-366 448-366 141 0 239 118 267 253 46 222-61 413-213 490-83 42-221 78-338 30-55-23-106-43-129-82-26-14-80-140-57-202 2-41 8-89 22-123zm103 115c1 136 75 191 208 191 130 0 180-50 241-135 38-53 55-111 55-169 0-109-73-236-179-227-143 12-260 151-311 271-9 24-14 47-14 69" id="v"/><g id="c"><use transform="matrix(0.022222222222222223,0,0,0.022222222222222223,0,0)" xlink:href="#q"/><use transform="matrix(0.022222222222222223,0,0,0.022222222222222223,14.177777777777779,0)" xlink:href="#o"/><use transform="matrix(0.022222222222222223,0,0,0.022222222222222223,28.977777777777778,0)" xlink:href="#u"/><use transform="matrix(0.022222222222222223,0,0,0.022222222222222223,40.800000000000004,0)" xlink:href="#v"/><use transform="matrix(0.022222222222222223,0,0,0.022222222222222223,58.644444444444446,0)" xlink:href="#q"/><use transform="matrix(0.022222222222222223,0,0,0.022222222222222223,72.37777777777778,0)" xlink:href="#p"/><use transform="matrix(0.022222222222222223,0,0,0.022222222222222223,87.62222222222222,0)" xlink:href="#o"/><use transform="matrix(0.022222222222222223,0,0,0.022222222222222223,101.75555555555555,0)" xlink:href="#q"/></g><path fill="#333" d="M103-24C79 10-2-14 8-59c42-186 129-353 193-524 23-62 63-135 99-197 39-38 106-10 109 47 27 100 51 209 81 307 8 25 72 24 72 63 0 44-26 46-37 75 12 83 46 156 55 243 7 63-106 47-114 11-13-58-36-170-57-231-3-4-7-8-9-14-69 4-134 40-198 52-53 21-53 108-81 160-4 16-8 29-18 43zm215-551c-16 18-92 195-73 208 46 2 100-12 123-31-5-30-32-162-38-171-2-3-6-5-12-6" id="w"/><path fill="#333" d="M19-91c0-222 71-428 58-668-3-62 121-44 170-33 118 27 229 50 293 128 44 53 63 97 63 217 0 165-189 328-383 400-36 13-62 45-108 45-66 0-93-23-93-89zm185-582c-30 151-43 322-58 489 5 39 27 28 60 14 129-54 276-147 276-304 0-155-106-203-278-199" id="x"/><g id="d"><use transform="matrix(0.022222222222222223,0,0,0.022222222222222223,0,0)" xlink:href="#t"/><use transform="matrix(0.022222222222222223,0,0,0.022222222222222223,12.666666666666668,0)" xlink:href="#p"/><use transform="matrix(0.022222222222222223,0,0,0.022222222222222223,24.066666666666666,0)" xlink:href="#w"/><use transform="matrix(0.022222222222222223,0,0,0.022222222222222223,34.53333333333333,0)" xlink:href="#p"/><use transform="matrix(0.022222222222222223,0,0,0.022222222222222223,47.84444444444445,0)" xlink:href="#t"/><use transform="matrix(0.022222222222222223,0,0,0.022222222222222223,61.86666666666668,0)" xlink:href="#x"/></g><path fill="#333" d="M21-302C-7-136 9 24 196-12c147-28 263-93 386-142 57-23 26-120-26-120-111 32-240 115-378 126-13 1-22-26-25-45 30-174 59-350 88-524 10-62-86-124-120-61-39 73-49 196-69 277-19 77-22 145-31 199" id="y"/><path fill="#333" d="M44-443c79-191 208-366 448-366 141 0 239 118 267 253 46 222-61 413-213 490-83 42-221 78-338 30-55-23-106-43-129-82-26-14-80-140-57-202 2-41 8-89 22-123zm103 115c1 136 75 191 208 191 130 0 180-50 241-135 38-53 55-111 55-169 0-109-73-236-179-227-143 12-260 151-311 271-9 24-14 47-14 69" id="z"/><path fill="#333" d="M583 1c26 5 52-17 51-41 24-60-22-103-43-144-74-69-132-138-184-228-37-64 44-88 81-120 65-56 138-104 195-168 35-39 5-108-40-113-66 17-104 68-150 105-81 65-158 127-245 187-18 12-48 33-70 13-6-6-8-14-7-23 3-63 18-122 28-181-3-53-39-88-92-91-82 12-51 140-71 216 1 133-13 257-20 381-3 58-27 167 27 193 35 29 78-2 98-20 30-59 16-164 24-251 3-31 38-61 73-59 78 41 118 121 174 184 38 44 71 96 112 139 15 15 32 34 59 21" id="A"/><path fill="#333" d="M292-638c-67 2-113 14-176 21-81 9-112-68-58-103 132-46 304-52 470-66l65 5c50 52 43 111-50 111-45 0-75 15-112 18-18 16-19 83-24 152-7 108-21 214-33 322-5 46 36 20 67 20 54 0 81-10 139-16 43 25 50 62 23 110-151 29-311 50-490 79C58 24-8 22 3-44c14-83 161-45 224-90 22-16 24-69 29-107 17-126 33-258 36-397" id="B"/><g id="e"><use transform="matrix(0.022222222222222223,0,0,0.022222222222222223,0,0)" xlink:href="#y"/><use transform="matrix(0.022222222222222223,0,0,0.022222222222222223,13.666666666666668,0)" xlink:href="#z"/><use transform="matrix(0.022222222222222223,0,0,0.022222222222222223,31.511111111111113,0)" xlink:href="#A"/><use transform="matrix(0.022222222222222223,0,0,0.022222222222222223,47.2,0)" xlink:href="#B"/></g><path fill="#333" d="M590-683c0-95-64-132-148-103-62 21-113 58-161 92-97 69-165 165-223 275C-45-222 51 11 277-12c154-16 257-81 343-160 63-58 100-126 109-243 12-155-158-93-246-67-61 18-178 69-168 115-2 30 28 68 54 64 69-10 133-52 201-67 9-2 20 9 20 17 0 11-18 38-57 79-85 91-188 136-306 136-55 0-99-68-99-127 0-30 16-69 37-123 25-64 237-288 318-281 25-8 66 40 79 44 19 0 28-19 28-58" id="C"/><path fill="#333" d="M608-642l-20 77c-36 56-69 94-113 138-49 48-58 40-29 81 33 46 69 89 97 147 44 89 52 141 40 147-3 38-20 49-63 52-68 5-97-106-129-160-40-68-56-162-144-164-53-1-27 78-45 121-7 56-12 123-28 170C157-4 113 24 66-1 46-11 40-39 49-87c19-111 19-139 19-313 0-144 1-187-40-242-27-37-13-94 26-108 103-36 250-59 389-41 63 8 182 85 165 149zm-140 11c-10-39-42-58-96-57-53 12-154 21-179 43-5 9-8 31-8 65 0 151 19 135 127 94 94-36 148-79 156-145" id="D"/><path fill="#333" d="M103-24C79 10-2-14 8-59c42-186 129-353 193-524 23-62 63-135 99-197 39-38 106-10 109 47 27 100 51 209 81 307 8 25 72 24 72 63 0 44-26 46-37 75 12 83 46 156 55 243 7 63-106 47-114 11-13-58-36-170-57-231-3-4-7-8-9-14-69 4-134 40-198 52-53 21-53 108-81 160-4 16-8 29-18 43zm215-551c-16 18-92 195-73 208 46 2 100-12 123-31-5-30-32-162-38-171-2-3-6-5-12-6" id="E"/><path fill="#333" d="M39-49c-7-93 9-204-6-289-18-30-12-41 1-77 37-27 19-97 25-162 2-23-27-37-49-40-11-18-14-56 0-71 17-39 273-99 376-109 72-7 163-32 165 45 1 65-62 51-115 66-63 18-176 24-229 55-41 23-20 107-25 176 83-2 166-25 259-33 74-6 91 70 44 97-80 23-228 35-304 57-18 6-27 18-27 35-9 45 6 274-42 299-35 2-92-5-73-49" id="F"/><path fill="#333" d="M24-128c0-158-18-313-5-472 6-74-11-192 62-191 78 1 88 68 113 130 59 143 102 191 174 297 50 73 81 109 92 109 8 0 12-3 13-9 24-163 3-322-12-477-6-63 62-76 101-37 65 64 45 212 54 340 10 141 7 304-15 413-8 15-20 23-37 23-76 0-203-132-244-200-33-54-79-109-116-169l4 4c-9-20-41-55-54-51-14 102-5 244 6 344 3 30-15 69-41 68-9 0-28-1-56-3-44-28-39-45-39-119" id="G"/><g id="f"><use transform="matrix(0.022222222222222223,0,0,0.022222222222222223,0,0)" xlink:href="#C"/><use transform="matrix(0.022222222222222223,0,0,0.022222222222222223,16.88888888888889,0)" xlink:href="#D"/><use transform="matrix(0.022222222222222223,0,0,0.022222222222222223,30.622222222222224,0)" xlink:href="#E"/><use transform="matrix(0.022222222222222223,0,0,0.022222222222222223,43.66666666666667,0)" xlink:href="#F"/><use transform="matrix(0.022222222222222223,0,0,0.022222222222222223,55.95555555555557,0)" xlink:href="#E"/><use transform="matrix(0.022222222222222223,0,0,0.022222222222222223,69,0)" xlink:href="#G"/><use transform="matrix(0.022222222222222223,0,0,0.022222222222222223,83.24444444444444,0)" xlink:href="#E"/></g><path fill="#f2f3f5" d="M655-135c108 0 195-33 260-74v-336H622v-160h479v572C981-54 839 20 639 20c-388 0-526-306-526-701 0-406 129-689 529-689 261 0 392 137 461 331l-171 56c-47-131-122-231-288-231-281 0-330 245-330 533 0 179 28 314 84 407s142 139 257 139" id="H"/><path fill="#f2f3f5" d="M162 0v-1349h919v156H353v422h668v154H353v461h769V0H162" id="I"/><path fill="#f2f3f5" d="M709-1193V0H519v-1193H76v-156h1076v156H709" id="J"/><g id="g"><use transform="matrix(0.006510416666666666,0,0,0.006510416666666666,0,0)" xlink:href="#H"/><use transform="matrix(0.006510416666666666,0,0,0.006510416666666666,8.001302083333332,0)" xlink:href="#I"/><use transform="matrix(0.006510416666666666,0,0,0.006510416666666666,16.002604166666664,0)" xlink:href="#J"/></g><path fill="#f2f3f5" d="M237 0v-1349h191v1193h672V0H237" id="K"/><path fill="#f2f3f5" d="M102-681c0-398 126-689 513-689 165 0 291 58 379 174s132 287 132 515c-1 318-88 554-298 657-123 61-317 58-438-3-206-104-288-341-288-654zm749 406c94-160 97-656-5-807-57-85-130-132-231-132-104 0-178 47-234 132-101 153-99 655 1 809 57 89 130 138 232 138 109 0 184-49 237-140" id="L"/><path fill="#f2f3f5" d="M614-1226c-167 1-283 53-283 213 0 183 186 193 334 234 230 63 463 120 463 409 0 286-219 387-518 390C309 23 131-98 79-338l185-37c34 165 149 248 351 246 184-2 324-58 324-238 0-203-207-221-372-266-210-57-422-111-422-377 0-267 201-356 470-360 279-5 430 101 480 324l-188 33c-28-141-121-215-293-213" id="M"/><g id="h"><use transform="matrix(0.006510416666666666,0,0,0.006510416666666666,0,0)" xlink:href="#K"/><use transform="matrix(0.006510416666666666,0,0,0.006510416666666666,8.001302083333332,0)" xlink:href="#L"/><use transform="matrix(0.006510416666666666,0,0,0.006510416666666666,16.002604166666664,0)" xlink:href="#H"/><use transform="matrix(0.006510416666666666,0,0,0.006510416666666666,24.003906249999996,0)" xlink:href="#M"/></g><path fill="#f2f3f5" d="M285-1169c8 382 2 780 4 1169H129v-1349h237c86 239 188 461 253 720 69-258 169-481 255-720h225V0H937c2-390-5-788 6-1169-75 255-170 488-259 729H547c-90-240-185-475-262-729" id="N"/><path fill="#f2f3f5" d="M1121-976c0 225-142 341-344 379L1177 0H957L591-575H353V0H162v-1349h482c281 3 477 100 477 373zM633-726c181-1 296-73 296-247 0-149-101-223-304-223H353v470h280" id="O"/><path fill="#f2f3f5" d="M202-1349h823v156H709v1037h316V0H202v-156h316v-1037H202v-156" id="P"/><path fill="#f2f3f5" d="M650-1214c-281 0-336 244-336 533 0 295 60 546 347 546 188 0 263-142 322-282l159 65C1058-155 935 20 659 20c-401 0-546-295-546-701 0-407 135-689 536-689 264 0 391 146 466 335l-168 65c-47-129-127-244-297-244" id="Q"/><g id="i"><use transform="matrix(0.006510416666666666,0,0,0.006510416666666666,0,0)" xlink:href="#N"/><use transform="matrix(0.006510416666666666,0,0,0.006510416666666666,8.001302083333332,0)" xlink:href="#I"/><use transform="matrix(0.006510416666666666,0,0,0.006510416666666666,16.002604166666664,0)" xlink:href="#J"/><use transform="matrix(0.006510416666666666,0,0,0.006510416666666666,24.003906249999996,0)" xlink:href="#O"/><use transform="matrix(0.006510416666666666,0,0,0.006510416666666666,32.00520833333333,0)" xlink:href="#P"/><use transform="matrix(0.006510416666666666,0,0,0.006510416666666666,40.00651041666666,0)" xlink:href="#Q"/><use transform="matrix(0.006510416666666666,0,0,0.006510416666666666,48.007812499999986,0)" xlink:href="#M"/></g><path fill="#333" d="M722-498c18-70 6-160 6-241 0-38 16-57 49-57 55 0 82 64 82 193 1 204-63 347-126 491-54 125-124 110-196 9-30-42-54-91-82-146-27-53-43-79-49-79-8-17-88 136-114 182C269-106 193 9 170-1 96-15 86-47 66-129 33-267 17-480 18-657c0-70 18-105 54-105 39 0 66 36 68 87 4 137-4 277 12 406 12 100 67-12 84-47 47-96 102-197 139-285 18-41 78-38 96-4 52 97 51 251 110 344 50 78 71 31 104-70 17-53 22-108 37-167" id="R"/><path fill="#333" d="M330-158c82-22 193-18 286-31 38 11 58 81 24 113-25 24-71 25-116 25-135 0-238 34-358 47C61 7 4-52 15-159c12-113 37-213 32-340-2-59 2-121-2-178-2-44 35-62 81-61 104-31 222-52 345-64 68-7 103 34 111 94 2 12-3 22-9 31-33 14-62 15-103 16-100 2-196 10-270 40h-8c-18 23-11 79-15 106-1 13 5 22 16 25 82-10 176-25 264-12 44 7 78 26 71 72-7 49-76 30-125 30-78 0-138 22-210 29-24 1-35 28-36 52-2 41-10 83-8 126-19 84 122 51 181 35" id="S"/><g id="j"><use transform="matrix(0.022222222222222223,0,0,0.022222222222222223,0,0)" xlink:href="#R"/><use transform="matrix(0.022222222222222223,0,0,0.022222222222222223,19.288888888888888,0)" xlink:href="#z"/><use transform="matrix(0.022222222222222223,0,0,0.022222222222222223,37.13333333333333,0)" xlink:href="#D"/><use transform="matrix(0.022222222222222223,0,0,0.022222222222222223,50.86666666666667,0)" xlink:href="#A"/><use transform="matrix(0.022222222222222223,0,0,0.022222222222222223,66.55555555555556,0)" xlink:href="#S"/><use transform="matrix(0.022222222222222223,0,0,0.022222222222222223,81.35555555555555,0)" xlink:href="#D"/></g><path fill="#333" d="M68-174c-8-157-1-333-1-488 0-23-21-28-12-60 24-87 141-85 256-77 161 12 317 42 251 258-5 17-40 45-44 60 15 30 85 80 98 123 62 108 25 192-76 258C455-45 341-9 207-4 145-2 19-30 19-85c0-36 51-41 49-89zm137-510c-18 6-26 137-16 192 30 22 66 2 112-6 70-13 158-95 159-132 17-68-169-82-255-54zm-15 330c-15 57-2 155 5 215 6 4 6 12 18 11 101-5 211-32 267-82 52-46 58-91 12-140s-73-73-81-73c-39 14-121 48-173 54-15 2-34 14-48 15" id="T"/><path fill="#333" d="M690-16c1 27-22 53-49 52-21 0-47-17-78-51-31-35-50-52-55-52C384-16 286 0 174-46 66-91 12-146 12-292c0-165 91-286 178-377 58-61 105-100 201-130 173-55 319 38 370 162 9 21 40 127 19 177-19 105-68 191-126 260-19 22-27 38-27 44 1 18 74 108 63 140zM445-229c4-68-43-207 50-207 52 0 63 37 68 87 8 80 61-19 73-41 58-107 35-292-110-292-94 0-188 52-242 114-50 58-151 211-151 284 0 83 72 131 159 129 48-1 160-25 153-74" id="U"/><g id="k"><use transform="matrix(0.022222222222222223,0,0,0.022222222222222223,0,0)" xlink:href="#q"/><use transform="matrix(0.022222222222222223,0,0,0.022222222222222223,13.733333333333334,0)" xlink:href="#w"/><use transform="matrix(0.022222222222222223,0,0,0.022222222222222223,26.77777777777778,0)" xlink:href="#T"/><use transform="matrix(0.022222222222222223,0,0,0.022222222222222223,40.46666666666667,0)" xlink:href="#T"/><use transform="matrix(0.022222222222222223,0,0,0.022222222222222223,52.62222222222223,0)" xlink:href="#r"/><use transform="matrix(0.022222222222222223,0,0,0.022222222222222223,66.17777777777778,0)" xlink:href="#p"/><use transform="matrix(0.022222222222222223,0,0,0.022222222222222223,81.42222222222222,0)" xlink:href="#n"/><use transform="matrix(0.022222222222222223,0,0,0.022222222222222223,95.97777777777779,0)" xlink:href="#U"/></g><path fill="#f2f3f5" d="M622-1349c296 4 497 117 497 404 0 282-193 424-485 431H353V0H162v-1349h460zm-15 684c195-3 320-88 320-277 0-184-129-255-328-254H353v531h254" id="V"/><path fill="#f2f3f5" d="M604-135c236 0 291-142 291-376v-838h190v859c5 340-142 510-480 510-326 0-463-164-463-492v-877h191v851c-3 222 46 363 271 363" id="W"/><path fill="#f2f3f5" d="M802-711c201 25 350 118 350 331C1152-95 921 0 634 0H162v-1349c401 9 908-74 908 327 0 184-111 275-268 311zm-224-69c174-2 300-51 300-218 0-163-124-198-302-198H353v416h225zM353-153c281-2 612 44 606-244-5-271-329-233-606-234v478" id="X"/><path fill="#f2f3f5" d="M875 0v-623H353V0H162v-1349h191v566h522v-566h191V0H875" id="Y"/><g id="l"><use transform="matrix(0.006510416666666666,0,0,0.006510416666666666,0,0)" xlink:href="#V"/><use transform="matrix(0.006510416666666666,0,0,0.006510416666666666,8.001302083333332,0)" xlink:href="#W"/><use transform="matrix(0.006510416666666666,0,0,0.006510416666666666,16.002604166666664,0)" xlink:href="#X"/><use transform="matrix(0.006510416666666666,0,0,0.006510416666666666,24.003906249999996,0)" xlink:href="#K"/><use transform="matrix(0.006510416666666666,0,0,0.006510416666666666,32.00520833333333,0)" xlink:href="#P"/><use transform="matrix(0.006510416666666666,0,0,0.006510416666666666,40.00651041666666,0)" xlink:href="#M"/><use transform="matrix(0.006510416666666666,0,0,0.006510416666666666,48.007812499999986,0)" xlink:href="#Y"/></g><path fill="#f2f3f5" d="M473-1349c438-1 655 221 652 661C1122-268 945-8 532 0H162v-1349h311zm42 1193c308-4 416-205 418-532 2-330-131-509-459-505H353v1037h162" id="Z"/><path fill="#f2f3f5" d="M1034 0L896-382H333L196 0H0l510-1349h217L1228 0h-194zM847-531c-77-225-157-447-231-674-69 231-154 451-232 674h463" id="aa"/><g id="m"><use transform="matrix(0.006510416666666666,0,0,0.006510416666666666,0,0)" xlink:href="#Z"/><use transform="matrix(0.006510416666666666,0,0,0.006510416666666666,8.001302083333332,0)" xlink:href="#aa"/><use transform="matrix(0.006510416666666666,0,0,0.006510416666666666,16.002604166666664,0)" xlink:href="#J"/><use transform="matrix(0.006510416666666666,0,0,0.006510416666666666,24.003906249999996,0)" xlink:href="#aa"/></g></defs></g></svg>