<svg xmlns="http://www.w3.org/2000/svg" xmlns:xlink="http://www.w3.org/1999/xlink" xmlns:lucid="lucid" width="1126" height="495"><g transform="translate(0 -713)" lucid:page-tab-id="0_0"><path d="M0 0h3677.73v1322.83H0z" fill="#0d1117"/><path d="M443.85 909.76a6 6 0 0 1 6-6h208a6 6 0 0 1 6 6v88a6 6 0 0 1-6 6h-208a6 6 0 0 1-6-6z" stroke="#5e5e5e" stroke-width="3" fill="#f2f3f5"/><path d="M512.48 907.88a6 6 0 0 1 6-6h139.37a6 6 0 0 1 6 6v88a6 6 0 0 1-6 6H518.48a6 6 0 0 1-6-6z" stroke="#000" stroke-opacity="0" stroke-width="3" fill="#fff" fill-opacity="0"/><use xlink:href="#a" transform="matrix(1,0,0,1,517.4778274052483,906.8777837448795) translate(33.355555555555554 51.52777777777778)"/><path d="M482.4 968.92c.6.23 1.22.32 1.9.32 3.24 0 5.86-2.43 5.86-5.45 0-.68-.15-1.36-.4-1.94l8.97-2.34c.92.54 2.04.9 3.25.9 3.2 0 5.86-2.48 5.86-5.45 0-1.12-.4-2.16-.97-3l3.3-5.28c.87.53 1.93.85 3.1.85 3.24 0 5.86-2.43 5.86-5.45 0-3-2.62-5.44-5.86-5.44-3.25 0-5.87 2.43-5.87 5.44 0 1.22.44 2.34 1.17 3.24l-3.25 5.18c-.92-.63-2.08-1-3.34-1-3.25 0-5.86 2.44-5.86 5.45 0 1.08.33 2.12.92 2.97l-8.43 2.16c-1.06-1.08-2.56-1.75-4.3-1.75-3.25 0-5.87 2.43-5.87 5.44 0 1.6.78 3.1 2.04 4.1l-7.7 6.38v-43.02h-2.1v44c0 .55.5 1 1.08 1h47.38v-1.94H475.9l6.5-5.4zm30.87-30.33c2.08 0 3.77 1.57 3.77 3.5 0 1.94-1.7 3.47-3.77 3.47-2.1 0-3.73-1.53-3.73-3.47 0-1.93 1.64-3.5 3.73-3.5zm-11.3 12.86c2.04 0 3.74 1.58 3.74 3.5 0 1.9-1.7 3.48-3.72 3.48-2.1 0-3.78-1.58-3.78-3.47 0-1.93 1.7-3.5 3.78-3.5zm-17.68 8.82c2.08 0 3.77 1.58 3.77 3.5 0 1.95-1.7 3.48-3.78 3.48-2.1 0-3.74-1.53-3.74-3.47 0-1.94 1.65-3.52 3.73-3.52z" stroke="#000" stroke-opacity="0" stroke-width=".32" fill="#0d1117"/><path d="M443.85 1046a6 6 0 0 1 6-6h208a6 6 0 0 1 6 6v88a6 6 0 0 1-6 6h-208a6 6 0 0 1-6-6z" stroke="#5e5e5e" stroke-width="3" fill="#f2f3f5"/><path d="M502.26 1046a6 6 0 0 1 6-6h149.6a6 6 0 0 1 6 6v88a6 6 0 0 1-6 6h-149.6a6 6 0 0 1-6-6z" stroke="#000" stroke-opacity="0" stroke-width="3" fill="#fff" fill-opacity="0"/><use xlink:href="#b" transform="matrix(1,0,0,1,507.2633521166289,1045) translate(2.8555555555555543 51.52777777777778)"/><path d="M478.04 1067c-13.37 0-24.22 10.3-24.22 23s10.85 23 24.22 23 24.22-10.3 24.22-23-10.85-23-24.22-23zm0 43.06c-3.83 0-6.88-2.44-6.88-5.4h13.76c0 2.96-3.05 5.4-6.88 5.4zm11.4-7.18h-22.78v-3.9h22.77v3.9zm-.1-5.93H466.7c-.04-.1-.14-.2-.2-.28-2.32-2.67-2.9-4.1-3.43-5.52 0-.05 2.86.55 4.84 1 0 0 1.03.24 2.58.47-1.45-1.6-2.32-3.68-2.32-5.75 0-4.6 3.73-8.65 2.37-11.9 1.3.08 2.7 2.6 2.8 6.57 1.42-1.84 2-5.16 2-7.23 0-2.1 1.45-4.54 2.9-4.63-1.3 2.07.34 3.82 1.8 8.14.58 1.67.48 4.43.92 6.17.14-3.63.77-8.92 3.2-10.76-1.07 2.3.2 5.2 1 6.6 1.37 2.2 2.2 3.9 2.2 7.12z" stroke="#000" stroke-opacity="0" fill="#0d1117"/><path d="M447.64 772.38a6 6 0 0 1 6-6h208a6 6 0 0 1 6 6v88a6 6 0 0 1-6 6h-208a6 6 0 0 1-6-6z" stroke="#5e5e5e" stroke-width="3" fill="#f2f3f5"/><path d="M516.27 770.5a6 6 0 0 1 6-6h139.37a6 6 0 0 1 6 6v88a6 6 0 0 1-6 6H522.27a6 6 0 0 1-6-6z" stroke="#000" stroke-opacity="0" stroke-width="3" fill="#fff" fill-opacity="0"/><use xlink:href="#c" transform="matrix(1,0,0,1,521.2650018730768,769.501077744469) translate(40.34444444444444 51.52777777777778)"/><path d="M519.33 796.98c-.9-5.8-3.64-9.8-7.64-11.4-1.38-.5-2.8-.7-4.3-.64-.57.07-1.13.42-1.33.98-.2.56-.05 1.2.36 1.6 1.97 2.1 3.23 5.54 3.5 9.74.24 4.48-.57 9.52-2.44 14.42-.52 1.26-1.07 2.52-1.68 3.78-3.24-2.6-7.24-4-11.44-4-4.2 0-8.2 1.4-11.44 4-.6-1.26-1.16-2.52-1.67-3.78-1.87-4.9-2.68-9.94-2.43-14.42.25-4.2 1.52-7.63 3.5-9.73.4-.42.55-1.05.35-1.6-.2-.57-.77-.92-1.33-1-1.52-.06-2.93.15-4.3.64-4 1.6-6.73 5.6-7.64 11.4-.9 5.54-.05 12.05 2.32 18.35 1.32 3.43 3.1 6.8 4.86 9.24-.54 1.82-.85 3.78-.85 5.74v18.55c0 .63.36 1.2.9 1.4l10.4 4.55c.2.07.4.14.6.14.3 0 .6-.07.86-.28.4-.28.67-.7.67-1.26v-10.7c0-.85-.66-1.55-1.52-1.55h-3.7v-9.03l9.82 4.2h.05c0 .07.05.07.05.07h.16c.05.06.1.06.1.06h.5s.05 0 .1-.07H494.88s.06 0 .06-.08h.05l9.8-4.2v9.03h-3.7c-.85 0-1.5.7-1.5 1.54v10.7c0 .84.65 1.54 1.5 1.54h1.33c.2 0 .45-.07.65-.14l9.12-4.55c.5-.28.8-.84.8-1.4V830.3c0-1.96-.3-3.92-.86-5.74 1.78-2.45 3.55-5.8 4.86-9.24 2.38-6.3 3.24-12.8 2.33-18.34zM483 828.4c-.46-.2-.97-.13-1.43.15-.4.28-.65.77-.65 1.26v12.9c0 .83.65 1.53 1.5 1.53h3.76v6.86l-7.44-3.23V830.3c0-1.54.2-3 .66-4.4l8.6.34 3 5.6-8-3.43zM510 847.95l-7.44 3.7v-7.4h3.74c.86 0 1.52-.7 1.52-1.55v-12.9c0-.48-.25-.97-.66-1.25-.45-.28-.96-.35-1.4-.14l-8 3.44 2.98-5.6 8.6-.35c.46 1.4.66 2.86.66 4.4v17.64zm4.15-33.67c-1.16 3.15-2.9 6.37-4.5 8.54l-9.87.43c-.56.07-1.02.35-1.27.84l-4.15 7.7-4.15-7.7c-.25-.5-.7-.77-1.27-.84l-9.87-.42c-1.63-2.16-3.35-5.38-4.5-8.53-2.24-5.8-3-11.76-2.2-16.8.72-4.55 2.7-7.77 5.58-8.96-1.2 2.32-1.92 5.26-2.13 8.55-.3 4.97.6 10.36 2.64 15.68.75 2.03 1.6 4 2.62 5.8.05 0 .05.08.1.15.25.42.5.9.8 1.33.47.78 1.38 1 2.08.5.7-.42.92-1.33.46-2.1-.05-.07-.1-.14-.15-.28 2.8-2.3 6.28-3.64 9.98-3.64s7.2 1.33 9.97 3.64c-.05.14-.1.2-.15.28-.46.77-.25 1.68.45 2.1.7.5 1.67.28 2.08-.5.3-.4.56-.9.8-1.32.06-.07.06-.14.1-.14 1.02-1.82 1.88-3.78 2.64-5.8 2.03-5.33 2.94-10.72 2.63-15.7-.2-3.28-.9-6.22-2.12-8.53 2.88 1.2 4.86 4.42 5.57 8.97.8 5.04.05 11-2.18 16.8z" stroke="#000" stroke-opacity="0" stroke-width=".33" fill="#0d1117"/><path d="M498.83 818.05c-1.4-.56-2.93-.77-4.45-.77s-3.04.2-4.45.77c-.76.28-1.17 1.2-.87 1.96.2.64.76 1 1.37 1 .2 0 .36 0 .56-.08 1.05-.42 2.22-.63 3.38-.63 1.16 0 2.33.2 3.4.62.8.28 1.66-.14 1.9-.9.32-.78-.1-1.7-.85-1.97z" stroke="#000" stroke-opacity="0" stroke-width=".33" fill="#0d1117"/><path d="M42.94 907.88a6 6 0 0 1 6-6h208a6 6 0 0 1 6 6v88a6 6 0 0 1-6 6h-208a6 6 0 0 1-6-6z" stroke="#5e5e5e" stroke-width="3" fill="#f2f3f5"/><path d="M111.56 907.88a6 6 0 0 1 6-6h139.38a6 6 0 0 1 6 6v88a6 6 0 0 1-6 6H117.56a6 6 0 0 1-6-6z" stroke="#000" stroke-opacity="0" stroke-width="3" fill="#fff" fill-opacity="0"/><use xlink:href="#d" transform="matrix(1,0,0,1,116.56122389314234,906.8777837448795) translate(22.855555555555554 51.52777777777778)"/><path d="M114.9 949.15c-.1-.82-.23-1.77-.46-2.78-.27-1-.72-2.1-1.27-3.3-.63-1.15-1.35-2.4-2.4-3.55-.35-.47-.8-.86-1.26-1.34.73-2.68-.8-5.02-.8-5.02-2.67-.15-4.3.8-4.93 1.24l-.32-.14c-.4-.15-.9-.34-1.35-.48-.5-.14-1-.34-1.45-.38-.5-.15-1-.24-1.54-.34-.08 0-.17-.05-.26-.05-1.13-3.53-4.43-5.06-4.43-5.06-3.8 2.4-4.5 5.55-4.5 5.55s0 .1-.06.18l-.63.15c-.26.1-.53.2-.8.33-.28.1-.6.2-.86.34-.55.24-1.1.48-1.63.76l-1.53.96c-.1-.05-.14-.1-.14-.1-5.1-1.9-9.63.4-9.63.4-.4 5.3 2.04 8.6 2.54 9.23-.14.33-.23.62-.37.96-.4 1.3-.63 2.4-.8 3.7-.06.18-.06.38-.1.57-4.7 2.25-6.1 6.94-6.1 6.94 3.93 4.42 8.54 4.66 8.54 4.66.6 1.1 1.23 1.96 2 2.87.32.38.68.76 1.04 1.15-1.45 3.97.18 7.32.18 7.32 4.43.2 7.28-1.86 7.9-2.34l1.33.38c1.35.34 2.75.57 4.1.62h1.77c2.04 2.88 5.7 3.26 5.7 3.26 2.58-2.68 2.76-5.27 2.76-5.84V969.7l1.58-1.2c1.04-.87 1.9-1.92 2.72-3.02.1-.1.13-.24.18-.34 2.94.2 4.97-1.77 4.97-1.77-.45-2.97-2.22-4.4-2.53-4.7h-.05l-.04-.04-.04-.05c0-.2.05-.33.05-.57.05-.33.05-.62.05-.95v-1.25c0-.1 0-.14-.04-.24l-.08-.52c-.05-.34-.14-.62-.18-.96-.32-1.34-.77-2.4-1.5-3.6-.72-1.1-1.44-2-2.48-2.86-1-.87-1.95-1.44-3.12-1.97-1.18-.52-2.22-.8-3.44-.95-.6-.05-1.22-.05-1.76-.05h-.87c-.3.05-.63.05-.9.1-1.17.23-2.26.66-3.2 1.2-.96.57-1.82 1.28-2.5 2.1-.72.76-1.17 1.58-1.58 2.58-.32.86-.55 1.87-.6 2.73v1.06c0 .1 0 .2.05.33.14 1.34.6 2.5 1.45 3.6.5.66 1.08 1.2 1.72 1.62.67.43 1.3.72 2.03.9.68.25 1.3.34 1.95.3h.9c.1 0 .18-.05.23-.05.1 0 .13-.05.22-.05l.4-.14c.28-.05.55-.2.82-.3.23-.13.45-.23.64-.37.05-.05.14-.1.2-.15.2-.13.26-.42.08-.66-.18-.14-.4-.2-.68-.1 0 0-.05 0-.14.06-.22.1-.36.2-.58.23l-.64.15c-.13 0-.22.05-.36.05h-.72s-.05 0 0 0h-.18c-.05 0-.14 0-.18-.05-.5-.05-1-.2-1.5-.43-.5-.2-.95-.48-1.35-.86-.4-.4-.77-.83-1.1-1.36-.3-.47-.5-1.05-.53-1.58-.05-.33-.1-.62-.05-.9v-.24c0 .04 0 0 0 0V954.18c0-.15.05-.3.1-.48.22-1.34.8-2.44 1.85-3.4.27-.3.54-.48.8-.67.33-.2.64-.4.96-.48.27-.15.63-.3 1-.34.3-.08.67-.18 1.04-.18.18 0 .36-.05.54-.05h.32c.04 0 0 0 0 0h.18c1.22.1 2.26.43 3.3 1 1.4.78 2.57 1.92 3.3 3.3.3.68.6 1.45.72 2.26.05.2.05.4.1.58v1.1c0 .25-.05.44-.05.68-.05.2-.05.38-.1.62l-.13.62c-.04.24-.27.82-.36 1.25-.14.43-.77 1.58-1.27 2.25-1.13 1.48-2.4 2.5-4.1 3.26-.83.33-1.7.67-2.54.76-.46.1-.86.15-1.32.15h-.62c.05 0 0 0 0 0h-.04c-.23 0-.5 0-.73-.06-.94-.1-1.84-.24-2.8-.53-.9-.23-1.75-.56-2.57-1-1.76-.9-3.07-1.96-4.34-3.5-.55-.7-1.1-1.47-1.55-2.3-.4-.75-.72-1.62-1-2.48-.26-.9-.4-1.67-.4-2.63v-1.3c0-.43.05-.9.1-1.4.04-.42.13-.85.22-1.33.1-.48.22-.9.36-1.34.14-.48.6-1.78.95-2.6.8-1.57 1.8-3.05 2.98-4.2.32-.3.6-.53.95-.77.15-.14.47-.38.78-.62.36-.2.73-.43 1.1-.58.17-.1.35-.2.58-.28.1 0 .18-.05.3-.1.1-.05.2-.1.33-.14.35-.15.76-.3 1.16-.43.05-.04.18-.04.28-.1.1-.04.22 0 .3-.04.1-.05.42-.1.64-.2.05-.04.2-.04.28-.08.1 0 .22-.05.3-.05h.33l.3-.1c.1 0 .23-.05.32-.05.14 0 .23-.04.36-.04.1 0 .28-.05.37-.05.1 0 .13 0 .18-.06h.3c.15 0 .24 0 .37-.05h.2s.03 0 0 0h1.57c.8.04 1.58.14 2.35.28 1.5.24 2.76.67 4.16 1.34 1.3.62 2.3 1.25 3.4 2.15.04.05.13.1.17.2l.18.14c.14.1.23.25.36.35.13.04.22.2.3.28.1.1.24.2.33.34 1.22 1.2 2.08 2.4 2.9 3.92.04.04.04.1.08.2.06.03.06.08.1.13.05.1.1.24.18.33.05.05.1.2.1.3l.13.28c.2.38.33.76.46 1.15.23.56.36 1.1.5 1.52.04.2.18.3.36.3.23 0 .36-.16.36-.4-.04-.47-.04-1.05-.1-1.67z" stroke="#000" stroke-opacity="0" fill="#0d1117"/><path d="M111.86 951.88h39-49.67" stroke="#000" stroke-opacity="0" stroke-width="2" fill="none"/><path d="M85.92 951.88l14.27-4.64v9.27z" stroke="#000" stroke-opacity="0" stroke-width="2" fill-opacity="0"/><path d="M281.4 951.88H294a6 6 0 0 0 6-6v-123.5a6 6 0 0 1 6-6h139.18" stroke="#f2f3f5" stroke-width="2" fill="none"/><path d="M266.14 951.88l14.26-4.64v9.27z" stroke="#f2f3f5" stroke-width="2" fill="#f2f3f5"/><path d="M446.18 817.38h-1.03v-2h1.03z" stroke="#f2f3f5" stroke-width=".05" fill="#f2f3f5"/><use xlink:href="#e" transform="matrix(1,0,0,1,346.5670505834434,799.0455281560152) translate(0.005000000000002558 10.664062499999998)"/><use xlink:href="#f" transform="matrix(1,0,0,1,346.5670505834434,799.0455281560152) translate(32.01020833333333 10.664062499999998)"/><path d="M281.4 951.88h160" stroke="#f2f3f5" stroke-width="2" fill="none"/><path d="M266.14 951.88l14.26-4.64v9.27z" stroke="#f2f3f5" stroke-width="2" fill="#f2f3f5"/><path d="M442.4 952.88h-1.04v-2h1.03z" stroke="#f2f3f5" stroke-width=".05" fill="#f2f3f5"/><use xlink:href="#e" transform="matrix(1,0,0,1,328.06998517310655,934.5444504115462) translate(0.005000000000002558 10.664062499999998)"/><use xlink:href="#g" transform="matrix(1,0,0,1,328.06998517310655,934.5444504115462) translate(32.01020833333333 10.664062499999998)"/><path d="M281.4 951.88H294a6 6 0 0 1 6 6V1084a6 6 0 0 0 6 6h135.4" stroke="#f2f3f5" stroke-width="2" fill="none"/><path d="M266.14 951.88l14.26-4.64v9.27z" stroke="#f2f3f5" stroke-width="2" fill="#f2f3f5"/><path d="M442.4 1091h-1.04v-2h1.03z" stroke="#f2f3f5" stroke-width=".05" fill="#f2f3f5"/><use xlink:href="#e" transform="matrix(1,0,0,1,335.4929706420629,1072.6666666666665) translate(0.005000000000002558 10.664062499999998)"/><use xlink:href="#g" transform="matrix(1,0,0,1,335.4929706420629,1072.6666666666665) translate(32.01020833333333 10.664062499999998)"/><path d="M821.22 837.57a6 6 0 0 1 6-6h208a6 6 0 0 1 6 6v88a6 6 0 0 1-6 6h-208a6 6 0 0 1-6-6z" stroke="#5e5e5e" stroke-width="3" fill="#f2f3f5"/><path d="M829.84 849.14a6 6 0 0 1 6-6h208a6 6 0 0 1 6 6v88a6 6 0 0 1-6 6h-208a6 6 0 0 1-6-6z" stroke="#5e5e5e" stroke-width="3" fill="#f2f3f5"/><path d="M841.1 858.4a6 6 0 0 1 6-6h208a6 6 0 0 1 6 6v88a6 6 0 0 1-6 6h-208a6 6 0 0 1-6-6z" stroke="#5e5e5e" stroke-width="3" fill="#f2f3f5"/><path d="M849.84 869.9a6 6 0 0 1 6-6h208a6 6 0 0 1 6 6v88a6 6 0 0 1-6 6h-208a6 6 0 0 1-6-6z" stroke="#5e5e5e" stroke-width="3" fill="#f2f3f5"/><use xlink:href="#h" transform="matrix(1,0,0,1,861.84375,875.8891183888818) translate(98 42.36666666666667)"/><path d="M914.77 869.9a6 6 0 0 1 6-6h131.12a6 6 0 0 1 6 6v88a6 6 0 0 1-6 6H920.76a6 6 0 0 1-6-6z" stroke="#000" stroke-opacity="0" stroke-width="3" fill="#fff" fill-opacity="0"/><use xlink:href="#i" transform="matrix(1,0,0,1,919.7656250000001,868.8891183888818) translate(19.455555555555556 51.52777777777778)"/><path d="M886.03 895.63h3.36m-8.44 5.47v-9.15c0-2 1.52-3.63 3.36-3.63h13.54c1.85 0 3.37 1.63 3.37 3.63v18.3c0 2-1.52 3.64-3.37 3.64h-13.54c-1.84 0-3.36 1.63-3.36 3.62v18.3c0 2 1.52 3.64 3.36 3.64h13.54c1.85 0 3.37-1.64 3.37-3.63v-9.16m-8.43-23.73h-22.02c-1.84 0-3.36 1.64-3.36 3.64v18.25c0 2.05 1.52 3.7 3.36 3.7h10.18m8.43-3.7h22c1.85 0 3.37-1.63 3.37-3.63v-18.26c0-2.04-1.52-3.68-3.37-3.68h-10.17m-8.43 32.9h3.36" stroke="#000" fill-opacity="0"/><path d="M829.84 1046a6 6 0 0 1 6-6h208a6 6 0 0 1 6 6v88a6 6 0 0 1-6 6h-208a6 6 0 0 1-6-6z" stroke="#5e5e5e" stroke-width="3" fill="#f2f3f5"/><path d="M898.47 1046a6 6 0 0 1 6-6h139.37a6 6 0 0 1 6 6v88a6 6 0 0 1-6 6H904.47a6 6 0 0 1-6-6z" stroke="#000" stroke-opacity="0" stroke-width="3" fill="#fff" fill-opacity="0"/><use xlink:href="#j" transform="matrix(1,0,0,1,903.46875,1045) translate(14.033333333333331 51.52777777777778)"/><path d="M898.4 1086.24h-15.93c-1.27-.12-2.24-.96-2.24-1.92v-12.4c0-1.08-1.18-1.92-2.55-1.92h-5.62c-1.42 0-2.55.84-2.55 1.92v12.52c-.04.96-1.1 1.72-2.4 1.8h-4.17c-1.22-.12-2.14-.88-2.25-1.8v-12.52c0-1.08-1.17-1.92-2.55-1.92h-5.6c-1.44 0-2.56.84-2.56 1.92v36.16c0 1.08 1.17 1.92 2.55 1.92h45.93c1.42 0 2.55-.84 2.55-1.92v-19.92c0-1.08-1.18-1.92-2.6-1.92zm-7.35 13.68c0 1.04-1.13 1.92-2.56 1.92h-5.57c-1.43 0-2.6-.88-2.6-1.92V1096c0-1.04 1.17-1.88 2.6-1.88h5.56c1.42 0 2.55.84 2.55 1.88v3.92z" stroke="#000" stroke-opacity="0" fill="#0d1117"/><path d="M745.43 883.3l.07.82.18.76.3.73.4.68.52.6.6.5.66.4.73.3.7.2 69.16.06v2l-69.38-.07-1.1-.27-1.03-.42-.93-.57-.84-.7-.7-.84-.6-.94-.4-1.02-.26-1.06-.1-1.06-.02-23.85h2zm-5.9-67.84l1.07.26 1 .42.95.57.83.73.72.83.57.94.42 1 .26 1.12.03 24.87h-2l-.04-24.64-.18-.73-.3-.72-.4-.66-.5-.6-.6-.5-.68-.4-.72-.3-.77-.2-.8-.06h-50.8v-2h50.87z" stroke="#f2f3f5" stroke-width=".05" fill="#f2f3f5"/><path d="M686.6 821l-14.26-4.62 14.27-4.64z" fill="#f2f3f5"/><path d="M687.6 822.4l-18.5-6.02 18.5-6zm-12.02-6.02l10.03 3.26v-6.52z" stroke="#f2f3f5" stroke-width=".05" fill="#f2f3f5"/><path d="M819.76 890.34h-1.02v-2h1.02z" fill="#f2f3f5"/><path d="M819.8 890.37h-1.1v-2.05h1.1zm-1.04-2v1.95h.98v-1.95z" stroke="#f2f3f5" stroke-width=".05" fill="#f2f3f5"/><use xlink:href="#k" transform="matrix(1,0,0,1,696.4247941549016,846.1928195143329) translate(0.005000000000002558 10.664062499999998)"/><use xlink:href="#f" transform="matrix(1,0,0,1,696.4247941549016,846.1928195143329) translate(64.01541666666665 10.664062499999998)"/><path d="M743.46 948.8l-.26 1.12-.42 1-.58.95-.7.84-.84.72-.94.58-1.02.42-1.07.25-1.05.1h-52.76v-2h52.68l.82-.08.76-.2.73-.3.68-.4.6-.5.5-.6.4-.68.3-.72.2-.72V928.2h2zm75.3-58.46l-71.04.07-.73.2-.73.3-.67.4-.6.5-.5.6-.4.67-.3.73-.2.76-.06.82-.03 19.5h-2l.04-19.58.08-1.06.26-1.06.42-1.02.57-.94.72-.83.82-.73.94-.57 1-.42 1.12-.27 71.28-.06z" stroke="#f2f3f5" stroke-width=".05" fill="#f2f3f5"/><path d="M682.82 958.4l-14.27-4.64 14.27-4.64z" fill="#f2f3f5"/><path d="M683.82 959.77l-18.5-6 18.5-6.03zm-12.03-6L681.8 957v-6.5z" stroke="#f2f3f5" stroke-width=".05" fill="#f2f3f5"/><path d="M819.76 890.34h-1.02v-2h1.02z" fill="#f2f3f5"/><path d="M819.8 890.37h-1.1v-2.05h1.1zm-1.04-2v1.95h.98v-1.95z" stroke="#f2f3f5" stroke-width=".05" fill="#f2f3f5"/><use xlink:href="#k" transform="matrix(1,0,0,1,682.5292537959874,914.8811725145381) translate(0.005000000000002558 10.664062499999998)"/><use xlink:href="#g" transform="matrix(1,0,0,1,682.5292537959874,914.8811725145381) translate(64.01541666666665 10.664062499999998)"/><path d="M827.38 1090H682.32" stroke="#f2f3f5" stroke-width="2" fill="none"/><path d="M828.38 1091h-1.03v-2h1.03z" stroke="#f2f3f5" stroke-width=".05" fill="#f2f3f5"/><path d="M667.05 1090l14.27-4.64v9.28z" stroke="#f2f3f5" stroke-width="2" fill="#f2f3f5"/><g><use xlink:href="#e" transform="matrix(1,0,0,1,724.9947916666666,1072.6666666666665) translate(0.005000000000002558 10.664062499999998)"/><use xlink:href="#l" transform="matrix(1,0,0,1,724.9947916666666,1072.6666666666665) translate(32.01020833333333 10.664062499999998)"/></g><defs><path fill="#333" d="M371-533c189 0 256 55 239 237-9 91-67 138-157 205C374-33 301-7 236-7 155-7 13-82 18-160c3-44 62-73 96-38 43 44 152 73 218 29 77-51 166-125 156-169 2-44-67-63-119-62-47 1-108 1-155 3C87-393 13-429 1-531c11-87 101-150 165-187 90-52 160-96 290-87 34 2 118 78 115 115-3 35-23 38-55 45-15 4-26-4-33-24-37-64-116-1-164 12-41 11-154 77-154 113 0 15 14 22 41 22 45 0 127-11 165-11" id="m"/><path fill="#333" d="M382-556c-3 158-18 304-18 470 0 31 6 72-21 86-20 35-87 21-104-6-1-188 14-367 23-549 1-24 13-80-17-80-77 0-131 31-210 31-15-10-43-18-33-45 0-82 83-94 148-109 103-23 215-12 315-40 43-12 91-17 142-23 62-8 95 53 77 116-8 28-47 14-75 18-68 9-134 10-195 30-32 11-31 60-32 101" id="n"/><path fill="#333" d="M103-24C79 10-2-14 8-59c42-186 129-353 193-524 23-62 63-135 99-197 39-38 106-10 109 47 27 100 51 209 81 307 8 25 72 24 72 63 0 44-26 46-37 75 12 83 46 156 55 243 7 63-106 47-114 11-13-58-36-170-57-231-3-4-7-8-9-14-69 4-134 40-198 52-53 21-53 108-81 160-4 16-8 29-18 43zm215-551c-16 18-92 195-73 208 46 2 100-12 123-31-5-30-32-162-38-171-2-3-6-5-12-6" id="o"/><path fill="#333" d="M19-91c0-222 71-428 58-668-3-62 121-44 170-33 118 27 229 50 293 128 44 53 63 97 63 217 0 165-189 328-383 400-36 13-62 45-108 45-66 0-93-23-93-89zm185-582c-30 151-43 322-58 489 5 39 27 28 60 14 129-54 276-147 276-304 0-155-106-203-278-199" id="p"/><g id="a"><use transform="matrix(0.022222222222222223,0,0,0.022222222222222223,0,0)" xlink:href="#m"/><use transform="matrix(0.022222222222222223,0,0,0.022222222222222223,12.666666666666668,0)" xlink:href="#n"/><use transform="matrix(0.022222222222222223,0,0,0.022222222222222223,24.066666666666666,0)" xlink:href="#o"/><use transform="matrix(0.022222222222222223,0,0,0.022222222222222223,34.53333333333333,0)" xlink:href="#n"/><use transform="matrix(0.022222222222222223,0,0,0.022222222222222223,47.84444444444445,0)" xlink:href="#m"/><use transform="matrix(0.022222222222222223,0,0,0.022222222222222223,61.86666666666668,0)" xlink:href="#p"/></g><path fill="#333" d="M23-677c-68-88 127-122 212-122 113 0 253 24 291 82 92 144-48 310-153 365-52 27-102 48-161 69-56 20-53 15-58 80-4 49-8 103-13 153-3 31-19 46-43 46-44 0-65-28-63-81 5-162 8-330 16-486 3-53-4-75-28-106zm415 73c0-44-44-66-132-66-78 0-124 8-135 26-10 16-14 89-14 218 0 44 22 39 57 25 83-34 224-115 224-203" id="q"/><path fill="#333" d="M608-642l-20 77c-36 56-69 94-113 138-49 48-58 40-29 81 33 46 69 89 97 147 44 89 52 141 40 147-3 38-20 49-63 52-68 5-97-106-129-160-40-68-56-162-144-164-53-1-27 78-45 121-7 56-12 123-28 170C157-4 113 24 66-1 46-11 40-39 49-87c19-111 19-139 19-313 0-144 1-187-40-242-27-37-13-94 26-108 103-36 250-59 389-41 63 8 182 85 165 149zm-140 11c-10-39-42-58-96-57-53 12-154 21-179 43-5 9-8 31-8 65 0 151 19 135 127 94 94-36 148-79 156-145" id="r"/><path fill="#333" d="M44-443c79-191 208-366 448-366 141 0 239 118 267 253 46 222-61 413-213 490-83 42-221 78-338 30-55-23-106-43-129-82-26-14-80-140-57-202 2-41 8-89 22-123zm103 115c1 136 75 191 208 191 130 0 180-50 241-135 38-53 55-111 55-169 0-109-73-236-179-227-143 12-260 151-311 271-9 24-14 47-14 69" id="s"/><path fill="#333" d="M629-645c28 177 9 401 28 582 3 29-18 50-47 50-97 0-67-194-71-306-1-24-4-66-3-92 1-39-15-57-30-33-49 79-88 161-139 243-9 15-21 23-34 23-33 0-70-69-89-115-10-23-57-152-73-152-28 0-27 119-31 162-9 93-16 174-27 265-2 3-35 21-48 20-71-3-50-117-43-176 24-211 38-410 84-595 39-67 121 2 138 59 22 73 63 167 84 249 7 23 13 34 20 34 17 0 54-75 107-225 17-48 42-155 115-96 31 25 52 57 59 103" id="t"/><path fill="#333" d="M330-158c82-22 193-18 286-31 38 11 58 81 24 113-25 24-71 25-116 25-135 0-238 34-358 47C61 7 4-52 15-159c12-113 37-213 32-340-2-59 2-121-2-178-2-44 35-62 81-61 104-31 222-52 345-64 68-7 103 34 111 94 2 12-3 22-9 31-33 14-62 15-103 16-100 2-196 10-270 40h-8c-18 23-11 79-15 106-1 13 5 22 16 25 82-10 176-25 264-12 44 7 78 26 71 72-7 49-76 30-125 30-78 0-138 22-210 29-24 1-35 28-36 52-2 41-10 83-8 126-19 84 122 51 181 35" id="u"/><path fill="#333" d="M593-790c58 0 99 54 77 117-5 13-15 16-35 14-70-7-152-3-229 7-31 20-24 81-26 127-4 138-16 277-16 422 0 32 4 70-21 83-26 36-88 7-103-20 1-182 10-346 21-521 2-27 11-81-18-84-73-7-138 11-206 3-20-18-39-18-32-51-3-78 74-91 145-91 129 0 251 6 369-8 25-3 49 2 74 2" id="v"/><path fill="#333" d="M107-780c100 15 51 176 51 272 0 29 23 25 56 24 33-11 175 4 171-42 9-67 4-153 14-224 12-14 39-57 70-50 51 0 74 34 69 103L490-47c-6 28-25 57-57 56-118-5-54-182-54-299 0-34 3-75-15-85-65 6-127 12-191 19-52 29-23 162-29 239C135-7 87 19 22-30 10-48 7-67 13-88c-16-100 8-215 8-322 0-127-9-364 86-370" id="w"/><path fill="#333" d="M106-737c41-53 131 12 108 86-42 139-71 285-71 455 0 88 72 66 143 48 49-12 128-35 183-63 38-19 36-69 44-119 17-114 31-247 31-354 0-57 26-85 79-85 37 0 55 27 55 81 0 190-34 397-59 573 4 31 20 93-13 105-8 10-30 7-65-8-16-20-33-38-51-54C397-48 305 0 205 0 79 0 5-43 13-176c13-196 50-391 93-561" id="x"/><path fill="#333" d="M371-533c189 0 256 55 239 237-9 91-67 138-157 205C374-33 301-7 236-7 155-7 13-82 18-160c3-44 62-73 96-38 43 44 152 73 218 29 77-51 166-125 156-169 2-44-67-63-119-62-47 1-108 1-155 3C87-393 13-429 1-531c11-87 101-150 165-187 90-52 160-96 290-87 34 2 118 78 115 115-3 35-23 38-55 45-15 4-26-4-33-24-37-64-116-1-164 12-41 11-154 77-154 113 0 15 14 22 41 22 45 0 127-11 165-11" id="y"/><g id="b"><use transform="matrix(0.022222222222222223,0,0,0.022222222222222223,0,0)" xlink:href="#q"/><use transform="matrix(0.022222222222222223,0,0,0.022222222222222223,12.533333333333333,0)" xlink:href="#r"/><use transform="matrix(0.022222222222222223,0,0,0.022222222222222223,26.26666666666667,0)" xlink:href="#s"/><use transform="matrix(0.022222222222222223,0,0,0.022222222222222223,44.111111111111114,0)" xlink:href="#t"/><use transform="matrix(0.022222222222222223,0,0,0.022222222222222223,59.044444444444444,0)" xlink:href="#u"/><use transform="matrix(0.022222222222222223,0,0,0.022222222222222223,73.84444444444445,0)" xlink:href="#v"/><use transform="matrix(0.022222222222222223,0,0,0.022222222222222223,89.82222222222222,0)" xlink:href="#w"/><use transform="matrix(0.022222222222222223,0,0,0.022222222222222223,101.84444444444445,0)" xlink:href="#u"/><use transform="matrix(0.022222222222222223,0,0,0.022222222222222223,116.64444444444445,0)" xlink:href="#x"/><use transform="matrix(0.022222222222222223,0,0,0.022222222222222223,132.26666666666668,0)" xlink:href="#y"/></g><path fill="#333" d="M21-302C-7-136 9 24 196-12c147-28 263-93 386-142 57-23 26-120-26-120-111 32-240 115-378 126-13 1-22-26-25-45 30-174 59-350 88-524 10-62-86-124-120-61-39 73-49 196-69 277-19 77-22 145-31 199" id="z"/><path fill="#333" d="M583 1c26 5 52-17 51-41 24-60-22-103-43-144-74-69-132-138-184-228-37-64 44-88 81-120 65-56 138-104 195-168 35-39 5-108-40-113-66 17-104 68-150 105-81 65-158 127-245 187-18 12-48 33-70 13-6-6-8-14-7-23 3-63 18-122 28-181-3-53-39-88-92-91-82 12-51 140-71 216 1 133-13 257-20 381-3 58-27 167 27 193 35 29 78-2 98-20 30-59 16-164 24-251 3-31 38-61 73-59 78 41 118 121 174 184 38 44 71 96 112 139 15 15 32 34 59 21" id="A"/><path fill="#333" d="M292-638c-67 2-113 14-176 21-81 9-112-68-58-103 132-46 304-52 470-66l65 5c50 52 43 111-50 111-45 0-75 15-112 18-18 16-19 83-24 152-7 108-21 214-33 322-5 46 36 20 67 20 54 0 81-10 139-16 43 25 50 62 23 110-151 29-311 50-490 79C58 24-8 22 3-44c14-83 161-45 224-90 22-16 24-69 29-107 17-126 33-258 36-397" id="B"/><g id="c"><use transform="matrix(0.022222222222222223,0,0,0.022222222222222223,0,0)" xlink:href="#z"/><use transform="matrix(0.022222222222222223,0,0,0.022222222222222223,13.666666666666668,0)" xlink:href="#s"/><use transform="matrix(0.022222222222222223,0,0,0.022222222222222223,31.511111111111113,0)" xlink:href="#A"/><use transform="matrix(0.022222222222222223,0,0,0.022222222222222223,47.2,0)" xlink:href="#B"/></g><path fill="#333" d="M590-683c0-95-64-132-148-103-62 21-113 58-161 92-97 69-165 165-223 275C-45-222 51 11 277-12c154-16 257-81 343-160 63-58 100-126 109-243 12-155-158-93-246-67-61 18-178 69-168 115-2 30 28 68 54 64 69-10 133-52 201-67 9-2 20 9 20 17 0 11-18 38-57 79-85 91-188 136-306 136-55 0-99-68-99-127 0-30 16-69 37-123 25-64 237-288 318-281 25-8 66 40 79 44 19 0 28-19 28-58" id="C"/><path fill="#333" d="M103-24C79 10-2-14 8-59c42-186 129-353 193-524 23-62 63-135 99-197 39-38 106-10 109 47 27 100 51 209 81 307 8 25 72 24 72 63 0 44-26 46-37 75 12 83 46 156 55 243 7 63-106 47-114 11-13-58-36-170-57-231-3-4-7-8-9-14-69 4-134 40-198 52-53 21-53 108-81 160-4 16-8 29-18 43zm215-551c-16 18-92 195-73 208 46 2 100-12 123-31-5-30-32-162-38-171-2-3-6-5-12-6" id="D"/><path fill="#333" d="M39-49c-7-93 9-204-6-289-18-30-12-41 1-77 37-27 19-97 25-162 2-23-27-37-49-40-11-18-14-56 0-71 17-39 273-99 376-109 72-7 163-32 165 45 1 65-62 51-115 66-63 18-176 24-229 55-41 23-20 107-25 176 83-2 166-25 259-33 74-6 91 70 44 97-80 23-228 35-304 57-18 6-27 18-27 35-9 45 6 274-42 299-35 2-92-5-73-49" id="E"/><path fill="#333" d="M24-128c0-158-18-313-5-472 6-74-11-192 62-191 78 1 88 68 113 130 59 143 102 191 174 297 50 73 81 109 92 109 8 0 12-3 13-9 24-163 3-322-12-477-6-63 62-76 101-37 65 64 45 212 54 340 10 141 7 304-15 413-8 15-20 23-37 23-76 0-203-132-244-200-33-54-79-109-116-169l4 4c-9-20-41-55-54-51-14 102-5 244 6 344 3 30-15 69-41 68-9 0-28-1-56-3-44-28-39-45-39-119" id="F"/><g id="d"><use transform="matrix(0.022222222222222223,0,0,0.022222222222222223,0,0)" xlink:href="#C"/><use transform="matrix(0.022222222222222223,0,0,0.022222222222222223,16.88888888888889,0)" xlink:href="#r"/><use transform="matrix(0.022222222222222223,0,0,0.022222222222222223,30.622222222222224,0)" xlink:href="#D"/><use transform="matrix(0.022222222222222223,0,0,0.022222222222222223,43.66666666666667,0)" xlink:href="#E"/><use transform="matrix(0.022222222222222223,0,0,0.022222222222222223,55.95555555555557,0)" xlink:href="#D"/><use transform="matrix(0.022222222222222223,0,0,0.022222222222222223,69,0)" xlink:href="#F"/><use transform="matrix(0.022222222222222223,0,0,0.022222222222222223,83.24444444444444,0)" xlink:href="#D"/></g><path fill="#f2f3f5" d="M655-135c108 0 195-33 260-74v-336H622v-160h479v572C981-54 839 20 639 20c-388 0-526-306-526-701 0-406 129-689 529-689 261 0 392 137 461 331l-171 56c-47-131-122-231-288-231-281 0-330 245-330 533 0 179 28 314 84 407s142 139 257 139" id="G"/><path fill="#f2f3f5" d="M162 0v-1349h919v156H353v422h668v154H353v461h769V0H162" id="H"/><path fill="#f2f3f5" d="M709-1193V0H519v-1193H76v-156h1076v156H709" id="I"/><g id="e"><use transform="matrix(0.006510416666666666,0,0,0.006510416666666666,0,0)" xlink:href="#G"/><use transform="matrix(0.006510416666666666,0,0,0.006510416666666666,8.001302083333332,0)" xlink:href="#H"/><use transform="matrix(0.006510416666666666,0,0,0.006510416666666666,16.002604166666664,0)" xlink:href="#I"/></g><path fill="#f2f3f5" d="M237 0v-1349h191v1193h672V0H237" id="J"/><path fill="#f2f3f5" d="M102-681c0-398 126-689 513-689 165 0 291 58 379 174s132 287 132 515c-1 318-88 554-298 657-123 61-317 58-438-3-206-104-288-341-288-654zm749 406c94-160 97-656-5-807-57-85-130-132-231-132-104 0-178 47-234 132-101 153-99 655 1 809 57 89 130 138 232 138 109 0 184-49 237-140" id="K"/><path fill="#f2f3f5" d="M614-1226c-167 1-283 53-283 213 0 183 186 193 334 234 230 63 463 120 463 409 0 286-219 387-518 390C309 23 131-98 79-338l185-37c34 165 149 248 351 246 184-2 324-58 324-238 0-203-207-221-372-266-210-57-422-111-422-377 0-267 201-356 470-360 279-5 430 101 480 324l-188 33c-28-141-121-215-293-213" id="L"/><g id="f"><use transform="matrix(0.006510416666666666,0,0,0.006510416666666666,0,0)" xlink:href="#J"/><use transform="matrix(0.006510416666666666,0,0,0.006510416666666666,8.001302083333332,0)" xlink:href="#K"/><use transform="matrix(0.006510416666666666,0,0,0.006510416666666666,16.002604166666664,0)" xlink:href="#G"/><use transform="matrix(0.006510416666666666,0,0,0.006510416666666666,24.003906249999996,0)" xlink:href="#L"/></g><path fill="#f2f3f5" d="M285-1169c8 382 2 780 4 1169H129v-1349h237c86 239 188 461 253 720 69-258 169-481 255-720h225V0H937c2-390-5-788 6-1169-75 255-170 488-259 729H547c-90-240-185-475-262-729" id="M"/><path fill="#f2f3f5" d="M1121-976c0 225-142 341-344 379L1177 0H957L591-575H353V0H162v-1349h482c281 3 477 100 477 373zM633-726c181-1 296-73 296-247 0-149-101-223-304-223H353v470h280" id="N"/><path fill="#f2f3f5" d="M202-1349h823v156H709v1037h316V0H202v-156h316v-1037H202v-156" id="O"/><path fill="#f2f3f5" d="M650-1214c-281 0-336 244-336 533 0 295 60 546 347 546 188 0 263-142 322-282l159 65C1058-155 935 20 659 20c-401 0-546-295-546-701 0-407 135-689 536-689 264 0 391 146 466 335l-168 65c-47-129-127-244-297-244" id="P"/><g id="g"><use transform="matrix(0.006510416666666666,0,0,0.006510416666666666,0,0)" xlink:href="#M"/><use transform="matrix(0.006510416666666666,0,0,0.006510416666666666,8.001302083333332,0)" xlink:href="#H"/><use transform="matrix(0.006510416666666666,0,0,0.006510416666666666,16.002604166666664,0)" xlink:href="#I"/><use transform="matrix(0.006510416666666666,0,0,0.006510416666666666,24.003906249999996,0)" xlink:href="#N"/><use transform="matrix(0.006510416666666666,0,0,0.006510416666666666,32.00520833333333,0)" xlink:href="#O"/><use transform="matrix(0.006510416666666666,0,0,0.006510416666666666,40.00651041666666,0)" xlink:href="#P"/><use transform="matrix(0.006510416666666666,0,0,0.006510416666666666,48.007812499999986,0)" xlink:href="#L"/></g><path fill="#333" d="M722-498c18-70 6-160 6-241 0-38 16-57 49-57 55 0 82 64 82 193 1 204-63 347-126 491-54 125-124 110-196 9-30-42-54-91-82-146-27-53-43-79-49-79-8-17-88 136-114 182C269-106 193 9 170-1 96-15 86-47 66-129 33-267 17-480 18-657c0-70 18-105 54-105 39 0 66 36 68 87 4 137-4 277 12 406 12 100 67-12 84-47 47-96 102-197 139-285 18-41 78-38 96-4 52 97 51 251 110 344 50 78 71 31 104-70 17-53 22-108 37-167" id="Q"/><g id="i"><use transform="matrix(0.022222222222222223,0,0,0.022222222222222223,0,0)" xlink:href="#Q"/><use transform="matrix(0.022222222222222223,0,0,0.022222222222222223,19.288888888888888,0)" xlink:href="#s"/><use transform="matrix(0.022222222222222223,0,0,0.022222222222222223,37.13333333333333,0)" xlink:href="#r"/><use transform="matrix(0.022222222222222223,0,0,0.022222222222222223,50.86666666666667,0)" xlink:href="#A"/><use transform="matrix(0.022222222222222223,0,0,0.022222222222222223,66.55555555555556,0)" xlink:href="#u"/><use transform="matrix(0.022222222222222223,0,0,0.022222222222222223,81.35555555555555,0)" xlink:href="#r"/></g><path fill="#333" d="M608-642l-20 77c-36 56-69 94-113 138-49 48-58 40-29 81 33 46 69 89 97 147 44 89 52 141 40 147-3 38-20 49-63 52-68 5-97-106-129-160-40-68-56-162-144-164-53-1-27 78-45 121-7 56-12 123-28 170C157-4 113 24 66-1 46-11 40-39 49-87c19-111 19-139 19-313 0-144 1-187-40-242-27-37-13-94 26-108 103-36 250-59 389-41 63 8 182 85 165 149zm-140 11c-10-39-42-58-96-57-53 12-154 21-179 43-5 9-8 31-8 65 0 151 19 135 127 94 94-36 148-79 156-145" id="R"/><path fill="#333" d="M68-174c-8-157-1-333-1-488 0-23-21-28-12-60 24-87 141-85 256-77 161 12 317 42 251 258-5 17-40 45-44 60 15 30 85 80 98 123 62 108 25 192-76 258C455-45 341-9 207-4 145-2 19-30 19-85c0-36 51-41 49-89zm137-510c-18 6-26 137-16 192 30 22 66 2 112-6 70-13 158-95 159-132 17-68-169-82-255-54zm-15 330c-15 57-2 155 5 215 6 4 6 12 18 11 101-5 211-32 267-82 52-46 58-91 12-140s-73-73-81-73c-39 14-121 48-173 54-15 2-34 14-48 15" id="S"/><path fill="#333" d="M292-638c-67 2-113 14-176 21-81 9-112-68-58-103 132-46 304-52 470-66l65 5c50 52 43 111-50 111-45 0-75 15-112 18-18 16-19 83-24 152-7 108-21 214-33 322-5 46 36 20 67 20 54 0 81-10 139-16 43 25 50 62 23 110-151 29-311 50-490 79C58 24-8 22 3-44c14-83 161-45 224-90 22-16 24-69 29-107 17-126 33-258 36-397" id="T"/><path fill="#333" d="M629-645c28 177 9 401 28 582 3 29-18 50-47 50-97 0-67-194-71-306-1-24-4-66-3-92 1-39-15-57-30-33-49 79-88 161-139 243-9 15-21 23-34 23-33 0-70-69-89-115-10-23-57-152-73-152-28 0-27 119-31 162-9 93-16 174-27 265-2 3-35 21-48 20-71-3-50-117-43-176 24-211 38-410 84-595 39-67 121 2 138 59 22 73 63 167 84 249 7 23 13 34 20 34 17 0 54-75 107-225 17-48 42-155 115-96 31 25 52 57 59 103" id="U"/><path fill="#333" d="M690-16c1 27-22 53-49 52-21 0-47-17-78-51-31-35-50-52-55-52C384-16 286 0 174-46 66-91 12-146 12-292c0-165 91-286 178-377 58-61 105-100 201-130 173-55 319 38 370 162 9 21 40 127 19 177-19 105-68 191-126 260-19 22-27 38-27 44 1 18 74 108 63 140zM445-229c4-68-43-207 50-207 52 0 63 37 68 87 8 80 61-19 73-41 58-107 35-292-110-292-94 0-188 52-242 114-50 58-151 211-151 284 0 83 72 131 159 129 48-1 160-25 153-74" id="V"/><g id="j"><use transform="matrix(0.022222222222222223,0,0,0.022222222222222223,0,0)" xlink:href="#R"/><use transform="matrix(0.022222222222222223,0,0,0.022222222222222223,13.733333333333334,0)" xlink:href="#o"/><use transform="matrix(0.022222222222222223,0,0,0.022222222222222223,26.77777777777778,0)" xlink:href="#S"/><use transform="matrix(0.022222222222222223,0,0,0.022222222222222223,40.46666666666667,0)" xlink:href="#S"/><use transform="matrix(0.022222222222222223,0,0,0.022222222222222223,52.62222222222223,0)" xlink:href="#T"/><use transform="matrix(0.022222222222222223,0,0,0.022222222222222223,66.17777777777778,0)" xlink:href="#n"/><use transform="matrix(0.022222222222222223,0,0,0.022222222222222223,81.42222222222222,0)" xlink:href="#U"/><use transform="matrix(0.022222222222222223,0,0,0.022222222222222223,95.97777777777779,0)" xlink:href="#V"/></g><path fill="#f2f3f5" d="M622-1349c296 4 497 117 497 404 0 282-193 424-485 431H353V0H162v-1349h460zm-15 684c195-3 320-88 320-277 0-184-129-255-328-254H353v531h254" id="W"/><path fill="#f2f3f5" d="M604-135c236 0 291-142 291-376v-838h190v859c5 340-142 510-480 510-326 0-463-164-463-492v-877h191v851c-3 222 46 363 271 363" id="X"/><path fill="#f2f3f5" d="M802-711c201 25 350 118 350 331C1152-95 921 0 634 0H162v-1349c401 9 908-74 908 327 0 184-111 275-268 311zm-224-69c174-2 300-51 300-218 0-163-124-198-302-198H353v416h225zM353-153c281-2 612 44 606-244-5-271-329-233-606-234v478" id="Y"/><path fill="#f2f3f5" d="M875 0v-623H353V0H162v-1349h191v566h522v-566h191V0H875" id="Z"/><g id="k"><use transform="matrix(0.006510416666666666,0,0,0.006510416666666666,0,0)" xlink:href="#W"/><use transform="matrix(0.006510416666666666,0,0,0.006510416666666666,8.001302083333332,0)" xlink:href="#X"/><use transform="matrix(0.006510416666666666,0,0,0.006510416666666666,16.002604166666664,0)" xlink:href="#Y"/><use transform="matrix(0.006510416666666666,0,0,0.006510416666666666,24.003906249999996,0)" xlink:href="#J"/><use transform="matrix(0.006510416666666666,0,0,0.006510416666666666,32.00520833333333,0)" xlink:href="#O"/><use transform="matrix(0.006510416666666666,0,0,0.006510416666666666,40.00651041666666,0)" xlink:href="#L"/><use transform="matrix(0.006510416666666666,0,0,0.006510416666666666,48.007812499999986,0)" xlink:href="#Z"/></g><path fill="#f2f3f5" d="M473-1349c438-1 655 221 652 661C1122-268 945-8 532 0H162v-1349h311zm42 1193c308-4 416-205 418-532 2-330-131-509-459-505H353v1037h162" id="aa"/><path fill="#f2f3f5" d="M1034 0L896-382H333L196 0H0l510-1349h217L1228 0h-194zM847-531c-77-225-157-447-231-674-69 231-154 451-232 674h463" id="ab"/><g id="l"><use transform="matrix(0.006510416666666666,0,0,0.006510416666666666,0,0)" xlink:href="#aa"/><use transform="matrix(0.006510416666666666,0,0,0.006510416666666666,8.001302083333332,0)" xlink:href="#ab"/><use transform="matrix(0.006510416666666666,0,0,0.006510416666666666,16.002604166666664,0)" xlink:href="#I"/><use transform="matrix(0.006510416666666666,0,0,0.006510416666666666,24.003906249999996,0)" xlink:href="#ab"/></g></defs></g></svg>