<svg xmlns="http://www.w3.org/2000/svg" xmlns:xlink="http://www.w3.org/1999/xlink" xmlns:lucid="lucid" width="490" height="306"><g transform="translate(-1770 -193)" lucid:page-tab-id="0_0"><path d="M0 0h3677.73v1322.83H0z" fill="#0d1117"/><path d="M1800 226a6 6 0 0 1 6-6h139.38a6 6 0 0 1 6 6v42.64a6 6 0 0 1-6 6H1806a6 6 0 0 1-6-6z" stroke="#5e5e5e" stroke-width="3" fill="#f2f3f5"/><use xlink:href="#a" transform="matrix(1,0,0,1,1812,232) translate(33.544444444444444 21.65277777777778)"/><path d="M2060 315a6 6 0 0 1 6-6h139.38a6 6 0 0 1 6 6v42.64a6 6 0 0 1-6 6H2066a6 6 0 0 1-6-6z" stroke="#5e5e5e" stroke-width="3" fill="#f2f3f5"/><use xlink:href="#b" transform="matrix(1,0,0,1,2072,321.00111927375656) translate(13.388888888888886 21.65277777777778)"/><path d="M1895.26 313.43a6 6 0 0 1 6-6h139.37a6 6 0 0 1 6 6v42.64a6 6 0 0 1-6 6h-139.37a6 6 0 0 1-6-6z" stroke="#5e5e5e" stroke-width="3" fill="#f2f3f5"/><use xlink:href="#c" transform="matrix(1,0,0,1,1907.2596347573153,319.43156007931566) translate(27.41111111111111 21.65277777777778)"/><path d="M2049.1 334.75h39-21.5" stroke="#000" stroke-opacity="0" stroke-width="2" fill="none"/><path d="M2051.34 334.75l14.26-4.63v9.27z" stroke="#000" stroke-opacity="0" stroke-width="2" fill-opacity="0"/><path d="M1995.26 426a6 6 0 0 1 6-6h139.37a6 6 0 0 1 6 6v42.64a6 6 0 0 1-6 6h-139.37a6 6 0 0 1-6-6z" stroke="#5e5e5e" stroke-width="3" fill="#f2f3f5"/><use xlink:href="#d" transform="matrix(1,0,0,1,2007.2596347573153,432) translate(17.266666666666666 21.65277777777778)"/><path d="M1800 426a6 6 0 0 1 6-6h139.38a6 6 0 0 1 6 6v42.64a6 6 0 0 1-6 6H1806a6 6 0 0 1-6-6z" stroke="#5e5e5e" stroke-width="3" fill="#f2f3f5"/><use xlink:href="#e" transform="matrix(1,0,0,1,1812,432) translate(35.33333333333333 21.65277777777778)"/><path d="M1875.7 276.6v141.03" stroke="#f2f3f5" fill="none"/><path d="M1876.2 276.62h-1v-.52h1z" stroke="#f2f3f5" stroke-width=".05" fill="#f2f3f5"/><path d="M1865.5 400.34l10.2 17.2 10.17-17.2" stroke="#f2f3f5" fill="none"/><path d="M1954.4 364.04V384a6 6 0 0 1-6 6h-66.7a6 6 0 0 0-6 6v21.63" stroke="#f2f3f5" fill="none"/><path d="M1954.9 364.06h-1v-.52h1z" stroke="#f2f3f5" stroke-width=".05" fill="#f2f3f5"/><path d="M1865.5 400.34l10.2 17.2 10.17-17.2M1953.34 247.32h11.6a6 6 0 0 1 6 6v51.74" stroke="#f2f3f5" fill="none"/><path d="M1953.35 247.82h-.5v-1h.5z" stroke="#f2f3f5" stroke-width=".05" fill="#f2f3f5"/><path d="M1960.77 287.77l10.18 17.22 10.18-17.23M1953.34 247.32h176.35a6 6 0 0 1 6 6v53.3" stroke="#f2f3f5" fill="none"/><path d="M1953.35 247.82h-.5v-1h.5z" stroke="#f2f3f5" stroke-width=".05" fill="#f2f3f5"/><path d="M2125.5 289.34l10.2 17.22 10.17-17.22M1988.8 364.02v21a6 6 0 0 0 6 6h70.15a6 6 0 0 1 6 6v20.6" stroke="#f2f3f5" fill="none"/><path d="M1989.3 364.04h-1v-.52h1z" stroke="#f2f3f5" stroke-width=".05" fill="#f2f3f5"/><path d="M2060.77 400.34l10.18 17.2 10.18-17.2" stroke="#f2f3f5" fill="none"/><path d="M2135.7 365.6v20.22a6 6 0 0 1-6 6h-52.75a6 6 0 0 0-6 6v19.8" stroke="#f2f3f5" fill="none"/><path d="M2136.2 365.62h-1v-.52h1z" stroke="#f2f3f5" stroke-width=".05" fill="#f2f3f5"/><path d="M2060.77 400.34l10.18 17.2 10.18-17.2M1953.34 247.32H2224a6 6 0 0 1 6 6v191.95a6 6 0 0 1-6 6h-75" stroke="#f2f3f5" fill="none"/><path d="M1953.35 247.82h-.5v-1h.5z" stroke="#f2f3f5" stroke-width=".05" fill="#f2f3f5"/><path d="M2166.3 441.08l-17.2 10.2 17.2 10.17" stroke="#f2f3f5" fill="none"/><defs><path fill="#333" d="M521-275c40-33 108-24 108 34 0 49-75 103-210 183-80 47-247 72-323 10-66-54-95-101-82-218 12-106 41-136 91-224 55-96 145-209 240-278 32-23 68-33 107-33 86 2 108 61 107 158 0 55-15 82-44 82-55 1-25-116-79-110-132 15-229 223-291 334-48 86-31 226 81 218 122-9 217-92 295-156" id="f"/><path fill="#333" d="M44-443c79-191 208-366 448-366 141 0 239 118 267 253 46 222-61 413-213 490-83 42-221 78-338 30-55-23-106-43-129-82-26-14-80-140-57-202 2-41 8-89 22-123zm103 115c1 136 75 191 208 191 130 0 180-50 241-135 38-53 55-111 55-169 0-109-73-236-179-227-143 12-260 151-311 271-9 24-14 47-14 69" id="g"/><path fill="#333" d="M608-642l-20 77c-36 56-69 94-113 138-49 48-58 40-29 81 33 46 69 89 97 147 44 89 52 141 40 147-3 38-20 49-63 52-68 5-97-106-129-160-40-68-56-162-144-164-53-1-27 78-45 121-7 56-12 123-28 170C157-4 113 24 66-1 46-11 40-39 49-87c19-111 19-139 19-313 0-144 1-187-40-242-27-37-13-94 26-108 103-36 250-59 389-41 63 8 182 85 165 149zm-140 11c-10-39-42-58-96-57-53 12-154 21-179 43-5 9-8 31-8 65 0 151 19 135 127 94 94-36 148-79 156-145" id="h"/><path fill="#333" d="M330-158c82-22 193-18 286-31 38 11 58 81 24 113-25 24-71 25-116 25-135 0-238 34-358 47C61 7 4-52 15-159c12-113 37-213 32-340-2-59 2-121-2-178-2-44 35-62 81-61 104-31 222-52 345-64 68-7 103 34 111 94 2 12-3 22-9 31-33 14-62 15-103 16-100 2-196 10-270 40h-8c-18 23-11 79-15 106-1 13 5 22 16 25 82-10 176-25 264-12 44 7 78 26 71 72-7 49-76 30-125 30-78 0-138 22-210 29-24 1-35 28-36 52-2 41-10 83-8 126-19 84 122 51 181 35" id="i"/><g id="a"><use transform="matrix(0.022222222222222223,0,0,0.022222222222222223,0,0)" xlink:href="#f"/><use transform="matrix(0.022222222222222223,0,0,0.022222222222222223,14.088888888888889,0)" xlink:href="#g"/><use transform="matrix(0.022222222222222223,0,0,0.022222222222222223,31.933333333333334,0)" xlink:href="#h"/><use transform="matrix(0.022222222222222223,0,0,0.022222222222222223,46.111111111111114,0)" xlink:href="#i"/></g><path fill="#333" d="M19-91c0-222 71-428 58-668-3-62 121-44 170-33 118 27 229 50 293 128 44 53 63 97 63 217 0 165-189 328-383 400-36 13-62 45-108 45-66 0-93-23-93-89zm185-582c-30 151-43 322-58 489 5 39 27 28 60 14 129-54 276-147 276-304 0-155-106-203-278-199" id="j"/><path fill="#333" d="M103-24C79 10-2-14 8-59c42-186 129-353 193-524 23-62 63-135 99-197 39-38 106-10 109 47 27 100 51 209 81 307 8 25 72 24 72 63 0 44-26 46-37 75 12 83 46 156 55 243 7 63-106 47-114 11-13-58-36-170-57-231-3-4-7-8-9-14-69 4-134 40-198 52-53 21-53 108-81 160-4 16-8 29-18 43zm215-551c-16 18-92 195-73 208 46 2 100-12 123-31-5-30-32-162-38-171-2-3-6-5-12-6" id="k"/><path fill="#333" d="M382-556c-3 158-18 304-18 470 0 31 6 72-21 86-20 35-87 21-104-6-1-188 14-367 23-549 1-24 13-80-17-80-77 0-131 31-210 31-15-10-43-18-33-45 0-82 83-94 148-109 103-23 215-12 315-40 43-12 91-17 142-23 62-8 95 53 77 116-8 28-47 14-75 18-68 9-134 10-195 30-32 11-31 60-32 101" id="l"/><path fill="#333" d="M68-174c-8-157-1-333-1-488 0-23-21-28-12-60 24-87 141-85 256-77 161 12 317 42 251 258-5 17-40 45-44 60 15 30 85 80 98 123 62 108 25 192-76 258C455-45 341-9 207-4 145-2 19-30 19-85c0-36 51-41 49-89zm137-510c-18 6-26 137-16 192 30 22 66 2 112-6 70-13 158-95 159-132 17-68-169-82-255-54zm-15 330c-15 57-2 155 5 215 6 4 6 12 18 11 101-5 211-32 267-82 52-46 58-91 12-140s-73-73-81-73c-39 14-121 48-173 54-15 2-34 14-48 15" id="m"/><path fill="#333" d="M371-533c189 0 256 55 239 237-9 91-67 138-157 205C374-33 301-7 236-7 155-7 13-82 18-160c3-44 62-73 96-38 43 44 152 73 218 29 77-51 166-125 156-169 2-44-67-63-119-62-47 1-108 1-155 3C87-393 13-429 1-531c11-87 101-150 165-187 90-52 160-96 290-87 34 2 118 78 115 115-3 35-23 38-55 45-15 4-26-4-33-24-37-64-116-1-164 12-41 11-154 77-154 113 0 15 14 22 41 22 45 0 127-11 165-11" id="n"/><g id="b"><use transform="matrix(0.022222222222222223,0,0,0.022222222222222223,0,0)" xlink:href="#j"/><use transform="matrix(0.022222222222222223,0,0,0.022222222222222223,11.755555555555556,0)" xlink:href="#k"/><use transform="matrix(0.022222222222222223,0,0,0.022222222222222223,22.22222222222222,0)" xlink:href="#l"/><use transform="matrix(0.022222222222222223,0,0,0.022222222222222223,33.62222222222222,0)" xlink:href="#k"/><use transform="matrix(0.022222222222222223,0,0,0.022222222222222223,46.66666666666667,0)" xlink:href="#m"/><use transform="matrix(0.022222222222222223,0,0,0.022222222222222223,59.91111111111111,0)" xlink:href="#k"/><use transform="matrix(0.022222222222222223,0,0,0.022222222222222223,72.4,0)" xlink:href="#n"/><use transform="matrix(0.022222222222222223,0,0,0.022222222222222223,86.42222222222223,0)" xlink:href="#i"/></g><path fill="#333" d="M722-498c18-70 6-160 6-241 0-38 16-57 49-57 55 0 82 64 82 193 1 204-63 347-126 491-54 125-124 110-196 9-30-42-54-91-82-146-27-53-43-79-49-79-8-17-88 136-114 182C269-106 193 9 170-1 96-15 86-47 66-129 33-267 17-480 18-657c0-70 18-105 54-105 39 0 66 36 68 87 4 137-4 277 12 406 12 100 67-12 84-47 47-96 102-197 139-285 18-41 78-38 96-4 52 97 51 251 110 344 50 78 71 31 104-70 17-53 22-108 37-167" id="o"/><path fill="#333" d="M21-302C-7-136 9 24 196-12c147-28 263-93 386-142 57-23 26-120-26-120-111 32-240 115-378 126-13 1-22-26-25-45 30-174 59-350 88-524 10-62-86-124-120-61-39 73-49 196-69 277-19 77-22 145-31 199" id="p"/><g id="c"><use transform="matrix(0.022222222222222223,0,0,0.022222222222222223,0,0)" xlink:href="#f"/><use transform="matrix(0.022222222222222223,0,0,0.022222222222222223,13.444444444444445,0)" xlink:href="#h"/><use transform="matrix(0.022222222222222223,0,0,0.022222222222222223,27.177777777777777,0)" xlink:href="#k"/><use transform="matrix(0.022222222222222223,0,0,0.022222222222222223,40.22222222222222,0)" xlink:href="#o"/><use transform="matrix(0.022222222222222223,0,0,0.022222222222222223,59.511111111111106,0)" xlink:href="#p"/></g><path fill="#333" d="M508-780c56-58 130 44 81 100-61 70-137 131-212 191-42 33-4 64 19 89 60 64 110 129 162 207 35 52 50 100 50 142 0 27-15 41-44 41-42 9-138-115-174-161S228-368 211-355C63-341 254-45 102-10 17-22 26-133 21-219 11-407 10-619 43-780c35-64 128 9 121 64-7 51-23 126-20 177 3 63 67 10 90-8 114-86 190-146 274-233" id="q"/><g id="d"><use transform="matrix(0.022222222222222223,0,0,0.022222222222222223,0,0)" xlink:href="#o"/><use transform="matrix(0.022222222222222223,0,0,0.022222222222222223,19.288888888888888,0)" xlink:href="#g"/><use transform="matrix(0.022222222222222223,0,0,0.022222222222222223,37.13333333333333,0)" xlink:href="#h"/><use transform="matrix(0.022222222222222223,0,0,0.022222222222222223,51.84444444444445,0)" xlink:href="#q"/><use transform="matrix(0.022222222222222223,0,0,0.022222222222222223,65.60000000000001,0)" xlink:href="#i"/><use transform="matrix(0.022222222222222223,0,0,0.022222222222222223,79.73333333333333,0)" xlink:href="#h"/></g><path fill="#333" d="M109-754c29-56 120 5 113 55-24 164-73 311-76 498 0 44 17 66 52 66 44 0 193-39 283-82 16-8 27-24 32-45 27-114 44-316 44-439 0-57 27-86 82-86 38 0 57 27 57 82 0 195-35 406-61 587 5 33 20 94-14 106-8 12-30 10-67-7-15-20-33-39-52-56C437-54 255 2 210 0 80-5 5-44 13-182c11-186 48-366 83-531 3-12 5-27 13-41" id="r"/><g id="e"><use transform="matrix(0.022222222222222223,0,0,0.022222222222222223,0,0)" xlink:href="#n"/><use transform="matrix(0.022222222222222223,0,0,0.022222222222222223,12.666666666666668,0)" xlink:href="#l"/><use transform="matrix(0.022222222222222223,0,0,0.022222222222222223,27.37777777777778,0)" xlink:href="#r"/><use transform="matrix(0.022222222222222223,0,0,0.022222222222222223,43.04444444444445,0)" xlink:href="#m"/></g></defs></g></svg>