<svg xmlns="http://www.w3.org/2000/svg" xmlns:xlink="http://www.w3.org/1999/xlink" xmlns:lucid="lucid" width="992" height="187"><g transform="translate(-178 -131)" lucid:page-tab-id="0_0"><path d="M0 0h1870.87v2581.67H0z" fill="#0d1117"/><path d="M925 177.18a6 6 0 0 1 6-6h208a6 6 0 0 1 6 6v88a6 6 0 0 1-6 6H931a6 6 0 0 1-6-6z" stroke="#5e5e5e" stroke-width="3" fill="#f2f3f5"/><path d="M1002.5 177.18a6 6 0 0 1 6-6H1139a6 6 0 0 1 6 6v88a6 6 0 0 1-6 6h-130.5a6 6 0 0 1-6-6z" stroke="#000" stroke-opacity="0" stroke-width="3" fill="#fff" fill-opacity="0"/><use xlink:href="#a" transform="matrix(1,0,0,1,1007.5,176.18477959722046) translate(15.888888888888886 51.52777777777778)"/><path d="M1013.6 220.78c-.47-1.36-2.1-2.1-3.57-1.64-.4.07-.7.2-.93.4l-13.02-3.4 9.38-2.78c.7.54 1.7.75 2.7.48 1.48-.4 2.34-1.9 1.8-3.27-.47-1.43-2.1-2.18-3.57-1.7-1.02.27-1.64 1.02-1.87 1.84l-9.53 2.86 8.2-9.86c.47.07.86 0 1.33-.14 1.47-.4 2.32-1.9 1.86-3.26-.55-1.36-2.1-2.18-3.65-1.7-1.48.47-2.33 1.9-1.8 3.33l-9.2 10.95c-.32 0-.7.07-1.1.14-1.24.4-2.1 1.43-2.32 2.52l-10.3 3.06c-.4-.4-.94-.75-1.56-1.02v-9.93c1.16-.55 2.02-1.57 2.02-2.86 0-.42-.1-.76-.25-1.1l8.22-11.3h.23c1.63 0 2.87-1.15 2.87-2.58 0-1.5-1.24-2.65-2.87-2.65-1.55 0-2.87 1.15-2.87 2.65 0 .34.08.6.24.95l-7.6 10.34V192c.86-.4 1.4-1.3 1.4-2.18 0-1.5-1.32-2.65-2.87-2.65s-2.87 1.15-2.87 2.65c0 .88.54 1.77 1.4 2.18v9.18l-7.67-10.2c.15-.34.23-.75.23-1.16 0-1.5-1.25-2.65-2.8-2.65-1.63 0-2.87 1.15-2.87 2.65 0 1.43 1.24 2.58 2.87 2.58l8.45 11.37c-.16.27-.24.68-.24 1.02 0 1.28.87 2.3 2.03 2.85v9.93c-.62.27-1.16.6-1.55 1.02l-10.3-3.06c-.24-1.1-1.1-2.1-2.33-2.52-.4-.07-.78-.14-1.17-.14l-9.22-10.75c.08-.06.08-.13.08-.2.54-1.43-.3-2.86-1.78-3.33-1.55-.48-3.1.34-3.65 1.7-.45 1.36.4 2.85 1.87 3.26.3.14.7.14 1 .14l8.46 9.86-9.46-2.85c-.23-.8-.85-1.56-1.86-1.83-1.46-.48-3.1.27-3.55 1.7-.54 1.36.3 2.86 1.78 3.27 1 .27 2 .06 2.7-.48l9.55 2.86-12.95 3.54c-.3-.28-.7-.55-1.16-.62-1.47-.47-3.1.28-3.57 1.64-.46 1.43.32 2.85 1.8 3.33 1.54.42 3.16-.33 3.63-1.7l14.26-3.87c.3.2.7.4 1.07.55 1.32.4 2.72 0 3.65-.9l10.23 3.07c0 .62.23 1.16.54 1.7l-6.37 8.1c-1.24-.2-2.55.27-3.33 1.23-.23.34-.38.6-.46.95l-14.03 4.7c0-.08-.07-.08-.14-.14-1.32-.9-3.1-.63-4.03.53-.94 1.23-.63 2.86.7 3.67 1.23.9 3.02.62 3.95-.54.23-.27.38-.6.46-.88l12.7-4.3-5.8 7.36c-.93-.07-1.86.27-2.48 1.1-.93 1.14-.62 2.78.62 3.6 1.24.88 3.02.6 3.95-.55.62-.76.7-1.7.4-2.53l5.8-7.42-.3 12.4c-.4.2-.7.46-1.02.8-.92 1.16-.6 2.8.63 3.68 1.32.8 3.1.54 4.03-.6.93-1.17.62-2.8-.62-3.7l.3-13.6c.4-.2.7-.47.94-.8.86-1.03.86-2.4.24-3.4l6.35-8.04c.3.05.62.05.93.05.3 0 .62 0 .93-.06l6.36 8.02c-.63 1.02-.56 2.38.22 3.4.23.27.46.54.77.68l.7 13.6c-.1.07-.16.14-.24.14-1.24.9-1.55 2.52-.62 3.68.93 1.15 2.7 1.42 4.03.6 1.24-.88 1.55-2.5.62-3.67-.25-.27-.55-.54-.8-.68l-.68-12.65 5.96 7.55c-.3.82-.23 1.77.4 2.52.84 1.14 2.7 1.42 3.94.53 1.24-.8 1.55-2.45.62-3.6-.62-.82-1.55-1.16-2.48-1.1l-5.8-7.34 12.62 4.07c.08.34.3.75.54 1.1.93 1.15 2.72 1.42 3.96.53 1.3-.8 1.55-2.44.7-3.67-.93-1.16-2.72-1.43-4.03-.54l-14.1-4.57c-.1-.34-.32-.6-.55-.95-.78-.96-2.1-1.43-3.34-1.23l-6.35-8.1c.32-.54.55-1.08.55-1.7l10.23-3.06c.86.88 2.33 1.28 3.65.88.46-.14.85-.34 1.16-.62l14.1 3.75c.07.07.07.14.07.2.47 1.37 2.1 2.2 3.64 1.7 1.5-.47 2.26-1.9 1.8-3.32z" stroke="#000" stroke-opacity="0"/><path d="M220 177.18a6 6 0 0 1 6-6h208a6 6 0 0 1 6 6v88a6 6 0 0 1-6 6H226a6 6 0 0 1-6-6z" stroke="#5e5e5e" stroke-width="3" fill="#f2f3f5"/><path d="M288.63 177.18a6 6 0 0 1 6-6H434a6 6 0 0 1 6 6v88a6 6 0 0 1-6 6H294.62a6 6 0 0 1-6-6z" stroke="#000" stroke-opacity="0" stroke-width="3" fill="#fff" fill-opacity="0"/><use xlink:href="#b" transform="matrix(1,0,0,1,293.625,176.18477959722046) translate(5.444444444444443 51.52777777777778)"/><path d="M280.7 219.43c1.4 0 2.66.6 3.5 1.65.5.55 1.18.85 1.98.85 1.33 0 2.44-1.05 2.44-2.3v-12.65c0-1.85-1.6-3.3-3.5-3.3h-11.7c-.42 0-.8-.35-.8-.75 0-.25.16-.45.32-.6 1.76-1.3 2.6-3.35 2.3-5.45-.38-2.5-2.67-4.55-5.33-4.85-1.8-.2-3.55.3-4.82 1.4-1.33 1.1-2.08 2.7-2.08 4.35 0 1.8.85 3.45 2.34 4.55.2.15.32.35.32.6 0 .4-.37.75-.8.75H251.4c-1.95 0-3.5 1.45-3.5 3.3v12.65c0 .4-.37.75-.8.75-.26 0-.47-.1-.63-.3-1.38-1.65-3.56-2.45-5.8-2.15-2.65.4-4.83 2.5-5.15 5.05-.2 1.65.32 3.3 1.5 4.55 1.16 1.2 2.86 1.9 4.6 1.9 1.93 0 3.68-.8 4.85-2.2.16-.2.37-.3.64-.3.43 0 .8.35.8.75v11c0 1.8 1.55 3.3 3.5 3.3h13.46c1.33 0 2.45-1.05 2.45-2.35 0-.7-.3-1.35-.95-1.8-1.27-.95-1.9-2.45-1.65-3.95.27-1.85 1.92-3.35 3.88-3.55 1.33-.15 2.56.2 3.57 1.05.95.8 1.48 1.95 1.48 3.15 0 1.3-.63 2.5-1.7 3.3-.63.45-.95 1.1-.95 1.85 0 1.25 1.1 2.3 2.44 2.3h11.7c1.9 0 3.5-1.5 3.5-3.3v-11c0-1.25-1.1-2.3-2.5-2.3-.74 0-1.43.35-1.9.9-1.02 1.2-2.6 1.8-4.2 1.55-1.97-.25-3.57-1.8-3.78-3.65-.16-1.25.2-2.4 1.12-3.35.85-.9 2.07-1.4 3.34-1.4zm-4.62.4c-1.17 1.2-1.7 2.85-1.5 4.55.33 2.5 2.5 4.65 5.17 5 2.23.3 4.4-.5 5.8-2.15.15-.15.36-.3.63-.3.43 0 .8.35.8.75v11c0 .95-.85 1.75-1.86 1.75h-11.7c-.42 0-.8-.35-.8-.8 0-.2.1-.4.32-.55 1.5-1.1 2.34-2.75 2.34-4.55 0-1.65-.74-3.25-2.02-4.35-1.17-.95-2.6-1.45-4.14-1.45-.22 0-.48 0-.7.05-2.7.3-4.94 2.35-5.36 4.85-.32 2.1.53 4.15 2.28 5.45.2.15.32.35.32.6 0 .4-.37.75-.8.75H251.4c-1 0-1.85-.8-1.85-1.75v-11c0-1.25-1.1-2.3-2.44-2.3-.8 0-1.48.3-1.96.9-.85 1-2.12 1.6-3.5 1.6-1.28 0-2.5-.5-3.36-1.4-.9-.95-1.27-2.1-1.1-3.35.2-1.85 1.8-3.4 3.76-3.65 1.65-.25 3.2.35 4.2 1.55.48.6 1.17.9 1.97.9 1.34 0 2.45-1.05 2.45-2.3v-12.65c0-.95.85-1.75 1.86-1.75h13.46c1.33 0 2.45-1.05 2.45-2.3 0-.75-.3-1.4-.9-1.85-1.1-.8-1.75-2-1.75-3.3 0-1.2.53-2.35 1.5-3.15 1-.85 2.22-1.2 3.55-1.05 1.97.2 3.62 1.7 3.88 3.55.27 1.55-.37 3-1.65 3.95-.58.45-.95 1.1-.95 1.85 0 1.25 1.1 2.3 2.44 2.3h11.7c1 0 1.86.8 1.86 1.75v12.65c0 .4-.37.75-.85.75-.22 0-.43-.1-.6-.3-1.16-1.4-2.9-2.2-4.83-2.2-1.75 0-3.45.7-4.62 1.95z" stroke="#000" stroke-opacity="0" stroke-width=".29"/><path d="M271.83 211.18h-2.66c-.48 0-.85.35-.85.8 0 .4.37.75.85.75h.58l-3.24 8.6-3.28-8.6h.58c.48 0 .85-.35.85-.75 0-.45-.37-.8-.85-.8h-2.66c-.42 0-.8.35-.8.8 0 .4.38.75.8.75h.32l1 2.75-2.17 5.85-3.3-8.6h.58c.48 0 .85-.35.85-.75 0-.45-.37-.8-.85-.8h-2.66c-.42 0-.8.35-.8.8 0 .4.38.75.8.75h.32l3.83 10.1c.16.45.64.8 1.22.8.52 0 1-.35 1.16-.8l1.92-5.05 1.9 5.05c.17.45.65.8 1.23.8.54 0 1.02-.35 1.18-.8l3.83-10.1h.33c.42 0 .8-.35.8-.75 0-.45-.38-.8-.8-.8z" stroke="#000" stroke-opacity="0" stroke-width=".29"/><path d="M548.7 161.4a6 6 0 0 1 6-6h208a6 6 0 0 1 6 6v88a6 6 0 0 1-6 6h-208a6 6 0 0 1-6-6z" stroke="#5e5e5e" stroke-width="3" fill="#f2f3f5"/><path d="M628.7 161.4a6 6 0 0 1 6-6h128a6 6 0 0 1 6 6v88a6 6 0 0 1-6 6h-128a6 6 0 0 1-6-6z" stroke="#000" stroke-opacity="0" stroke-width="3" fill="#f2f3f5"/><use xlink:href="#c" transform="matrix(1,0,0,1,633.6875,160.40977959722045) translate(11.255555555555553 51.52777777777778)"/><path d="M598.7 192.72c-7.57 0-13.75 6-13.75 13.44 0 7.44 6.18 13.44 13.74 13.44 7.55 0 13.73-6 13.73-13.44 0-7.44-6.18-13.44-13.74-13.44zm0 22.8c-5.3 0-9.6-4.2-9.6-9.36 0-5.16 4.3-9.36 9.6-9.36 5.27 0 9.6 4.2 9.6 9.36 0 5.16-4.33 9.36-9.6 9.36z" stroke="#000" stroke-opacity="0" stroke-width=".51" fill="#f2f3f5"/><path d="M598.7 199.08c-4.03 0-7.27 3.18-7.27 7.08s3.24 7.08 7.26 7.08c4 0 7.25-3.18 7.25-7.08s-3.24-7.08-7.26-7.08zm0 10.08c-1.7 0-3.07-1.32-3.07-3s1.38-3 3.06-3c1.67 0 3.05 1.32 3.05 3s-1.38 3-3.06 3z" stroke="#000" stroke-opacity="0" stroke-width=".51" fill="#f2f3f5"/><path d="M627.67 213l-3.78-2.16c.3-1.5.47-3.12.47-4.68 0-1.56-.18-3.18-.48-4.74l3.77-2.1c.48-.24.78-.72.96-1.26.12-.48.06-1.08-.24-1.5l-6.3-10.8c-.6-.96-1.87-1.32-2.9-.72l-3.77 2.1c-2.4-2.04-5.28-3.66-8.28-4.68v-4.26c0-1.14-.96-2.04-2.1-2.04h-12.72c-1.14 0-2.1.9-2.1 2.04v4.26c-3 1.02-5.88 2.64-8.28 4.68l-3.78-2.1c-1.02-.6-2.28-.24-2.88.72l-6.3 10.8c-.3.42-.37 1.02-.25 1.5.18.54.48 1.02.96 1.26l3.8 2.16c-.3 1.5-.5 3.12-.5 4.68 0 1.56.2 3.18.5 4.68l-3.8 2.16c-.47.24-.77.72-.95 1.26-.12.48-.06 1.08.24 1.5l6.3 10.8c.6.96 1.85 1.32 2.87.72l3.78-2.1c2.4 2.04 5.28 3.66 8.28 4.68v4.26c0 1.14.96 2.04 2.1 2.04h12.72c1.14 0 2.1-.9 2.1-2.04v-4.26c3-1.02 5.88-2.64 8.28-4.68l3.78 2.1c1.03.6 2.3.24 2.9-.72l6.3-10.8c.3-.42.35-1.02.23-1.5-.18-.54-.48-1.02-.96-1.26zm-8.16-12.06c.43 1.68.67 3.48.67 5.22 0 1.74-.24 3.54-.66 5.22-.23.9.2 1.8.97 2.28l3.3 1.86-4.26 7.2-3.3-1.86c-.77-.42-1.8-.3-2.5.3-2.6 2.52-5.77 4.32-9.25 5.28-.9.24-1.5 1.02-1.5 1.92v3.72h-8.52v-3.72c0-.9-.6-1.68-1.5-1.92-3.48-.96-6.66-2.76-9.24-5.28-.73-.6-1.75-.72-2.53-.3l-3.3 1.86-4.26-7.2 3.3-1.86c.8-.48 1.2-1.38.97-2.28-.42-1.68-.66-3.48-.66-5.22 0-1.74.25-3.54.67-5.22.24-.9-.18-1.8-.96-2.28l-3.3-1.86 4.27-7.2 3.3 1.86c.78.42 1.8.3 2.52-.3 2.57-2.52 5.75-4.32 9.23-5.28.9-.24 1.5-1.02 1.5-1.92v-3.72h8.52v3.72c0 .9.6 1.68 1.5 1.92 3.48.96 6.66 2.76 9.24 5.28.7.6 1.73.72 2.5.3l3.3-1.86 4.27 7.2-3.3 1.86c-.78.48-1.2 1.38-.96 2.28z" stroke="#000" stroke-opacity="0" stroke-width=".51" fill="#f2f3f5"/><path d="M557.3 172.98a6 6 0 0 1 6-6h208a6 6 0 0 1 6 6v88a6 6 0 0 1-6 6h-208a6 6 0 0 1-6-6z" stroke="#5e5e5e" stroke-width="3" fill="#f2f3f5"/><path d="M637.3 172.98a6 6 0 0 1 6-6h128a6 6 0 0 1 6 6v88a6 6 0 0 1-6 6h-128a6 6 0 0 1-6-6z" stroke="#000" stroke-opacity="0" stroke-width="3" fill="#f2f3f5"/><use xlink:href="#c" transform="matrix(1,0,0,1,642.3125,171.97933879166138) translate(11.255555555555553 51.52777777777778)"/><path d="M607.3 204.3c-7.55 0-13.73 6-13.73 13.43 0 7.44 6.18 13.44 13.74 13.44 7.57 0 13.75-6 13.75-13.44 0-7.44-6.18-13.44-13.74-13.44zm0 22.8c-5.27 0-9.6-4.2-9.6-9.37 0-5.16 4.33-9.36 9.6-9.36 5.3 0 9.6 4.2 9.6 9.36 0 5.16-4.3 9.36-9.6 9.36z" stroke="#000" stroke-opacity="0" stroke-width=".51" fill="#f2f3f5"/><path d="M607.3 210.65c-4 0-7.25 3.18-7.25 7.08s3.24 7.08 7.26 7.08c4.03 0 7.27-3.17 7.27-7.07 0-3.9-3.24-7.08-7.26-7.08zm0 10.08c-1.67 0-3.05-1.32-3.05-3s1.38-3 3.06-3c1.7 0 3.07 1.32 3.07 3s-1.38 3-3.06 3z" stroke="#000" stroke-opacity="0" stroke-width=".51" fill="#f2f3f5"/><path d="M636.3 224.57l-3.8-2.16c.3-1.5.5-3.1.5-4.67 0-1.56-.2-3.18-.5-4.74l3.8-2.1c.47-.25.77-.73.95-1.27.12-.48.06-1.08-.24-1.5l-6.3-10.8c-.6-.96-1.85-1.32-2.87-.72l-3.78 2.1c-2.4-2.03-5.28-3.65-8.28-4.67v-4.26c0-1.14-.96-2.04-2.1-2.04h-12.72c-1.14 0-2.1.9-2.1 2.04v4.26c-3 1.02-5.88 2.64-8.28 4.68l-3.78-2.1c-1.03-.6-2.3-.23-2.9.73l-6.3 10.8c-.3.42-.35 1.02-.23 1.5.18.54.48 1.02.96 1.26l3.78 2.15c-.3 1.5-.47 3.12-.47 4.68 0 1.56.18 3.18.48 4.68l-3.77 2.17c-.48.24-.78.72-.96 1.26-.12.48-.06 1.08.24 1.5l6.3 10.8c.6.96 1.87 1.32 2.9.72l3.77-2.1c2.4 2.04 5.28 3.66 8.28 4.68v4.26c0 1.13.96 2.03 2.1 2.03h12.72c1.14 0 2.1-.9 2.1-2.04v-4.27c3-1.02 5.88-2.64 8.28-4.68l3.78 2.1c1.02.6 2.28.24 2.88-.72l6.3-10.8c.3-.42.37-1.02.25-1.5-.18-.54-.48-1.02-.96-1.26zm-8.17-12.06c.42 1.7.66 3.5.66 5.23 0 1.74-.25 3.54-.67 5.22-.24.9.18 1.8.96 2.28l3.3 1.86-4.27 7.2-3.3-1.87c-.78-.42-1.8-.3-2.52.3-2.57 2.52-5.75 4.32-9.23 5.28-.9.25-1.5 1.03-1.5 1.93v3.72h-8.52v-3.72c0-.9-.6-1.68-1.5-1.92-3.48-.95-6.66-2.75-9.24-5.27-.7-.6-1.73-.72-2.5-.3l-3.3 1.86-4.27-7.2 3.3-1.87c.78-.48 1.2-1.38.96-2.28-.43-1.68-.67-3.48-.67-5.22 0-1.74.24-3.54.66-5.22.23-.9-.2-1.8-.97-2.27l-3.3-1.86 4.26-7.2 3.3 1.86c.77.42 1.8.3 2.5-.3 2.6-2.52 5.77-4.32 9.25-5.28.9-.24 1.5-1.02 1.5-1.92v-3.72h8.52v3.73c0 .9.6 1.68 1.5 1.92 3.48.96 6.66 2.76 9.24 5.28.73.6 1.75.72 2.53.3l3.3-1.86 4.26 7.2-3.3 1.86c-.8.48-1.2 1.38-.97 2.28z" stroke="#000" stroke-opacity="0" stroke-width=".51" fill="#f2f3f5"/><path d="M568.56 182.23a6 6 0 0 1 6-6h208a6 6 0 0 1 6 6v88a6 6 0 0 1-6 6h-208a6 6 0 0 1-6-6z" stroke="#5e5e5e" stroke-width="3" fill="#f2f3f5"/><path d="M648.56 182.23a6 6 0 0 1 6-6h128a6 6 0 0 1 6 6v88a6 6 0 0 1-6 6h-128a6 6 0 0 1-6-6z" stroke="#000" stroke-opacity="0" stroke-width="3" fill="#f2f3f5"/><use xlink:href="#c" transform="matrix(1,0,0,1,653.5625,181.2293387916614) translate(11.255555555555553 51.52777777777778)"/><path d="M618.56 213.54c-7.56 0-13.74 6-13.74 13.44 0 7.44 6.18 13.44 13.74 13.44 7.56 0 13.74-6 13.74-13.44 0-7.44-6.18-13.44-13.74-13.44zm0 22.8c-5.28 0-9.6-4.2-9.6-9.36 0-5.16 4.32-9.36 9.6-9.36 5.28 0 9.6 4.2 9.6 9.36 0 5.16-4.32 9.36-9.6 9.36z" stroke="#000" stroke-opacity="0" stroke-width=".51" fill="#f2f3f5"/><path d="M618.56 219.9c-4.02 0-7.26 3.18-7.26 7.08s3.24 7.08 7.26 7.08 7.26-3.18 7.26-7.08-3.24-7.08-7.26-7.08zm0 10.08c-1.68 0-3.06-1.32-3.06-3s1.38-3 3.06-3c1.68 0 3.06 1.32 3.06 3s-1.38 3-3.06 3z" stroke="#000" stroke-opacity="0" stroke-width=".51" fill="#f2f3f5"/><path d="M647.54 233.82l-3.78-2.16c.3-1.5.48-3.12.48-4.68 0-1.56-.18-3.18-.48-4.74l3.78-2.1c.48-.24.78-.72.96-1.26.12-.48.06-1.08-.24-1.5l-6.3-10.8c-.6-.96-1.86-1.32-2.88-.72l-3.78 2.1c-2.4-2.04-5.28-3.66-8.28-4.68v-4.26c0-1.14-.96-2.04-2.1-2.04H612.2c-1.14 0-2.1.9-2.1 2.04v4.26c-3 1.02-5.88 2.64-8.28 4.68l-3.78-2.1c-1.02-.6-2.28-.24-2.88.72l-6.3 10.8c-.3.42-.36 1.02-.24 1.5.18.54.48 1.02.96 1.26l3.78 2.16c-.3 1.5-.48 3.12-.48 4.68 0 1.56.18 3.18.48 4.68l-3.78 2.16c-.48.24-.78.72-.96 1.26-.12.48-.06 1.08.24 1.5l6.3 10.8c.6.96 1.86 1.32 2.88.72l3.78-2.1c2.4 2.04 5.28 3.66 8.28 4.68v4.26c0 1.14.96 2.04 2.1 2.04h12.72c1.14 0 2.1-.9 2.1-2.04v-4.26c3-1.02 5.88-2.64 8.28-4.68l3.78 2.1c1.02.6 2.28.24 2.88-.72l6.3-10.8c.3-.42.36-1.02.24-1.5-.18-.54-.48-1.02-.96-1.26zm-8.16-12.06c.42 1.68.66 3.48.66 5.22 0 1.74-.24 3.54-.66 5.22-.24.9.18 1.8.96 2.28l3.3 1.86-4.26 7.2-3.3-1.86c-.78-.42-1.8-.3-2.52.3-2.58 2.52-5.76 4.32-9.24 5.28-.9.24-1.5 1.02-1.5 1.92v3.72h-8.52v-3.72c0-.9-.6-1.68-1.5-1.92-3.48-.96-6.66-2.76-9.24-5.28-.72-.6-1.74-.72-2.52-.3l-3.3 1.86-4.26-7.2 3.3-1.86c.78-.48 1.2-1.38.96-2.28-.42-1.68-.66-3.48-.66-5.22 0-1.74.24-3.54.66-5.22.24-.9-.18-1.8-.96-2.28l-3.3-1.86 4.26-7.2 3.3 1.86c.78.42 1.8.3 2.52-.3 2.58-2.52 5.76-4.32 9.24-5.28.9-.24 1.5-1.02 1.5-1.92v-3.72h8.52v3.72c0 .9.6 1.68 1.5 1.92 3.48.96 6.66 2.76 9.24 5.28.72.6 1.74.72 2.52.3l3.3-1.86 4.26 7.2-3.3 1.86c-.78.48-1.2 1.38-.96 2.28z" stroke="#000" stroke-opacity="0" stroke-width=".51" fill="#f2f3f5"/><path d="M577.3 193.73a6 6 0 0 1 6-6h208a6 6 0 0 1 6 6v88a6 6 0 0 1-6 6h-208a6 6 0 0 1-6-6z" stroke="#5e5e5e" stroke-width="3" fill="#f2f3f5"/><path d="M637.3 193.73a6 6 0 0 1 6-6h148a6 6 0 0 1 6 6v88a6 6 0 0 1-6 6h-148a6 6 0 0 1-6-6z" stroke="#000" stroke-opacity="0" stroke-width="3" fill="#f2f3f5"/><use xlink:href="#d" transform="matrix(1,0,0,1,642.3125,192.7293387916614) translate(48.955555555555556 40.27777777777778)"/><use xlink:href="#e" transform="matrix(1,0,0,1,642.3125,192.7293387916614) translate(35.55555555555556 64.14444444444445)"/><path d="M440.96 221.18h87.78" stroke="#fff" stroke-width="2" fill="none"/><path d="M441 222.18h-1.04v-2H441z" stroke="#fff" stroke-width=".05" fill="#fff"/><path d="M544 221.18l-14.26 4.64v-9.27z" stroke="#fff" stroke-width="2" fill="#fff"/><path d="M815.76 221.18H905.03" stroke="#fff" stroke-width="2" fill="none"/><path d="M800.5 221.18l14.26-4.63v9.27zM920.3 221.18l-14.27 4.64v-9.27z" stroke="#fff" stroke-width="2" fill="#fff"/><path d="M437.2 201.4a6 6 0 0 1 6-6h93.55a6 6 0 0 1 6 6v15.98a6 6 0 0 1-6 6H443.2a6 6 0 0 1-6-6z" stroke="#000" stroke-opacity="0" stroke-width="3" fill="#fff" fill-opacity="0"/><use xlink:href="#f" transform="matrix(1,0,0,1,442.1875,200.40977959722045) translate(15.994791666666664 12.9140625)"/><path d="M811.28 202.98a6 6 0 0 1 6-6h87.75a6 6 0 0 1 6 6v15.97a6 6 0 0 1-6 6h-87.75a6 6 0 0 1-6-6z" stroke="#000" stroke-opacity="0" stroke-width="3" fill="#fff" fill-opacity="0"/><use xlink:href="#g" transform="matrix(1,0,0,1,816.28125,201.97933879166143) translate(4.993489583333336 12.9140625)"/><path d="M627.15 224.28c-7.5 0-13.52 6-13.52 13.45 0 7.45 6.02 13.45 13.52 13.45s13.5-6 13.5-13.45c0-7.4-6.07-13.45-13.5-13.45zm0 24.85c-6.3 0-11.46-5.13-11.46-11.4 0-6.27 5.15-11.4 11.45-11.4 6.3 0 11.45 5.13 11.45 11.4 0 6.27-5.16 11.4-11.45 11.4zm26.92-4.97l-4.07-5.4v-2l4.07-5.46c.22-.27.27-.54.17-.86-.66-2.43-1.47-4.43-2.72-6.6-.16-.32-.43-.48-.76-.53l-6.73-.97c-.5-.48-.92-.9-1.4-1.4l-1-6.7c-.04-.32-.2-.6-.53-.76-2.17-1.24-4.18-2.05-6.63-2.7-.32-.1-.6-.05-.86.17L628.2 215c-.7-.07-1.36-.07-2.07 0l-5.42-4.06c-.27-.22-.54-.27-.86-.17-2.45.65-4.46 1.46-6.63 2.7-.33.17-.5.44-.55.76l-.98 6.7-1.4 1.4-6.74.98c-.33.06-.6.22-.76.55-1.25 2.16-2.06 4.16-2.72 6.6-.1.3-.05.58.17.85l4.07 5.4v2l-4.08 5.46c-.22.27-.27.54-.17.86.66 2.43 1.47 4.43 2.72 6.6.16.32.43.48.76.53l6.73.97 1.4 1.4 1 6.7c.04.33.2.6.53.76 2.16 1.25 4.17 2.06 6.62 2.7.32.1.6.06.86-.16l5.43-4.05c.72.06 1.37.06 2.08 0l5.43 4.05c.28.22.55.27.87.16 2.45-.64 4.46-1.45 6.63-2.7.32-.16.5-.43.54-.75l.98-6.7c.43-.5 1.03-1.08 1.4-1.4l6.74-.98c.33-.05.6-.2.76-.54 1.25-2.15 2.06-4.15 2.72-6.58.1-.32.05-.6-.17-.86zm-4.12 6l-6.57.97c-.27 0-.5.1-.65.27 0 .05-1.2 1.3-1.8 1.83-.2.16-.32.38-.32.65l-.97 6.54c-1.74.97-3.3 1.62-5.2 2.16l-5.33-4c-.22-.16-.43-.22-.7-.22-.87.06-1.63.06-2.5 0-.27 0-.5.06-.7.22l-5.33 4c-1.9-.54-3.47-1.2-5.2-2.16l-1-6.54c0-.27-.1-.5-.3-.65-.67-.6-1.2-1.13-1.8-1.78-.17-.22-.4-.32-.66-.32l-6.56-.98c-.97-1.72-1.63-3.3-2.17-5.18l4.02-5.3c.15-.2.2-.37.2-.64 0 0-.05-1.73 0-2.54 0-.28-.05-.5-.2-.72l-4.03-5.3c.54-1.88 1.2-3.45 2.17-5.18l6.57-.97c.28 0 .5-.1.66-.32.6-.64 1.14-1.18 1.8-1.77.2-.17.32-.38.32-.65l.98-6.54c1.74-.97 3.3-1.62 5.2-2.16l5.33 4c.2.16.43.2.7.2.87-.04 1.63-.04 2.5 0 .27 0 .48-.04.7-.2l5.32-4c1.9.54 3.47 1.2 5.2 2.16l1 6.54c0 .27.1.48.3.65.67.6 1.2 1.13 1.8 1.78.17.22.4.33.66.33l6.57.97c.97 1.73 1.63 3.3 2.17 5.2l-4.02 5.28c-.16.22-.22.38-.22.65 0 0 .06 1.73 0 2.54 0 .27.06.5.22.7l4.02 5.3c-.54 1.9-1.2 3.46-2.17 5.18z" stroke="#000" stroke-opacity="0"/><defs><path fill="#333" d="M19-91c0-222 71-428 58-668-3-62 121-44 170-33 118 27 229 50 293 128 44 53 63 97 63 217 0 165-189 328-383 400-36 13-62 45-108 45-66 0-93-23-93-89zm185-582c-30 151-43 322-58 489 5 39 27 28 60 14 129-54 276-147 276-304 0-155-106-203-278-199" id="h"/><path fill="#333" d="M103-24C79 10-2-14 8-59c42-186 129-353 193-524 23-62 63-135 99-197 39-38 106-10 109 47 27 100 51 209 81 307 8 25 72 24 72 63 0 44-26 46-37 75 12 83 46 156 55 243 7 63-106 47-114 11-13-58-36-170-57-231-3-4-7-8-9-14-69 4-134 40-198 52-53 21-53 108-81 160-4 16-8 29-18 43zm215-551c-16 18-92 195-73 208 46 2 100-12 123-31-5-30-32-162-38-171-2-3-6-5-12-6" id="i"/><path fill="#333" d="M382-556c-3 158-18 304-18 470 0 31 6 72-21 86-20 35-87 21-104-6-1-188 14-367 23-549 1-24 13-80-17-80-77 0-131 31-210 31-15-10-43-18-33-45 0-82 83-94 148-109 103-23 215-12 315-40 43-12 91-17 142-23 62-8 95 53 77 116-8 28-47 14-75 18-68 9-134 10-195 30-32 11-31 60-32 101" id="j"/><path fill="#333" d="M68-174c-8-157-1-333-1-488 0-23-21-28-12-60 24-87 141-85 256-77 161 12 317 42 251 258-5 17-40 45-44 60 15 30 85 80 98 123 62 108 25 192-76 258C455-45 341-9 207-4 145-2 19-30 19-85c0-36 51-41 49-89zm137-510c-18 6-26 137-16 192 30 22 66 2 112-6 70-13 158-95 159-132 17-68-169-82-255-54zm-15 330c-15 57-2 155 5 215 6 4 6 12 18 11 101-5 211-32 267-82 52-46 58-91 12-140s-73-73-81-73c-39 14-121 48-173 54-15 2-34 14-48 15" id="k"/><path fill="#333" d="M371-533c189 0 256 55 239 237-9 91-67 138-157 205C374-33 301-7 236-7 155-7 13-82 18-160c3-44 62-73 96-38 43 44 152 73 218 29 77-51 166-125 156-169 2-44-67-63-119-62-47 1-108 1-155 3C87-393 13-429 1-531c11-87 101-150 165-187 90-52 160-96 290-87 34 2 118 78 115 115-3 35-23 38-55 45-15 4-26-4-33-24-37-64-116-1-164 12-41 11-154 77-154 113 0 15 14 22 41 22 45 0 127-11 165-11" id="l"/><path fill="#333" d="M330-158c82-22 193-18 286-31 38 11 58 81 24 113-25 24-71 25-116 25-135 0-238 34-358 47C61 7 4-52 15-159c12-113 37-213 32-340-2-59 2-121-2-178-2-44 35-62 81-61 104-31 222-52 345-64 68-7 103 34 111 94 2 12-3 22-9 31-33 14-62 15-103 16-100 2-196 10-270 40h-8c-18 23-11 79-15 106-1 13 5 22 16 25 82-10 176-25 264-12 44 7 78 26 71 72-7 49-76 30-125 30-78 0-138 22-210 29-24 1-35 28-36 52-2 41-10 83-8 126-19 84 122 51 181 35" id="m"/><g id="a"><use transform="matrix(0.022222222222222223,0,0,0.022222222222222223,0,0)" xlink:href="#h"/><use transform="matrix(0.022222222222222223,0,0,0.022222222222222223,11.755555555555556,0)" xlink:href="#i"/><use transform="matrix(0.022222222222222223,0,0,0.022222222222222223,22.22222222222222,0)" xlink:href="#j"/><use transform="matrix(0.022222222222222223,0,0,0.022222222222222223,33.62222222222222,0)" xlink:href="#i"/><use transform="matrix(0.022222222222222223,0,0,0.022222222222222223,46.66666666666667,0)" xlink:href="#k"/><use transform="matrix(0.022222222222222223,0,0,0.022222222222222223,59.91111111111111,0)" xlink:href="#i"/><use transform="matrix(0.022222222222222223,0,0,0.022222222222222223,72.4,0)" xlink:href="#l"/><use transform="matrix(0.022222222222222223,0,0,0.022222222222222223,86.42222222222223,0)" xlink:href="#m"/></g><path fill="#333" d="M722-498c18-70 6-160 6-241 0-38 16-57 49-57 55 0 82 64 82 193 1 204-63 347-126 491-54 125-124 110-196 9-30-42-54-91-82-146-27-53-43-79-49-79-8-17-88 136-114 182C269-106 193 9 170-1 96-15 86-47 66-129 33-267 17-480 18-657c0-70 18-105 54-105 39 0 66 36 68 87 4 137-4 277 12 406 12 100 67-12 84-47 47-96 102-197 139-285 18-41 78-38 96-4 52 97 51 251 110 344 50 78 71 31 104-70 17-53 22-108 37-167" id="n"/><path fill="#333" d="M292-638c-67 2-113 14-176 21-81 9-112-68-58-103 132-46 304-52 470-66l65 5c50 52 43 111-50 111-45 0-75 15-112 18-18 16-19 83-24 152-7 108-21 214-33 322-5 46 36 20 67 20 54 0 81-10 139-16 43 25 50 62 23 110-151 29-311 50-490 79C58 24-8 22 3-44c14-83 161-45 224-90 22-16 24-69 29-107 17-126 33-258 36-397" id="o"/><path fill="#333" d="M583 1c26 5 52-17 51-41 24-60-22-103-43-144-74-69-132-138-184-228-37-64 44-88 81-120 65-56 138-104 195-168 35-39 5-108-40-113-66 17-104 68-150 105-81 65-158 127-245 187-18 12-48 33-70 13-6-6-8-14-7-23 3-63 18-122 28-181-3-53-39-88-92-91-82 12-51 140-71 216 1 133-13 257-20 381-3 58-27 167 27 193 35 29 78-2 98-20 30-59 16-164 24-251 3-31 38-61 73-59 78 41 118 121 174 184 38 44 71 96 112 139 15 15 32 34 59 21" id="p"/><path fill="#333" d="M23-677c-68-88 127-122 212-122 113 0 253 24 291 82 92 144-48 310-153 365-52 27-102 48-161 69-56 20-53 15-58 80-4 49-8 103-13 153-3 31-19 46-43 46-44 0-65-28-63-81 5-162 8-330 16-486 3-53-4-75-28-106zm415 73c0-44-44-66-132-66-78 0-124 8-135 26-10 16-14 89-14 218 0 44 22 39 57 25 83-34 224-115 224-203" id="q"/><path fill="#333" d="M330-158c82-22 193-18 286-31 38 11 58 81 24 113-25 24-71 25-116 25-135 0-238 34-358 47C61 7 4-52 15-159c12-113 37-213 32-340-2-59 2-121-2-178-2-44 35-62 81-61 104-31 222-52 345-64 68-7 103 34 111 94 2 12-3 22-9 31-33 14-62 15-103 16-100 2-196 10-270 40h-8c-18 23-11 79-15 106-1 13 5 22 16 25 82-10 176-25 264-12 44 7 78 26 71 72-7 49-76 30-125 30-78 0-138 22-210 29-24 1-35 28-36 52-2 41-10 83-8 126-19 84 122 51 181 35" id="r"/><path fill="#333" d="M19-91c0-222 71-428 58-668-3-62 121-44 170-33 118 27 229 50 293 128 44 53 63 97 63 217 0 165-189 328-383 400-36 13-62 45-108 45-66 0-93-23-93-89zm185-582c-30 151-43 322-58 489 5 39 27 28 60 14 129-54 276-147 276-304 0-155-106-203-278-199" id="s"/><path fill="#333" d="M103-24C79 10-2-14 8-59c42-186 129-353 193-524 23-62 63-135 99-197 39-38 106-10 109 47 27 100 51 209 81 307 8 25 72 24 72 63 0 44-26 46-37 75 12 83 46 156 55 243 7 63-106 47-114 11-13-58-36-170-57-231-3-4-7-8-9-14-69 4-134 40-198 52-53 21-53 108-81 160-4 16-8 29-18 43zm215-551c-16 18-92 195-73 208 46 2 100-12 123-31-5-30-32-162-38-171-2-3-6-5-12-6" id="t"/><g id="b"><use transform="matrix(0.022222222222222223,0,0,0.022222222222222223,0,0)" xlink:href="#n"/><use transform="matrix(0.022222222222222223,0,0,0.022222222222222223,19.288888888888888,0)" xlink:href="#o"/><use transform="matrix(0.022222222222222223,0,0,0.022222222222222223,33.4,0)" xlink:href="#p"/><use transform="matrix(0.022222222222222223,0,0,0.022222222222222223,49.08888888888889,0)" xlink:href="#o"/><use transform="matrix(0.022222222222222223,0,0,0.022222222222222223,63.2,0)" xlink:href="#q"/><use transform="matrix(0.022222222222222223,0,0,0.022222222222222223,75.73333333333333,0)" xlink:href="#r"/><use transform="matrix(0.022222222222222223,0,0,0.022222222222222223,90.53333333333333,0)" xlink:href="#s"/><use transform="matrix(0.022222222222222223,0,0,0.022222222222222223,103.95555555555553,0)" xlink:href="#o"/><use transform="matrix(0.022222222222222223,0,0,0.022222222222222223,118.06666666666668,0)" xlink:href="#t"/></g><path fill="#333" d="M44-443c79-191 208-366 448-366 141 0 239 118 267 253 46 222-61 413-213 490-83 42-221 78-338 30-55-23-106-43-129-82-26-14-80-140-57-202 2-41 8-89 22-123zm103 115c1 136 75 191 208 191 130 0 180-50 241-135 38-53 55-111 55-169 0-109-73-236-179-227-143 12-260 151-311 271-9 24-14 47-14 69" id="u"/><path fill="#333" d="M608-642l-20 77c-36 56-69 94-113 138-49 48-58 40-29 81 33 46 69 89 97 147 44 89 52 141 40 147-3 38-20 49-63 52-68 5-97-106-129-160-40-68-56-162-144-164-53-1-27 78-45 121-7 56-12 123-28 170C157-4 113 24 66-1 46-11 40-39 49-87c19-111 19-139 19-313 0-144 1-187-40-242-27-37-13-94 26-108 103-36 250-59 389-41 63 8 182 85 165 149zm-140 11c-10-39-42-58-96-57-53 12-154 21-179 43-5 9-8 31-8 65 0 151 19 135 127 94 94-36 148-79 156-145" id="v"/><path fill="#333" d="M508-780c56-58 130 44 81 100-61 70-137 131-212 191-42 33-4 64 19 89 60 64 110 129 162 207 35 52 50 100 50 142 0 27-15 41-44 41-42 9-138-115-174-161S228-368 211-355C63-341 254-45 102-10 17-22 26-133 21-219 11-407 10-619 43-780c35-64 128 9 121 64-7 51-23 126-20 177 3 63 67 10 90-8 114-86 190-146 274-233" id="w"/><g id="c"><use transform="matrix(0.022222222222222223,0,0,0.022222222222222223,0,0)" xlink:href="#n"/><use transform="matrix(0.022222222222222223,0,0,0.022222222222222223,19.288888888888888,0)" xlink:href="#u"/><use transform="matrix(0.022222222222222223,0,0,0.022222222222222223,37.13333333333333,0)" xlink:href="#v"/><use transform="matrix(0.022222222222222223,0,0,0.022222222222222223,51.84444444444445,0)" xlink:href="#w"/><use transform="matrix(0.022222222222222223,0,0,0.022222222222222223,65.60000000000001,0)" xlink:href="#m"/><use transform="matrix(0.022222222222222223,0,0,0.022222222222222223,79.73333333333333,0)" xlink:href="#v"/><use transform="matrix(0.022222222222222223,0,0,0.022222222222222223,93.46666666666667,0)" xlink:href="#l"/></g><g id="d"><use transform="matrix(0.022222222222222223,0,0,0.022222222222222223,0,0)" xlink:href="#j"/><use transform="matrix(0.022222222222222223,0,0,0.022222222222222223,11.4,0)" xlink:href="#i"/><use transform="matrix(0.022222222222222223,0,0,0.022222222222222223,23.88888888888889,0)" xlink:href="#l"/><use transform="matrix(0.022222222222222223,0,0,0.022222222222222223,38.33333333333333,0)" xlink:href="#w"/></g><path fill="#333" d="M690-16c1 27-22 53-49 52-21 0-47-17-78-51-31-35-50-52-55-52C384-16 286 0 174-46 66-91 12-146 12-292c0-165 91-286 178-377 58-61 105-100 201-130 173-55 319 38 370 162 9 21 40 127 19 177-19 105-68 191-126 260-19 22-27 38-27 44 1 18 74 108 63 140zM445-229c4-68-43-207 50-207 52 0 63 37 68 87 8 80 61-19 73-41 58-107 35-292-110-292-94 0-188 52-242 114-50 58-151 211-151 284 0 83 72 131 159 129 48-1 160-25 153-74" id="x"/><path fill="#333" d="M109-754c29-56 120 5 113 55-24 164-73 311-76 498 0 44 17 66 52 66 44 0 193-39 283-82 16-8 27-24 32-45 27-114 44-316 44-439 0-57 27-86 82-86 38 0 57 27 57 82 0 195-35 406-61 587 5 33 20 94-14 106-8 12-30 10-67-7-15-20-33-39-52-56C437-54 255 2 210 0 80-5 5-44 13-182c11-186 48-366 83-531 3-12 5-27 13-41" id="y"/><g id="e"><use transform="matrix(0.022222222222222223,0,0,0.022222222222222223,0,0)" xlink:href="#x"/><use transform="matrix(0.022222222222222223,0,0,0.022222222222222223,17.955555555555556,0)" xlink:href="#y"/><use transform="matrix(0.022222222222222223,0,0,0.022222222222222223,33.62222222222222,0)" xlink:href="#m"/><use transform="matrix(0.022222222222222223,0,0,0.022222222222222223,48.42222222222222,0)" xlink:href="#y"/><use transform="matrix(0.022222222222222223,0,0,0.022222222222222223,64.08888888888889,0)" xlink:href="#m"/></g><path fill="#fff" d="M473-1349c438-1 655 221 652 661C1122-268 945-8 532 0H162v-1349h311zm42 1193c308-4 416-205 418-532 2-330-131-509-459-505H353v1037h162" id="z"/><path fill="#fff" d="M102-681c0-398 126-689 513-689 165 0 291 58 379 174s132 287 132 515c-1 318-88 554-298 657-123 61-317 58-438-3-206-104-288-341-288-654zm749 406c94-160 97-656-5-807-57-85-130-132-231-132-104 0-178 47-234 132-101 153-99 655 1 809 57 89 130 138 232 138 109 0 184-49 237-140" id="A"/><path fill="#fff" d="M1018 0H810c-67-251-137-496-194-756C558-495 487-250 419 0H211L0-1349h189c48 393 110 772 142 1181 58-262 128-512 197-763h175c69 251 139 500 197 763 37-402 92-789 139-1181h189" id="B"/><path fill="#fff" d="M912-211c-10-84-18-177-18-274v-864h172V0H836L316-1130c7 79 16 167 16 254V0H162v-1349h222" id="C"/><path fill="#fff" d="M237 0v-1349h191v1193h672V0H237" id="D"/><path fill="#fff" d="M1034 0L896-382H333L196 0H0l510-1349h217L1228 0h-194zM847-531c-77-225-157-447-231-674-69 231-154 451-232 674h463" id="E"/><g id="f"><use transform="matrix(0.006510416666666667,0,0,0.006510416666666667,0,0)" xlink:href="#z"/><use transform="matrix(0.006510416666666667,0,0,0.006510416666666667,8.001302083333334,0)" xlink:href="#A"/><use transform="matrix(0.006510416666666667,0,0,0.006510416666666667,16.002604166666668,0)" xlink:href="#B"/><use transform="matrix(0.006510416666666667,0,0,0.006510416666666667,24.00390625,0)" xlink:href="#C"/><use transform="matrix(0.006510416666666667,0,0,0.006510416666666667,32.005208333333336,0)" xlink:href="#D"/><use transform="matrix(0.006510416666666667,0,0,0.006510416666666667,40.00651041666667,0)" xlink:href="#A"/><use transform="matrix(0.006510416666666667,0,0,0.006510416666666667,48.00781250000001,0)" xlink:href="#E"/><use transform="matrix(0.006510416666666667,0,0,0.006510416666666667,56.00911458333335,0)" xlink:href="#z"/></g><path fill="#fff" d="M1121-976c0 225-142 341-344 379L1177 0H957L591-575H353V0H162v-1349h482c281 3 477 100 477 373zM633-726c181-1 296-73 296-247 0-149-101-223-304-223H353v470h280" id="F"/><path fill="#fff" d="M162 0v-1349h919v156H353v422h668v154H353v461h769V0H162" id="G"/><path fill="#fff" d="M114 20l821-1504h178L296 20H114" id="H"/><path fill="#fff" d="M202-1349h823v156H709v1037h316V0H202v-156h316v-1037H202v-156" id="I"/><path fill="#fff" d="M709-1193V0H519v-1193H76v-156h1076v156H709" id="J"/><g id="g"><use transform="matrix(0.006510416666666667,0,0,0.006510416666666667,0,0)" xlink:href="#F"/><use transform="matrix(0.006510416666666667,0,0,0.006510416666666667,8.001302083333334,0)" xlink:href="#G"/><use transform="matrix(0.006510416666666667,0,0,0.006510416666666667,16.002604166666668,0)" xlink:href="#E"/><use transform="matrix(0.006510416666666667,0,0,0.006510416666666667,24.00390625,0)" xlink:href="#z"/><use transform="matrix(0.006510416666666667,0,0,0.006510416666666667,32.005208333333336,0)" xlink:href="#H"/><use transform="matrix(0.006510416666666667,0,0,0.006510416666666667,40.00651041666667,0)" xlink:href="#B"/><use transform="matrix(0.006510416666666667,0,0,0.006510416666666667,48.00781250000001,0)" xlink:href="#F"/><use transform="matrix(0.006510416666666667,0,0,0.006510416666666667,56.00911458333335,0)" xlink:href="#I"/><use transform="matrix(0.006510416666666667,0,0,0.006510416666666667,64.01041666666667,0)" xlink:href="#J"/><use transform="matrix(0.006510416666666667,0,0,0.006510416666666667,72.01171875,0)" xlink:href="#G"/></g></defs></g></svg>