<svg xmlns="http://www.w3.org/2000/svg" xmlns:xlink="http://www.w3.org/1999/xlink" xmlns:lucid="lucid" width="1093.87" height="509.32"><g transform="translate(-166.13460612003848 -350.3927460586292)" lucid:page-tab-id="0_0"><path d="M0 0h1870.87v2581.67H0z" fill="#0d1117"/><path d="M599.72 378.07a6 6 0 0 1 6-6h299.3a6 6 0 0 1 6 6V734a6 6 0 0 1-6 6h-299.3a6 6 0 0 1-6-6zM200 376.9a6 6 0 0 1 6-6h259.4a6 6 0 0 1 6 6V734a6 6 0 0 1-6 6H206a6 6 0 0 1-6-6z" stroke="#fff" fill-opacity="0"/><path d="M220 446a6 6 0 0 1 6-6h208a6 6 0 0 1 6 6v88a6 6 0 0 1-6 6H226a6 6 0 0 1-6-6z" stroke="#5e5e5e" stroke-width="3" fill="#f2f3f5"/><path d="M288.63 446a6 6 0 0 1 6-6H434a6 6 0 0 1 6 6v88a6 6 0 0 1-6 6H294.62a6 6 0 0 1-6-6z" stroke="#000" stroke-opacity="0" stroke-width="3" fill="#fff" fill-opacity="0"/><use xlink:href="#a" transform="matrix(1,0,0,1,293.625,445) translate(4.611111111111114 40.27777777777778)"/><use xlink:href="#b" transform="matrix(1,0,0,1,293.625,445) translate(31.6 64.14444444444445)"/><path d="M276.9 473.6c-.5-.94-1.86-1.6-3.37-1.6H247.6c-1.52 0-2.86.66-3.37 1.6L232.5 494.8v11.2c0 1.4 1.63 2.52 3.6 2.52h48.93c1.97 0 3.6-1.13 3.6-2.52v-11.2L276.9 473.6zm-30.54.6c.23-.34.68-.6 1.24-.6h25.93c.56 0 1 .26 1.23.6l11.34 20.5h-14.7c-1.13 0-2.14.55-2.36 1.32l-.68 2.08c-.1.4-.6.65-1.23.65H254c-.62 0-1.13-.25-1.24-.65l-.67-2.08c-.24-.77-1.2-1.32-2.3-1.32h-14.77l11.33-20.5zm39.9 31.78c0 .48-.55.88-1.23.9H236.1c-.68 0-1.24-.42-1.24-.9v-9.63h14.98l.62 2.08c.34 1.13 1.85 1.97 3.54 1.97h13.13c1.74 0 3.2-.84 3.54-1.97l.67-2.08h14.93v9.63z" stroke="#fff" stroke-width=".29" fill="#0d1117"/><path d="M278.13 490.65v2.4c0 .4.4.78.95.85.73.07 1.35-.33 1.35-.8v-2.45c0-1.02-.95-1.93-2.3-2.3v-1.75c0-1.02-1-1.97-2.4-2.3 0-.04.04-.1.04-.15v-2.44c0-1-.95-1.93-2.35-2.25v-1.76c0-1.36-1.58-2.45-3.48-2.45H251.2c-1.92 0-3.5 1.1-3.5 2.44v1.75c-1.4.32-2.35 1.24-2.35 2.3v2.4c0 .08.06.1.06.15-1.4.33-2.35 1.28-2.35 2.3v1.75c-1.4.37-2.35 1.28-2.35 2.3v2.4c0 .4.4.78 1 .85.68.07 1.35-.33 1.35-.8v-2.45c0-.44.5-.8 1.13-.8h32.77c.62 0 1.18.36 1.18.8zm-28.06-12.96c0-.48.5-.85 1.12-.85h18.74c.6 0 1.17.37 1.17.84v1.6h-21.03v-1.6zm-2.36 4.05c0-.48.52-.84 1.2-.84h23.34c.67 0 1.18.37 1.18.85v2.4h-25.7v-2.4zm28.07 6.46h-30.42v-1.6c0-.44.56-.8 1.18-.8h28.06c.6 0 1.17.36 1.17.8v1.6z" stroke="#fff" stroke-width=".29" fill="#0d1117"/><path d="M217.2 606a6 6 0 0 1 6-6h208a6 6 0 0 1 6 6v88a6 6 0 0 1-6 6h-208a6 6 0 0 1-6-6z" stroke="#5e5e5e" stroke-width="3" fill="#f2f3f5"/><path d="M285.8 606a6 6 0 0 1 6-6h139.4a6 6 0 0 1 6 6v88a6 6 0 0 1-6 6H291.8a6 6 0 0 1-6-6z" stroke="#000" stroke-opacity="0" stroke-width="3" fill="#fff" fill-opacity="0"/><use xlink:href="#c" transform="matrix(1,0,0,1,290.8125,605) translate(11.466666666666669 40.27777777777778)"/><use xlink:href="#b" transform="matrix(1,0,0,1,290.8125,605) translate(31.6 64.14444444444445)"/><path d="M274.08 633.6c-.5-.94-1.85-1.6-3.36-1.6H244.8c-1.53 0-2.88.66-3.38 1.6L229.7 654.8v11.2c0 1.4 1.62 2.52 3.58 2.52h48.94c1.96 0 3.6-1.13 3.6-2.52v-11.2l-11.74-21.17zm-30.53.6c.23-.34.67-.6 1.24-.6h25.92c.56 0 1 .26 1.23.6l11.34 20.5h-14.72c-1.12 0-2.13.55-2.35 1.32l-.68 2.08c-.1.4-.62.65-1.23.65h-13.14c-.6 0-1.12-.25-1.23-.65l-.67-2.08c-.23-.77-1.18-1.32-2.3-1.32H232.2l11.35-20.5zm39.9 31.78c0 .48-.56.88-1.23.9h-48.94c-.67 0-1.23-.42-1.23-.9v-9.63h14.98l.62 2.08c.34 1.13 1.85 1.97 3.53 1.97h13.14c1.74 0 3.2-.84 3.53-1.97l.68-2.08h14.93v9.63z" stroke="#fff" stroke-width=".29" fill="#0d1117"/><path d="M275.32 650.65v2.4c0 .4.4.78.95.85.73.07 1.35-.33 1.35-.8v-2.45c0-1.02-.96-1.93-2.3-2.3v-1.75c0-1.02-1-1.97-2.42-2.3 0-.04.06-.1.06-.15v-2.44c0-1-.95-1.93-2.36-2.25v-1.76c0-1.36-1.57-2.45-3.48-2.45h-18.74c-1.9 0-3.48 1.1-3.48 2.44v1.75c-1.4.32-2.36 1.24-2.36 2.3v2.4c0 .08.06.1.06.15-1.4.33-2.36 1.28-2.36 2.3v1.75c-1.4.37-2.36 1.28-2.36 2.3v2.4c0 .4.4.78 1 .85.7.07 1.36-.33 1.36-.8v-2.45c0-.44.5-.8 1.12-.8h32.78c.62 0 1.18.36 1.18.8zm-28.06-12.96c0-.48.5-.85 1.12-.85h18.74c.62 0 1.18.37 1.18.84v1.6h-21.04v-1.6zm-2.36 4.05c0-.48.5-.84 1.18-.84h23.34c.68 0 1.18.37 1.18.85v2.4h-25.7v-2.4zm28.06 6.46h-30.42v-1.6c0-.44.56-.8 1.18-.8h28.06c.62 0 1.18.36 1.18.8v1.6z" stroke="#fff" stroke-width=".29" fill="#0d1117"/><path d="M628.42 509.75H459.98" stroke="#f2f3f5" stroke-width="2" fill="none"/><path d="M629.42 510.75h-1.02v-2h1.02z" stroke="#f2f3f5" stroke-width=".05" fill="#f2f3f5"/><path d="M444.72 509.75l14.26-4.64v9.3z" stroke="#f2f3f5" stroke-width="2" fill="#f2f3f5"/><use xlink:href="#d" transform="matrix(1,0,0,1,503.44556142104915,492.41666666666663) translate(0.005000000000002558 10.664062499999998)"/><use xlink:href="#e" transform="matrix(1,0,0,1,503.44556142104915,492.41666666666663) translate(40.01151041666666 10.664062499999998)"/><path d="M528.3 611.24l-.07 1.06-.26 1.07-.42 1-.57.95-.72.84-.83.7-.94.58-1.02.42-1.1.27-65.25.07v-2l65-.07.73-.17.72-.3.67-.4.6-.52.5-.6.4-.67.3-.72.2-.76.06-.84.04-24.57h2zm108.75-83.85h-103.7l-.82.06-.76.18-.73.3-.66.4-.6.52-.5.6-.42.66-.3.73-.17.72-.05 41.68h-2l.04-41.92.25-1.1.42-1.02.58-.92.7-.84.85-.7.93-.6 1.02-.4 1.07-.26 1.05-.1h103.78z" stroke="#f2f3f5" stroke-width=".05" fill="#f2f3f5"/><path d="M638.05 527.4h-1.02v-2h1.02z" fill="#f2f3f5"/><path d="M638.08 527.42H637v-2.05h1.08zm-1.03-2v1.95h.98v-1.95z" stroke="#f2f3f5" stroke-width=".05" fill="#f2f3f5"/><path d="M456.13 621.84l-14.27-4.64 14.27-4.63z" fill="#f2f3f5"/><path d="M457.13 623.22l-18.5-6.02 18.5-6zm-12.03-6.02l10.03 3.26v-6.5z" stroke="#f2f3f5" stroke-width=".05" fill="#f2f3f5"/><use xlink:href="#d" transform="matrix(1,0,0,1,495.3072916666667,573.2540730955526) translate(0.005000000000002558 10.664062499999998)"/><use xlink:href="#e" transform="matrix(1,0,0,1,495.3072916666667,573.2540730955526) translate(40.01151041666666 10.664062499999998)"/><path d="M1020 611a6 6 0 0 1 6-6h208a6 6 0 0 1 6 6v88a6 6 0 0 1-6 6h-208a6 6 0 0 1-6-6z" stroke="#5e5e5e" stroke-width="3" fill="#f2f3f5"/><path d="M1097.5 611a6 6 0 0 1 6-6H1234a6 6 0 0 1 6 6v88a6 6 0 0 1-6 6h-130.5a6 6 0 0 1-6-6z" stroke="#000" stroke-opacity="0" stroke-width="3" fill="#fff" fill-opacity="0"/><use xlink:href="#f" transform="matrix(1,0,0,1,1102.5,610) translate(15.888888888888886 51.52777777777778)"/><path d="M1108.6 654.6c-.47-1.37-2.1-2.12-3.57-1.64-.4.07-.7.2-.93.4l-13.02-3.4 9.38-2.78c.7.54 1.7.74 2.7.47 1.48-.4 2.33-1.9 1.8-3.26-.47-1.44-2.1-2.2-3.57-1.72-1.02.28-1.64 1.03-1.87 1.84l-9.54 2.86 8.2-9.87c.47.08.86 0 1.33-.12 1.47-.4 2.32-1.9 1.86-3.27-.56-1.35-2.1-2.17-3.66-1.7-1.47.5-2.32 1.92-1.78 3.35l-9.22 10.95c-.3 0-.7.07-1.1.14-1.23.4-2.08 1.42-2.3 2.5l-10.32 3.07c-.38-.4-.93-.73-1.55-1v-9.94c1.16-.54 2.02-1.56 2.02-2.86 0-.4-.1-.75-.24-1.1l8.2-11.28h.24c1.63 0 2.87-1.16 2.87-2.6 0-1.48-1.24-2.64-2.87-2.64-1.55 0-2.87 1.16-2.87 2.65 0 .34.08.62.24.96l-7.6 10.33v-9.12c.86-.4 1.4-1.28 1.4-2.17 0-1.5-1.32-2.65-2.87-2.65s-2.87 1.16-2.87 2.65c0 .9.54 1.77 1.4 2.18v9.2l-7.67-10.2c.15-.35.23-.76.23-1.17 0-1.5-1.25-2.65-2.8-2.65-1.63 0-2.87 1.16-2.87 2.65 0 1.43 1.24 2.6 2.87 2.6l8.44 11.35c-.15.27-.23.68-.23 1.02 0 1.3.87 2.32 2.03 2.86v9.93c-.62.27-1.16.6-1.55 1l-10.3-3.05c-.24-1.1-1.1-2.1-2.34-2.5-.38-.08-.77-.15-1.16-.15l-9.22-10.75c.08-.07.08-.14.08-.2.54-1.43-.3-2.86-1.78-3.34-1.56-.47-3.1.35-3.65 1.7-.45 1.37.4 2.87 1.87 3.28.3.13.7.13 1 .13l8.46 9.88-9.46-2.86c-.23-.8-.85-1.56-1.86-1.84-1.46-.47-3.1.28-3.55 1.7-.54 1.37.3 2.86 1.78 3.27 1 .27 2.02.07 2.7-.47l9.55 2.85-12.95 3.54c-.3-.27-.7-.54-1.16-.6-1.47-.5-3.1.26-3.57 1.62-.46 1.42.3 2.85 1.8 3.33 1.54.4 3.16-.34 3.63-1.7l14.26-3.88c.3.2.7.4 1.08.54 1.3.4 2.7 0 3.64-.9l10.23 3.07c0 .6.23 1.15.54 1.7l-6.37 8.1c-1.24-.2-2.55.27-3.33 1.22-.23.33-.38.6-.46.94l-14.03 4.7c0-.07-.07-.07-.14-.14-1.32-.88-3.1-.6-4.04.55-.92 1.22-.62 2.85.7 3.67 1.24.88 3.02.6 3.95-.54.24-.28.4-.62.47-.9l12.7-4.28-5.8 7.35c-.93-.07-1.86.27-2.48 1.1-.93 1.15-.62 2.78.62 3.6 1.24.88 3.02.6 3.95-.55.62-.75.7-1.7.4-2.5l5.8-7.43-.3 12.38c-.4.2-.7.48-1.02.82-.92 1.16-.6 2.8.63 3.67 1.32.82 3.1.55 4.03-.6.93-1.17.62-2.8-.62-3.68l.3-13.6c.4-.22.7-.5.94-.83.86-1.02.86-2.38.23-3.4l6.37-8.03c.3.07.62.07.93.07.3 0 .62 0 .93-.07l6.36 8.03c-.63 1.02-.56 2.38.22 3.4.23.27.46.55.77.68l.7 13.62c-.1.07-.16.14-.24.14-1.24.88-1.55 2.5-.62 3.67.93 1.16 2.7 1.43 4.03.6 1.24-.87 1.55-2.5.62-3.66-.24-.27-.56-.55-.8-.68l-.68-12.67 5.96 7.56c-.3.8-.23 1.75.4 2.5.84 1.16 2.7 1.43 3.94.55 1.24-.82 1.55-2.45.62-3.6-.62-.83-1.55-1.17-2.48-1.1l-5.8-7.35 12.62 4.1c.08.33.3.74.55 1.08.92 1.15 2.7 1.42 3.95.54 1.32-.82 1.55-2.45.7-3.67-.93-1.16-2.72-1.43-4.04-.55l-14.1-4.56c-.08-.34-.3-.6-.54-.95-.78-.96-2.1-1.44-3.33-1.23l-6.36-8.1c.32-.55.55-1.1.55-1.7l10.23-3.06c.86.9 2.33 1.3 3.64.9.47-.15.86-.35 1.17-.62l14.1 3.74c.07.07.07.14.07.2.46 1.37 2.1 2.18 3.64 1.7 1.5-.47 2.26-1.9 1.8-3.33z" stroke="#000" stroke-opacity="0"/><path d="M950.82 623.9l.17.74.3.72.4.67.5.6.6.5.68.42.72.3.76.18.83.06h61.72v2h-61.8l-1.07-.1-1.07-.25-1-.42-.95-.57-.84-.7-.72-.85-.57-.93-.4-1-.28-1.12-.03-29.67h2zm-6.02-78.3l1.1.26 1.03.42.93.58.84.7.7.85.6.94.4 1.02.26 1.07.1 1.05.02 28.66h-2l-.03-28.58-.07-.82-.18-.76-.3-.72-.4-.67-.52-.6-.6-.52-.67-.4-.7-.3-.73-.18-45.1-.08v-2z" stroke="#f2f3f5" stroke-width=".05" fill="#f2f3f5"/><path d="M1018.52 630.1h-1.03v-2h1z" fill="#f2f3f5"/><path d="M1018.54 630.12h-1.08v-2.05h1.08zm-1.03-2v1.95h1v-1.95z" stroke="#f2f3f5" stroke-width=".05" fill="#f2f3f5"/><path d="M898.48 551.16l-14.27-4.64 14.28-4.63z" fill="#f2f3f5"/><path d="M899.48 552.54l-18.5-6.02 18.5-6zm-12.03-6.02l10.03 3.26v-6.52z" stroke="#f2f3f5" stroke-width=".05" fill="#f2f3f5"/><use xlink:href="#g" transform="matrix(1,0,0,1,917.7409314050257,581.1424817716946) translate(0.005000000000002558 10.6640625)"/><use xlink:href="#h" transform="matrix(1,0,0,1,917.7409314050257,581.1424817716946) translate(40.011510416666674 10.6640625)"/><path d="M630.87 446a6 6 0 0 1 6-6h208a6 6 0 0 1 6 6v88a6 6 0 0 1-6 6h-208a6 6 0 0 1-6-6z" stroke="#5e5e5e" stroke-width="3" fill="#f2f3f5"/><path d="M639.5 457.57a6 6 0 0 1 6-6h208a6 6 0 0 1 6 6v88a6 6 0 0 1-6 6h-208a6 6 0 0 1-6-6z" stroke="#5e5e5e" stroke-width="3" fill="#f2f3f5"/><path d="M689.5 488.88c-7.57 0-13.75 6-13.75 13.44 0 7.44 6.18 13.44 13.74 13.44 7.55 0 13.73-6 13.73-13.44 0-7.44-6.18-13.44-13.74-13.44zm0 22.8c-5.3 0-9.6-4.2-9.6-9.36 0-5.16 4.3-9.36 9.6-9.36 5.27 0 9.6 4.2 9.6 9.36 0 5.16-4.33 9.36-9.6 9.36z" stroke="#000" stroke-opacity="0" stroke-width=".51" fill="#f2f3f5"/><path d="M689.5 495.24c-4.03 0-7.27 3.18-7.27 7.08s3.24 7.08 7.26 7.08c4 0 7.25-3.18 7.25-7.08s-3.24-7.08-7.26-7.08zm0 10.08c-1.7 0-3.07-1.32-3.07-3s1.38-3 3.06-3c1.67 0 3.05 1.32 3.05 3s-1.38 3-3.06 3z" stroke="#000" stroke-opacity="0" stroke-width=".51" fill="#f2f3f5"/><path d="M718.47 509.16L714.7 507c.3-1.5.47-3.12.47-4.68 0-1.56-.18-3.18-.48-4.74l3.77-2.1c.48-.24.78-.72.96-1.26.12-.48.06-1.08-.24-1.5l-6.3-10.8c-.6-.96-1.87-1.32-2.9-.72l-3.77 2.1c-2.4-2.04-5.28-3.66-8.28-4.68v-4.26c0-1.14-.96-2.04-2.1-2.04h-12.72c-1.14 0-2.1.9-2.1 2.04v4.26c-3 1.02-5.88 2.64-8.28 4.68l-3.78-2.1c-1.02-.6-2.28-.24-2.88.72l-6.3 10.8c-.3.42-.37 1.02-.25 1.5.18.54.48 1.02.96 1.26l3.8 2.16c-.3 1.5-.5 3.12-.5 4.68 0 1.56.2 3.18.5 4.68l-3.8 2.16c-.47.24-.77.72-.95 1.26-.12.48-.06 1.08.24 1.5l6.3 10.8c.6.96 1.85 1.32 2.87.72l3.78-2.1c2.4 2.04 5.28 3.66 8.28 4.68v4.26c0 1.14.96 2.04 2.1 2.04h12.72c1.14 0 2.1-.9 2.1-2.04v-4.26c3-1.02 5.88-2.64 8.28-4.68l3.78 2.1c1.03.6 2.3.24 2.9-.72l6.3-10.8c.3-.42.35-1.02.23-1.5-.18-.54-.48-1.02-.96-1.26zm-8.16-12.06c.43 1.68.67 3.48.67 5.22 0 1.74-.24 3.54-.66 5.22-.23.9.2 1.8.97 2.28l3.3 1.86-4.26 7.2-3.3-1.86c-.77-.42-1.8-.3-2.5.3-2.6 2.52-5.77 4.32-9.25 5.28-.9.24-1.5 1.02-1.5 1.92v3.72h-8.52v-3.72c0-.9-.6-1.68-1.5-1.92-3.48-.96-6.66-2.76-9.24-5.28-.73-.6-1.75-.72-2.53-.3l-3.3 1.86-4.26-7.2 3.3-1.86c.8-.48 1.2-1.38.97-2.28-.42-1.68-.66-3.48-.66-5.22 0-1.74.25-3.54.67-5.22.24-.9-.18-1.8-.96-2.28l-3.3-1.86 4.27-7.2 3.3 1.86c.78.42 1.8.3 2.52-.3 2.57-2.52 5.75-4.32 9.23-5.28.9-.24 1.5-1.02 1.5-1.92v-3.72h8.52v3.72c0 .9.6 1.68 1.5 1.92 3.48.96 6.66 2.76 9.24 5.28.7.6 1.73.72 2.5.3l3.3-1.86 4.27 7.2-3.3 1.86c-.78.48-1.2 1.38-.96 2.28z" stroke="#000" stroke-opacity="0" stroke-width=".51" fill="#f2f3f5"/><path d="M650.74 466.82a6 6 0 0 1 6-6h208a6 6 0 0 1 6 6v88a6 6 0 0 1-6 6h-208a6 6 0 0 1-6-6z" stroke="#5e5e5e" stroke-width="3" fill="#f2f3f5"/><path d="M700.74 498.13c-7.56 0-13.74 6-13.74 13.44 0 7.44 6.18 13.44 13.74 13.44 7.56 0 13.74-6 13.74-13.43 0-7.44-6.18-13.44-13.74-13.44zm0 22.8c-5.28 0-9.6-4.2-9.6-9.36 0-5.16 4.32-9.36 9.6-9.36 5.28 0 9.6 4.2 9.6 9.37 0 5.16-4.32 9.36-9.6 9.36z" stroke="#000" stroke-opacity="0" stroke-width=".51" fill="#f2f3f5"/><path d="M700.74 504.5c-4.02 0-7.26 3.17-7.26 7.07 0 3.9 3.24 7.08 7.26 7.08s7.26-3.18 7.26-7.08-3.24-7.08-7.26-7.08zm0 10.07c-1.68 0-3.06-1.32-3.06-3s1.38-3 3.06-3c1.68 0 3.06 1.32 3.06 3s-1.38 3-3.06 3z" stroke="#000" stroke-opacity="0" stroke-width=".51" fill="#f2f3f5"/><path d="M729.72 518.4l-3.78-2.15c.3-1.5.48-3.12.48-4.68 0-1.56-.18-3.18-.48-4.74l3.78-2.1c.48-.24.78-.72.96-1.26.12-.48.06-1.08-.24-1.5l-6.3-10.8c-.6-.96-1.86-1.32-2.88-.72l-3.78 2.1c-2.4-2.04-5.28-3.66-8.28-4.68v-4.26c0-1.13-.96-2.03-2.1-2.03h-12.72c-1.14 0-2.1.9-2.1 2.04v4.27c-3 1.02-5.88 2.64-8.28 4.68l-3.78-2.1c-1.02-.6-2.28-.24-2.88.72l-6.3 10.8c-.3.42-.36 1.02-.24 1.5.18.54.48 1.02.96 1.26l3.78 2.16c-.3 1.5-.48 3.1-.48 4.67 0 1.56.18 3.18.48 4.68l-3.78 2.16c-.48.25-.78.73-.96 1.27-.12.48-.06 1.08.24 1.5l6.3 10.8c.6.96 1.86 1.32 2.88.72l3.78-2.1c2.4 2.03 5.28 3.65 8.28 4.67v4.26c0 1.14.96 2.04 2.1 2.04h12.72c1.14 0 2.1-.9 2.1-2.04v-4.26c3-1.02 5.88-2.64 8.28-4.68l3.78 2.1c1.02.6 2.28.23 2.88-.73l6.3-10.8c.3-.42.36-1.02.24-1.5-.18-.54-.48-1.02-.96-1.26zm-8.16-12.05c.42 1.68.66 3.48.66 5.22 0 1.74-.24 3.54-.66 5.22-.24.9.18 1.8.96 2.27l3.3 1.86-4.26 7.2-3.3-1.86c-.78-.42-1.8-.3-2.52.3-2.58 2.52-5.76 4.32-9.24 5.28-.9.24-1.5 1.02-1.5 1.92v3.72h-8.52v-3.73c0-.9-.6-1.68-1.5-1.92-3.48-.96-6.66-2.76-9.24-5.28-.72-.6-1.74-.72-2.52-.3l-3.3 1.86-4.26-7.2 3.3-1.86c.78-.48 1.2-1.38.96-2.28-.42-1.7-.66-3.5-.66-5.23 0-1.74.24-3.54.66-5.22.24-.9-.18-1.8-.96-2.28l-3.3-1.86 4.26-7.2 3.3 1.87c.78.42 1.8.3 2.52-.3 2.58-2.52 5.76-4.32 9.24-5.28.9-.25 1.5-1.03 1.5-1.93v-3.72H705v3.72c0 .9.6 1.68 1.5 1.92 3.48.95 6.66 2.75 9.24 5.27.72.6 1.74.72 2.52.3l3.3-1.86 4.26 7.2-3.3 1.87c-.78.48-1.2 1.38-.96 2.28z" stroke="#000" stroke-opacity="0" stroke-width=".51" fill="#f2f3f5"/><path d="M659.5 478.32a6 6 0 0 1 6-6h208a6 6 0 0 1 6 6v88a6 6 0 0 1-6 6h-208a6 6 0 0 1-6-6z" stroke="#5e5e5e" stroke-width="3" fill="#f2f3f5"/><path d="M727.93 478.32a6 6 0 0 1 6-6h131.13a6 6 0 0 1 6 6v88a6 6 0 0 1-6 6H733.93a6 6 0 0 1-6-6z" stroke="#000" stroke-opacity="0" stroke-width="3" fill="#fff" fill-opacity="0"/><use xlink:href="#i" transform="matrix(1,0,0,1,732.9311941251597,477.3195591944409) translate(7.466666666666669 40.27777777777778)"/><use xlink:href="#j" transform="matrix(1,0,0,1,732.9311941251597,477.3195591944409) translate(19.455555555555556 64.14444444444445)"/><path d="M876.14 670.75h123.9" stroke="#f2f3f5" stroke-width="2" fill="none"/><path d="M876.17 671.75h-1.02v-2h1.02z" stroke="#f2f3f5" stroke-width=".05" fill="#f2f3f5"/><path d="M1015.3 670.75l-14.25 4.64v-9.3z" stroke="#f2f3f5" stroke-width="2" fill="#f2f3f5"/><use xlink:href="#k" transform="matrix(1,0,0,1,918.7432109796317,653.4166666666667) translate(0.005000000000002558 10.6640625)"/><use xlink:href="#l" transform="matrix(1,0,0,1,918.7432109796317,653.4166666666667) translate(48.01281250000001 10.6640625)"/><path d="M244.3 376.9a6 6 0 0 1 6-6h131.33a6 6 0 0 1 6 6v36.34a6 6 0 0 1-6 6H250.3a6 6 0 0 1-6-6z" stroke="#000" stroke-opacity="0" stroke-width="3" fill-opacity="0"/><path d="M288.57 392.83h-8.13c-.65-.08-1.14-.58-1.14-1.15v-7.4c0-.63-.6-1.13-1.3-1.13h-2.87c-.73 0-1.3.5-1.3 1.14v7.45c-.03.57-.58 1.03-1.23 1.08h-2.14c-.63-.08-1.1-.53-1.15-1.08v-7.46c0-.65-.6-1.15-1.3-1.15h-2.86c-.73 0-1.3.5-1.3 1.14v21.54c0 .65.6 1.15 1.3 1.15h23.46c.73 0 1.3-.5 1.3-1.16v-11.87c0-.64-.6-1.14-1.33-1.14zm-3.75 8.15c0 .62-.57 1.14-1.3 1.14h-2.84c-.73 0-1.33-.52-1.33-1.14v-2.34c0-.62.6-1.12 1.33-1.12h2.84c.73 0 1.3.5 1.3 1.12v2.34z" stroke="#000" stroke-opacity="0" fill="#f2f3f5"/><path d="M289.9 376.9a6 6 0 0 1 6-6h125.2a6 6 0 0 1 6 6v36.34a6 6 0 0 1-6 6H295.9a6 6 0 0 1-6-6z" stroke="#000" stroke-opacity="0" stroke-width="3" fill-opacity="0"/><use xlink:href="#m" transform="matrix(1,0,0,1,294.90239999900234,375.89275163936037) translate(14.026666666666678 23.97222222222222)"/><use xlink:href="#n" transform="matrix(1,0,0,1,294.90239999900234,375.89275163936037) translate(87.66222222222223 23.97222222222222)"/><path d="M693.6 378.07a6 6 0 0 1 6-6h111.55a6 6 0 0 1 6 6v37.52a6 6 0 0 1-6 6H699.6a6 6 0 0 1-6-6z" stroke="#000" stroke-opacity="0" stroke-width="3" fill-opacity="0"/><path d="M707.45 381.97c-1.45 0-2.62 1.28-2.62 2.86v24c0 1.58 1.17 2.86 2.62 2.86h22.07c1.44 0 2.62-1.3 2.62-2.86v-24c0-1.6-1.18-2.87-2.62-2.87zm9.3 3.8c4.66 0 8 1.8 8.75 2.2l-1.36 3.16c-2.8-1.3-5.68-1.76-6.45-1.76-1.8 0-2.5 1.13-2.5 2.17v10.52c0 1.1.7 2.23 2.5 2.23.76 0 3.65-.5 6.44-1.76l1.36 3.1c-.5.34-4.15 2.25-8.74 2.25-1.28 0-5.3-.3-5.3-5.75V391.5c0-5.42 4.02-5.72 5.3-5.72z" stroke="#000" stroke-opacity="0" fill="#f2f3f5"/><path d="M732.14 378.07a6 6 0 0 1 6-6h73a6 6 0 0 1 6 6v37.52a6 6 0 0 1-6 6h-73a6 6 0 0 1-6-6z" stroke="#000" stroke-opacity="0" stroke-width="3" fill="#fff" fill-opacity="0"/><use xlink:href="#o" transform="matrix(1,0,0,1,737.1380112185069,377.0695591944409) translate(3.582222222222228 24.22222222222222)"/><path d="M438.16 658.43h172.76" stroke="#f2f3f5" stroke-width="2" fill="none"/><path d="M438.18 659.43h-1.02v-2h1.02z" stroke="#f2f3f5" stroke-width=".05" fill="#f2f3f5"/><path d="M626.2 658.43l-14.28 4.64v-9.27z" stroke="#f2f3f5" stroke-width="2" fill="#f2f3f5"/><use xlink:href="#p" transform="matrix(1,0,0,1,501.28470883368215,641.0971074722257) translate(0.005000000000002558 10.664062499999998)"/><use xlink:href="#q" transform="matrix(1,0,0,1,501.28470883368215,641.0971074722257) translate(40.01151041666666 10.664062499999998)"/><path d="M689.5 620.45c-7.57 0-13.75 6-13.75 13.44 0 7.43 6.18 13.43 13.74 13.43 7.55 0 13.73-6 13.73-13.44 0-7.45-6.18-13.45-13.74-13.45zm0 22.8c-5.3 0-9.6-4.2-9.6-9.36 0-5.17 4.3-9.37 9.6-9.37 5.27 0 9.6 4.2 9.6 9.36 0 5.15-4.33 9.35-9.6 9.35z" stroke="#000" stroke-opacity="0" stroke-width=".51" fill="#f2f3f5"/><path d="M689.5 626.8c-4.03 0-7.27 3.2-7.27 7.1 0 3.9 3.24 7.07 7.26 7.07 4 0 7.25-3.18 7.25-7.08s-3.24-7.1-7.26-7.1zm0 10.1c-1.7 0-3.07-1.33-3.07-3 0-1.7 1.38-3 3.06-3 1.67 0 3.05 1.3 3.05 3 0 1.67-1.38 3-3.06 3z" stroke="#000" stroke-opacity="0" stroke-width=".51" fill="#f2f3f5"/><path d="M718.47 640.73l-3.78-2.16c.3-1.5.47-3.12.47-4.68 0-1.57-.18-3.2-.48-4.75l3.77-2.1c.48-.24.78-.72.96-1.26.12-.5.06-1.1-.24-1.5l-6.3-10.8c-.6-.97-1.87-1.33-2.9-.73l-3.77 2.1c-2.4-2.04-5.28-3.66-8.28-4.68v-4.27c0-1.14-.96-2.04-2.1-2.04h-12.72c-1.14 0-2.1.9-2.1 2.03v4.26c-3 1-5.88 2.63-8.28 4.67l-3.78-2.1c-1.02-.6-2.28-.24-2.88.72l-6.3 10.8c-.3.4-.37 1-.25 1.5.18.53.48 1 .96 1.25l3.8 2.16c-.3 1.5-.5 3.13-.5 4.7 0 1.55.2 3.17.5 4.67l-3.8 2.16c-.47.24-.77.72-.95 1.26-.12.47-.06 1.07.24 1.5l6.3 10.8c.6.95 1.85 1.3 2.87.7l3.78-2.1c2.4 2.05 5.28 3.67 8.28 4.7v4.25c0 1.14.96 2.04 2.1 2.04h12.72c1.14 0 2.1-.9 2.1-2.05v-4.26c3-1.03 5.88-2.65 8.28-4.7L710 655c1.03.6 2.3.25 2.9-.7l6.3-10.8c.3-.43.35-1.03.23-1.5-.18-.55-.48-1.03-.96-1.27zm-8.16-12.06c.43 1.68.67 3.48.67 5.22 0 1.73-.24 3.53-.66 5.2-.23.9.2 1.8.97 2.3l3.3 1.85-4.26 7.2-3.3-1.86c-.77-.43-1.8-.3-2.5.3-2.6 2.5-5.77 4.3-9.25 5.27-.9.24-1.5 1.02-1.5 1.92v3.7h-8.52v-3.7c0-.9-.6-1.7-1.5-1.93-3.48-.96-6.66-2.76-9.24-5.28-.73-.6-1.75-.73-2.53-.3l-3.3 1.85-4.26-7.2 3.3-1.86c.8-.5 1.2-1.4.97-2.3-.42-1.67-.66-3.47-.66-5.2 0-1.75.25-3.55.67-5.23.24-.9-.18-1.8-.96-2.28l-3.3-1.87 4.27-7.2 3.3 1.86c.78.4 1.8.3 2.52-.3 2.57-2.53 5.75-4.33 9.23-5.3.9-.23 1.5-1 1.5-1.9v-3.73h8.52v3.72c0 .9.6 1.67 1.5 1.9 3.48.97 6.66 2.77 9.24 5.3.7.6 1.73.7 2.5.3l3.3-1.87 4.27 7.2-3.3 1.86c-.78.47-1.2 1.37-.96 2.27z" stroke="#000" stroke-opacity="0" stroke-width=".51" fill="#f2f3f5"/><path d="M700.74 629.7c-7.56 0-13.74 6-13.74 13.44 0 7.44 6.18 13.44 13.74 13.44 7.56 0 13.74-6 13.74-13.44 0-7.44-6.18-13.44-13.74-13.44zm0 22.8c-5.28 0-9.6-4.2-9.6-9.36 0-5.16 4.32-9.36 9.6-9.36 5.28 0 9.6 4.2 9.6 9.36 0 5.16-4.32 9.36-9.6 9.36z" stroke="#000" stroke-opacity="0" stroke-width=".51" fill="#f2f3f5"/><path d="M700.74 636.06c-4.02 0-7.26 3.18-7.26 7.08s3.24 7.08 7.26 7.08 7.26-3.18 7.26-7.08-3.24-7.08-7.26-7.08zm0 10.08c-1.68 0-3.06-1.32-3.06-3s1.38-3 3.06-3c1.68 0 3.06 1.32 3.06 3s-1.38 3-3.06 3z" stroke="#000" stroke-opacity="0" stroke-width=".51" fill="#f2f3f5"/><path d="M729.72 649.98l-3.78-2.16c.3-1.5.48-3.12.48-4.68 0-1.56-.18-3.18-.48-4.74l3.78-2.1c.48-.24.78-.72.96-1.26.12-.48.06-1.08-.24-1.5l-6.3-10.8c-.6-.96-1.86-1.32-2.88-.72l-3.78 2.1c-2.4-2.04-5.28-3.66-8.28-4.68v-4.26c0-1.14-.96-2.04-2.1-2.04h-12.72c-1.14 0-2.1.9-2.1 2.04v4.26c-3 1.02-5.88 2.64-8.28 4.68l-3.78-2.1c-1.02-.6-2.28-.24-2.88.72l-6.3 10.8c-.3.42-.36 1.02-.24 1.5.18.54.48 1.02.96 1.26l3.78 2.16c-.3 1.5-.48 3.12-.48 4.68 0 1.56.18 3.18.48 4.68l-3.78 2.16c-.48.24-.78.72-.96 1.26-.12.48-.06 1.08.24 1.5l6.3 10.8c.6.96 1.86 1.32 2.88.72l3.78-2.1c2.4 2.04 5.28 3.66 8.28 4.68v4.26c0 1.14.96 2.04 2.1 2.04h12.72c1.14 0 2.1-.9 2.1-2.04v-4.26c3-1.02 5.88-2.64 8.28-4.68l3.78 2.1c1.02.6 2.28.24 2.88-.72l6.3-10.8c.3-.42.36-1.02.24-1.5-.18-.54-.48-1.02-.96-1.26zm-8.16-12.06c.42 1.68.66 3.48.66 5.22 0 1.74-.24 3.54-.66 5.22-.24.9.18 1.8.96 2.28l3.3 1.86-4.26 7.2-3.3-1.86c-.78-.42-1.8-.3-2.52.3-2.58 2.52-5.76 4.32-9.24 5.28-.9.24-1.5 1.02-1.5 1.92v3.72h-8.52v-3.72c0-.9-.6-1.68-1.5-1.92-3.48-.96-6.66-2.76-9.24-5.28-.72-.6-1.74-.72-2.52-.3l-3.3 1.86-4.26-7.2 3.3-1.86c.78-.48 1.2-1.38.96-2.28-.42-1.68-.66-3.48-.66-5.22 0-1.74.24-3.54.66-5.22.24-.9-.18-1.8-.96-2.28l-3.3-1.86 4.26-7.2 3.3 1.86c.78.42 1.8.3 2.52-.3 2.58-2.52 5.76-4.32 9.24-5.28.9-.24 1.5-1.02 1.5-1.92v-3.72H705v3.72c0 .9.6 1.68 1.5 1.92 3.48.96 6.66 2.76 9.24 5.28.72.6 1.74.72 2.52.3l3.3-1.86 4.26 7.2-3.3 1.86c-.78.48-1.2 1.38-.96 2.28z" stroke="#000" stroke-opacity="0" stroke-width=".51" fill="#f2f3f5"/><path d="M630.87 594.43a6 6 0 0 1 6-6h208a6 6 0 0 1 6 6v88a6 6 0 0 1-6 6h-208a6 6 0 0 1-6-6z" stroke="#5e5e5e" stroke-width="3" fill="#f2f3f5"/><path d="M639.5 606a6 6 0 0 1 6-6h208a6 6 0 0 1 6 6v88a6 6 0 0 1-6 6h-208a6 6 0 0 1-6-6z" stroke="#5e5e5e" stroke-width="3" fill="#f2f3f5"/><path d="M650.74 615.25a6 6 0 0 1 6-6h208a6 6 0 0 1 6 6v88a6 6 0 0 1-6 6h-208a6 6 0 0 1-6-6z" stroke="#5e5e5e" stroke-width="3" fill="#f2f3f5"/><path d="M659.5 626.75a6 6 0 0 1 6-6h208a6 6 0 0 1 6 6v88a6 6 0 0 1-6 6h-208a6 6 0 0 1-6-6z" stroke="#5e5e5e" stroke-width="3" fill="#f2f3f5"/><path d="M723.8 626.75a6 6 0 0 1 6-6H869.2a6 6 0 0 1 6 6v88a6 6 0 0 1-6 6H729.8a6 6 0 0 1-6-6z" stroke="#000" stroke-opacity="0" stroke-width="3" fill="#fff" fill-opacity="0"/><use xlink:href="#r" transform="matrix(1,0,0,1,728.8061941251597,625.75) translate(4.611111111111114 40.27777777777778)"/><use xlink:href="#s" transform="matrix(1,0,0,1,728.8061941251597,625.75) translate(23.455555555555556 64.14444444444445)"/><g fill="none"><path d="M921.3 760a6 6 0 0 1 6 6v67.7a6 6 0 0 1-6 6H193.13a6 6 0 0 1-6-6V766a6 6 0 0 1 6-6z"/><path d="M187.12 760c0 5.52 4.48 10 10 10h350.1c5.52 0 10 4.48 10 10 0-5.52 4.47-10 10-10h350.1c5.52 0 10-4.48 10-10" stroke="#f2f3f5" stroke-width="2"/></g><path d="M1131.13 605.06" stroke="#000" stroke-opacity="0" stroke-width="2" fill="none"/><path d="M1127.9 605.06l-14.27 4.63v-9.28z" stroke="#000" stroke-opacity="0" stroke-width="2" fill-opacity="0"/><path d="M1020 458.32a6 6 0 0 1 6-6h208a6 6 0 0 1 6 6v88a6 6 0 0 1-6 6h-208a6 6 0 0 1-6-6z" stroke="#5e5e5e" stroke-width="3" fill="#f2f3f5"/><path d="M1088.63 458.32a6 6 0 0 1 6-6H1234a6 6 0 0 1 6 6v88a6 6 0 0 1-6 6h-139.38a6 6 0 0 1-6-6z" stroke="#000" stroke-opacity="0" stroke-width="3" fill="#fff" fill-opacity="0"/><use xlink:href="#t" transform="matrix(1,0,0,1,1093.625,457.3195591944409) translate(5.444444444444443 51.52777777777778)"/><path d="M1080.7 500.56c1.4 0 2.66.6 3.5 1.65.5.56 1.18.86 1.98.86 1.33 0 2.44-1.05 2.44-2.3V488.1c0-1.84-1.6-3.3-3.5-3.3h-11.7c-.42 0-.8-.34-.8-.74 0-.25.16-.45.32-.6 1.76-1.3 2.6-3.35 2.3-5.45-.38-2.5-2.67-4.54-5.33-4.84-1.8-.2-3.55.3-4.82 1.4-1.33 1.1-2.08 2.7-2.08 4.35 0 1.8.85 3.46 2.34 4.56.2.15.32.35.32.6 0 .4-.37.75-.8.75h-13.45c-1.95 0-3.5 1.46-3.5 3.3v12.66c0 .4-.37.75-.8.75-.26 0-.47-.1-.63-.3-1.38-1.64-3.56-2.44-5.8-2.14-2.65.4-4.83 2.5-5.15 5.05-.2 1.66.32 3.3 1.5 4.56 1.16 1.2 2.86 1.9 4.6 1.9 1.93 0 3.68-.8 4.85-2.2.16-.2.37-.3.64-.3.43 0 .8.35.8.75v11c0 1.8 1.55 3.3 3.5 3.3h13.46c1.33 0 2.45-1.04 2.45-2.34 0-.7-.3-1.35-.95-1.8-1.27-.95-1.9-2.45-1.65-3.95.27-1.84 1.92-3.34 3.88-3.54 1.33-.15 2.56.2 3.57 1.05.95.8 1.48 1.96 1.48 3.16 0 1.3-.63 2.5-1.7 3.3-.63.45-.95 1.1-.95 1.85 0 1.26 1.1 2.3 2.44 2.3h11.7c1.9 0 3.5-1.5 3.5-3.3v-11c0-1.24-1.1-2.3-2.5-2.3-.74 0-1.43.36-1.9.9-1.02 1.2-2.6 1.8-4.2 1.56-1.97-.25-3.57-1.8-3.78-3.65-.16-1.24.2-2.4 1.12-3.34.85-.9 2.07-1.4 3.34-1.4zm-4.62.4c-1.17 1.2-1.7 2.85-1.5 4.55.33 2.5 2.5 4.66 5.17 5 2.23.3 4.4-.5 5.8-2.14.15-.15.36-.3.63-.3.43 0 .8.35.8.75v11c0 .96-.85 1.76-1.86 1.76h-11.7c-.42 0-.8-.35-.8-.8 0-.2.1-.4.32-.55 1.5-1.1 2.34-2.74 2.34-4.54 0-1.65-.74-3.25-2.02-4.35-1.17-.94-2.6-1.44-4.14-1.44-.22 0-.48 0-.7.05-2.7.3-4.94 2.36-5.36 4.86-.32 2.1.53 4.15 2.28 5.45.2.16.32.36.32.6 0 .4-.37.76-.8.76h-13.45c-1 0-1.85-.8-1.85-1.75v-11c0-1.24-1.1-2.3-2.44-2.3-.8 0-1.48.3-1.96.9-.85 1-2.12 1.6-3.5 1.6-1.28 0-2.5-.5-3.36-1.4-.9-.94-1.27-2.1-1.1-3.34.2-1.85 1.8-3.4 3.76-3.65 1.65-.24 3.2.36 4.2 1.56.48.6 1.17.9 1.97.9 1.34 0 2.45-1.05 2.45-2.3V488.1c0-.94.85-1.74 1.86-1.74h13.46c1.33 0 2.45-1.05 2.45-2.3 0-.75-.3-1.4-.9-1.85-1.1-.8-1.75-2-1.75-3.3 0-1.2.53-2.34 1.5-3.14 1-.85 2.22-1.2 3.55-1.05 1.97.2 3.62 1.7 3.88 3.56.27 1.55-.37 3-1.65 3.95-.58.46-.95 1.1-.95 1.86 0 1.25 1.1 2.3 2.44 2.3h11.7c1 0 1.86.8 1.86 1.75v12.66c0 .4-.37.75-.85.75-.22 0-.43-.1-.6-.3-1.16-1.4-2.9-2.2-4.83-2.2-1.75 0-3.45.7-4.62 1.96z" stroke="#000" stroke-opacity="0" stroke-width=".29"/><path d="M1071.83 492.3h-2.66c-.48 0-.85.36-.85.8 0 .4.37.76.85.76h.58l-3.24 8.6-3.28-8.6h.58c.48 0 .85-.35.85-.75 0-.44-.37-.8-.85-.8h-2.66c-.42 0-.8.36-.8.8 0 .4.38.76.8.76h.32l1 2.75-2.17 5.86-3.3-8.6h.58c.48 0 .85-.35.85-.75 0-.44-.37-.8-.85-.8h-2.66c-.42 0-.8.36-.8.8 0 .4.38.76.8.76h.32l3.83 10.1c.16.45.64.8 1.22.8.52 0 1-.35 1.16-.8l1.92-5.05 1.9 5.06c.17.45.65.8 1.23.8.54 0 1.02-.35 1.18-.8l3.83-10.1h.33c.42 0 .8-.35.8-.75 0-.44-.38-.8-.8-.8z" stroke="#000" stroke-opacity="0" stroke-width=".29"/><path d="M1017.54 505.7h-118.1" stroke="#f2f3f5" stroke-width="2" fill="none"/><path d="M1018.54 506.7h-1.03v-2h1.04z" stroke="#f2f3f5" stroke-width=".05" fill="#f2f3f5"/><path d="M884.18 505.7l14.27-4.64v9.27z" stroke="#f2f3f5" stroke-width="2" fill="#f2f3f5"/><g><use xlink:href="#u" transform="matrix(1,0,0,1,917.1602703523087,488.3572260888721) translate(0.005000000000002558 10.6640625)"/><use xlink:href="#v" transform="matrix(1,0,0,1,917.1602703523087,488.3572260888721) translate(72.01671875 10.6640625)"/></g><path d="M488.62 786a6 6 0 0 1 6-6h125.2a6 6 0 0 1 6 6v36.35a6 6 0 0 1-6 6h-125.2a6 6 0 0 1-6-6z" stroke="#000" stroke-opacity="0" stroke-width="3" fill-opacity="0"/><g><use xlink:href="#w" transform="matrix(1,0,0,1,493.6164586893541,785) translate(8.968888888888898 23.97222222222222)"/><use xlink:href="#x" transform="matrix(1,0,0,1,493.6164586893541,785) translate(55.92 23.97222222222222)"/></g><path d="M695.68 504.06h3.36m-8.43 5.47v-9.15c0-2 1.53-3.63 3.37-3.63h13.54c1.86 0 3.38 1.64 3.38 3.63v18.3c0 2-1.52 3.64-3.37 3.64h-13.53c-1.84 0-3.36 1.64-3.36 3.63v18.3c0 2 1.53 3.64 3.37 3.64h13.54c1.86 0 3.38-1.65 3.38-3.64v-9.16m-8.43-23.72h-22.02c-1.84 0-3.36 1.63-3.36 3.63v18.26c0 2.05 1.52 3.7 3.36 3.7h10.18m8.44-3.7h22c1.86 0 3.38-1.63 3.38-3.63v-18.25c0-2.05-1.52-3.7-3.37-3.7h-10.17m-8.43 32.9h3.36" stroke="#000" fill-opacity="0"/><path d="M610.9 469.5H442.44" stroke="#f2f3f5" stroke-width="2" fill="none"/><path d="M626.15 469.5l-14.26 4.64v-9.27z" stroke="#f2f3f5" stroke-width="2" fill="#f2f3f5"/><path d="M442.47 470.5h-1.02v-2h1.02z" stroke="#f2f3f5" stroke-width=".05" fill="#f2f3f5"/><g><use xlink:href="#p" transform="matrix(1,0,0,1,503.4121002319004,452.1760962638023) translate(0.005000000000002558 10.664062499999998)"/><use xlink:href="#y" transform="matrix(1,0,0,1,503.4121002319004,452.1760962638023) translate(40.01151041666666 10.664062499999998)"/></g><path d="M690.76 652.5h3.36m-8.43 5.46v-9.15c0-1.98 1.5-3.62 3.35-3.62h13.54c1.84 0 3.35 1.64 3.35 3.63v18.32c0 2-1.5 3.63-3.36 3.63h-13.55c-1.84 0-3.36 1.64-3.36 3.63v18.3c0 2 1.5 3.64 3.35 3.64h13.54c1.84 0 3.35-1.64 3.35-3.63v-9.16m-8.42-23.73H675.5c-1.84 0-3.35 1.64-3.35 3.64v18.25c0 2.04 1.5 3.68 3.36 3.68h10.2m8.42-3.7h22c1.86 0 3.37-1.62 3.37-3.62V659.8c0-2.04-1.52-3.68-3.37-3.68h-10.18m-8.42 32.9h3.36" stroke="#000" fill-opacity="0"/><defs><path fill="#333" d="M608-642l-20 77c-36 56-69 94-113 138-49 48-58 40-29 81 33 46 69 89 97 147 44 89 52 141 40 147-3 38-20 49-63 52-68 5-97-106-129-160-40-68-56-162-144-164-53-1-27 78-45 121-7 56-12 123-28 170C157-4 113 24 66-1 46-11 40-39 49-87c19-111 19-139 19-313 0-144 1-187-40-242-27-37-13-94 26-108 103-36 250-59 389-41 63 8 182 85 165 149zm-140 11c-10-39-42-58-96-57-53 12-154 21-179 43-5 9-8 31-8 65 0 151 19 135 127 94 94-36 148-79 156-145" id="z"/><path fill="#333" d="M330-158c82-22 193-18 286-31 38 11 58 81 24 113-25 24-71 25-116 25-135 0-238 34-358 47C61 7 4-52 15-159c12-113 37-213 32-340-2-59 2-121-2-178-2-44 35-62 81-61 104-31 222-52 345-64 68-7 103 34 111 94 2 12-3 22-9 31-33 14-62 15-103 16-100 2-196 10-270 40h-8c-18 23-11 79-15 106-1 13 5 22 16 25 82-10 176-25 264-12 44 7 78 26 71 72-7 49-76 30-125 30-78 0-138 22-210 29-24 1-35 28-36 52-2 41-10 83-8 126-19 84 122 51 181 35" id="A"/><path fill="#333" d="M521-275c40-33 108-24 108 34 0 49-75 103-210 183-80 47-247 72-323 10-66-54-95-101-82-218 12-106 41-136 91-224 55-96 145-209 240-278 32-23 68-33 107-33 86 2 108 61 107 158 0 55-15 82-44 82-55 1-25-116-79-110-132 15-229 223-291 334-48 86-31 226 81 218 122-9 217-92 295-156" id="B"/><path fill="#333" d="M44-443c79-191 208-366 448-366 141 0 239 118 267 253 46 222-61 413-213 490-83 42-221 78-338 30-55-23-106-43-129-82-26-14-80-140-57-202 2-41 8-89 22-123zm103 115c1 136 75 191 208 191 130 0 180-50 241-135 38-53 55-111 55-169 0-109-73-236-179-227-143 12-260 151-311 271-9 24-14 47-14 69" id="C"/><path fill="#333" d="M19-91c0-222 71-428 58-668-3-62 121-44 170-33 118 27 229 50 293 128 44 53 63 97 63 217 0 165-189 328-383 400-36 13-62 45-108 45-66 0-93-23-93-89zm185-582c-30 151-43 322-58 489 5 39 27 28 60 14 129-54 276-147 276-304 0-155-106-203-278-199" id="D"/><path fill="#333" d="M292-638c-67 2-113 14-176 21-81 9-112-68-58-103 132-46 304-52 470-66l65 5c50 52 43 111-50 111-45 0-75 15-112 18-18 16-19 83-24 152-7 108-21 214-33 322-5 46 36 20 67 20 54 0 81-10 139-16 43 25 50 62 23 110-151 29-311 50-490 79C58 24-8 22 3-44c14-83 161-45 224-90 22-16 24-69 29-107 17-126 33-258 36-397" id="E"/><path fill="#333" d="M24-128c0-158-18-313-5-472 6-74-11-192 62-191 78 1 88 68 113 130 59 143 102 191 174 297 50 73 81 109 92 109 8 0 12-3 13-9 24-163 3-322-12-477-6-63 62-76 101-37 65 64 45 212 54 340 10 141 7 304-15 413-8 15-20 23-37 23-76 0-203-132-244-200-33-54-79-109-116-169l4 4c-9-20-41-55-54-51-14 102-5 244 6 344 3 30-15 69-41 68-9 0-28-1-56-3-44-28-39-45-39-119" id="F"/><path fill="#333" d="M590-683c0-95-64-132-148-103-62 21-113 58-161 92-97 69-165 165-223 275C-45-222 51 11 277-12c154-16 257-81 343-160 63-58 100-126 109-243 12-155-158-93-246-67-61 18-178 69-168 115-2 30 28 68 54 64 69-10 133-52 201-67 9-2 20 9 20 17 0 11-18 38-57 79-85 91-188 136-306 136-55 0-99-68-99-127 0-30 16-69 37-123 25-64 237-288 318-281 25-8 66 40 79 44 19 0 28-19 28-58" id="G"/><g id="a"><use transform="matrix(0.022222222222222223,0,0,0.022222222222222223,0,0)" xlink:href="#z"/><use transform="matrix(0.022222222222222223,0,0,0.022222222222222223,14.177777777777779,0)" xlink:href="#A"/><use transform="matrix(0.022222222222222223,0,0,0.022222222222222223,28.977777777777778,0)" xlink:href="#B"/><use transform="matrix(0.022222222222222223,0,0,0.022222222222222223,43.06666666666667,0)" xlink:href="#C"/><use transform="matrix(0.022222222222222223,0,0,0.022222222222222223,60.91111111111111,0)" xlink:href="#z"/><use transform="matrix(0.022222222222222223,0,0,0.022222222222222223,74.64444444444445,0)" xlink:href="#D"/><use transform="matrix(0.022222222222222223,0,0,0.022222222222222223,86.6,0)" xlink:href="#E"/><use transform="matrix(0.022222222222222223,0,0,0.022222222222222223,101.64444444444445,0)" xlink:href="#F"/><use transform="matrix(0.022222222222222223,0,0,0.022222222222222223,115.8888888888889,0)" xlink:href="#G"/></g><path fill="#333" d="M697 1c1 28-21 55-50 54-21 0-46-18-77-52-32-35-51-52-56-52C390 2 288 19 176-28 69-73 12-126 13-276c0-184 157-386 282-467 76-50 243-89 339-27 58 37 109 80 135 146 29 74 35 147 3 242-27 79-64 141-111 199-18 23-27 38-27 44 0 19 74 109 63 140zM448-200c12-68-47-222 52-222 51 0 64 41 70 89 9 80 60-19 72-41 20-37 29-84 29-134 1-93-48-165-140-161-161 7-233 84-316 209-53 79-80 143-80 192-1 114 135 154 246 114 40-14 63-27 67-46" id="H"/><path fill="#333" d="M106-737c41-53 131 12 108 86-42 139-71 285-71 455 0 88 72 66 143 48 49-12 128-35 183-63 38-19 36-69 44-119 17-114 31-247 31-354 0-57 26-85 79-85 37 0 55 27 55 81 0 190-34 397-59 573 4 31 20 93-13 105-8 10-30 7-65-8-16-20-33-38-51-54C397-48 305 0 205 0 79 0 5-43 13-176c13-196 50-391 93-561" id="I"/><path fill="#333" d="M330-158c82-22 193-18 286-31 38 11 58 81 24 113-25 24-71 25-116 25-135 0-238 34-358 47C61 7 4-52 15-159c12-113 37-213 32-340-2-59 2-121-2-178-2-44 35-62 81-61 104-31 222-52 345-64 68-7 103 34 111 94 2 12-3 22-9 31-33 14-62 15-103 16-100 2-196 10-270 40h-8c-18 23-11 79-15 106-1 13 5 22 16 25 82-10 176-25 264-12 44 7 78 26 71 72-7 49-76 30-125 30-78 0-138 22-210 29-24 1-35 28-36 52-2 41-10 83-8 126-19 84 122 51 181 35" id="J"/><g id="b"><use transform="matrix(0.022222222222222223,0,0,0.022222222222222223,0,0)" xlink:href="#H"/><use transform="matrix(0.022222222222222223,0,0,0.022222222222222223,17.955555555555556,0)" xlink:href="#I"/><use transform="matrix(0.022222222222222223,0,0,0.022222222222222223,33.57777777777778,0)" xlink:href="#J"/><use transform="matrix(0.022222222222222223,0,0,0.022222222222222223,48.37777777777778,0)" xlink:href="#I"/><use transform="matrix(0.022222222222222223,0,0,0.022222222222222223,64,0)" xlink:href="#J"/></g><path fill="#333" d="M521-275c40-33 108-24 108 34 0 49-75 103-210 183-80 47-247 72-323 10-66-54-95-101-82-218 12-106 41-136 91-224 55-96 145-209 240-278 32-23 68-33 107-33 86 2 108 61 107 158 0 55-15 82-44 82-55 1-25-116-79-110-132 15-229 223-291 334-48 86-31 226 81 218 122-9 217-92 295-156" id="K"/><path fill="#333" d="M608-642l-20 77c-36 56-69 94-113 138-49 48-58 40-29 81 33 46 69 89 97 147 44 89 52 141 40 147-3 38-20 49-63 52-68 5-97-106-129-160-40-68-56-162-144-164-53-1-27 78-45 121-7 56-12 123-28 170C157-4 113 24 66-1 46-11 40-39 49-87c19-111 19-139 19-313 0-144 1-187-40-242-27-37-13-94 26-108 103-36 250-59 389-41 63 8 182 85 165 149zm-140 11c-10-39-42-58-96-57-53 12-154 21-179 43-5 9-8 31-8 65 0 151 19 135 127 94 94-36 148-79 156-145" id="L"/><path fill="#333" d="M103-24C79 10-2-14 8-59c42-186 129-353 193-524 23-62 63-135 99-197 39-38 106-10 109 47 27 100 51 209 81 307 8 25 72 24 72 63 0 44-26 46-37 75 12 83 46 156 55 243 7 63-106 47-114 11-13-58-36-170-57-231-3-4-7-8-9-14-69 4-134 40-198 52-53 21-53 108-81 160-4 16-8 29-18 43zm215-551c-16 18-92 195-73 208 46 2 100-12 123-31-5-30-32-162-38-171-2-3-6-5-12-6" id="M"/><path fill="#333" d="M722-498c18-70 6-160 6-241 0-38 16-57 49-57 55 0 82 64 82 193 1 204-63 347-126 491-54 125-124 110-196 9-30-42-54-91-82-146-27-53-43-79-49-79-8-17-88 136-114 182C269-106 193 9 170-1 96-15 86-47 66-129 33-267 17-480 18-657c0-70 18-105 54-105 39 0 66 36 68 87 4 137-4 277 12 406 12 100 67-12 84-47 47-96 102-197 139-285 18-41 78-38 96-4 52 97 51 251 110 344 50 78 71 31 104-70 17-53 22-108 37-167" id="N"/><path fill="#333" d="M21-302C-7-136 9 24 196-12c147-28 263-93 386-142 57-23 26-120-26-120-111 32-240 115-378 126-13 1-22-26-25-45 30-174 59-350 88-524 10-62-86-124-120-61-39 73-49 196-69 277-19 77-22 145-31 199" id="O"/><path fill="#333" d="M292-638c-67 2-113 14-176 21-81 9-112-68-58-103 132-46 304-52 470-66l65 5c50 52 43 111-50 111-45 0-75 15-112 18-18 16-19 83-24 152-7 108-21 214-33 322-5 46 36 20 67 20 54 0 81-10 139-16 43 25 50 62 23 110-151 29-311 50-490 79C58 24-8 22 3-44c14-83 161-45 224-90 22-16 24-69 29-107 17-126 33-258 36-397" id="P"/><path fill="#333" d="M24-128c0-158-18-313-5-472 6-74-11-192 62-191 78 1 88 68 113 130 59 143 102 191 174 297 50 73 81 109 92 109 8 0 12-3 13-9 24-163 3-322-12-477-6-63 62-76 101-37 65 64 45 212 54 340 10 141 7 304-15 413-8 15-20 23-37 23-76 0-203-132-244-200-33-54-79-109-116-169l4 4c-9-20-41-55-54-51-14 102-5 244 6 344 3 30-15 69-41 68-9 0-28-1-56-3-44-28-39-45-39-119" id="Q"/><path fill="#333" d="M590-683c0-95-64-132-148-103-62 21-113 58-161 92-97 69-165 165-223 275C-45-222 51 11 277-12c154-16 257-81 343-160 63-58 100-126 109-243 12-155-158-93-246-67-61 18-178 69-168 115-2 30 28 68 54 64 69-10 133-52 201-67 9-2 20 9 20 17 0 11-18 38-57 79-85 91-188 136-306 136-55 0-99-68-99-127 0-30 16-69 37-123 25-64 237-288 318-281 25-8 66 40 79 44 19 0 28-19 28-58" id="R"/><g id="c"><use transform="matrix(0.022222222222222223,0,0,0.022222222222222223,0,0)" xlink:href="#K"/><use transform="matrix(0.022222222222222223,0,0,0.022222222222222223,14.088888888888889,0)" xlink:href="#L"/><use transform="matrix(0.022222222222222223,0,0,0.022222222222222223,27.822222222222223,0)" xlink:href="#M"/><use transform="matrix(0.022222222222222223,0,0,0.022222222222222223,40.86666666666667,0)" xlink:href="#N"/><use transform="matrix(0.022222222222222223,0,0,0.022222222222222223,60.155555555555544,0)" xlink:href="#O"/><use transform="matrix(0.022222222222222223,0,0,0.022222222222222223,73.82222222222222,0)" xlink:href="#P"/><use transform="matrix(0.022222222222222223,0,0,0.022222222222222223,87.93333333333334,0)" xlink:href="#Q"/><use transform="matrix(0.022222222222222223,0,0,0.022222222222222223,102.17777777777778,0)" xlink:href="#R"/></g><path fill="#f2f3f5" d="M622-1349c296 4 497 117 497 404 0 282-193 424-485 431H353V0H162v-1349h460zm-15 684c195-3 320-88 320-277 0-184-129-255-328-254H353v531h254" id="S"/><path fill="#f2f3f5" d="M604-135c236 0 291-142 291-376v-838h190v859c5 340-142 510-480 510-326 0-463-164-463-492v-877h191v851c-3 222 46 363 271 363" id="T"/><path fill="#f2f3f5" d="M614-1226c-167 1-283 53-283 213 0 183 186 193 334 234 230 63 463 120 463 409 0 286-219 387-518 390C309 23 131-98 79-338l185-37c34 165 149 248 351 246 184-2 324-58 324-238 0-203-207-221-372-266-210-57-422-111-422-377 0-267 201-356 470-360 279-5 430 101 480 324l-188 33c-28-141-121-215-293-213" id="U"/><path fill="#f2f3f5" d="M875 0v-623H353V0H162v-1349h191v566h522v-566h191V0H875" id="V"/><g id="d"><use transform="matrix(0.006510416666666666,0,0,0.006510416666666666,0,0)" xlink:href="#S"/><use transform="matrix(0.006510416666666666,0,0,0.006510416666666666,8.001302083333332,0)" xlink:href="#T"/><use transform="matrix(0.006510416666666666,0,0,0.006510416666666666,16.002604166666664,0)" xlink:href="#U"/><use transform="matrix(0.006510416666666666,0,0,0.006510416666666666,24.003906249999996,0)" xlink:href="#V"/></g><path fill="#f2f3f5" d="M891-1484c-201 251-362 514-362 954 0 441 161 704 362 955H701C500 176 342-90 342-532c0-440 159-704 359-952h190" id="W"/><path fill="#f2f3f5" d="M937-319V0H757v-319H103v-140l635-890h199v888h188v142H937zm-180-835L257-461h500v-693" id="X"/><path fill="#f2f3f5" d="M528-1484c201 248 357 511 357 952 0 442-156 709-357 957H336C537 174 700-89 700-530c0-440-163-703-364-954h192" id="Y"/><g id="e"><use transform="matrix(0.006510416666666666,0,0,0.006510416666666666,0,0)" xlink:href="#W"/><use transform="matrix(0.006510416666666666,0,0,0.006510416666666666,8.001302083333332,0)" xlink:href="#X"/><use transform="matrix(0.006510416666666666,0,0,0.006510416666666666,16.002604166666664,0)" xlink:href="#Y"/></g><path fill="#333" d="M103-24C79 10-2-14 8-59c42-186 129-353 193-524 23-62 63-135 99-197 39-38 106-10 109 47 27 100 51 209 81 307 8 25 72 24 72 63 0 44-26 46-37 75 12 83 46 156 55 243 7 63-106 47-114 11-13-58-36-170-57-231-3-4-7-8-9-14-69 4-134 40-198 52-53 21-53 108-81 160-4 16-8 29-18 43zm215-551c-16 18-92 195-73 208 46 2 100-12 123-31-5-30-32-162-38-171-2-3-6-5-12-6" id="Z"/><path fill="#333" d="M382-556c-3 158-18 304-18 470 0 31 6 72-21 86-20 35-87 21-104-6-1-188 14-367 23-549 1-24 13-80-17-80-77 0-131 31-210 31-15-10-43-18-33-45 0-82 83-94 148-109 103-23 215-12 315-40 43-12 91-17 142-23 62-8 95 53 77 116-8 28-47 14-75 18-68 9-134 10-195 30-32 11-31 60-32 101" id="aa"/><path fill="#333" d="M68-174c-8-157-1-333-1-488 0-23-21-28-12-60 24-87 141-85 256-77 161 12 317 42 251 258-5 17-40 45-44 60 15 30 85 80 98 123 62 108 25 192-76 258C455-45 341-9 207-4 145-2 19-30 19-85c0-36 51-41 49-89zm137-510c-18 6-26 137-16 192 30 22 66 2 112-6 70-13 158-95 159-132 17-68-169-82-255-54zm-15 330c-15 57-2 155 5 215 6 4 6 12 18 11 101-5 211-32 267-82 52-46 58-91 12-140s-73-73-81-73c-39 14-121 48-173 54-15 2-34 14-48 15" id="ab"/><path fill="#333" d="M371-533c189 0 256 55 239 237-9 91-67 138-157 205C374-33 301-7 236-7 155-7 13-82 18-160c3-44 62-73 96-38 43 44 152 73 218 29 77-51 166-125 156-169 2-44-67-63-119-62-47 1-108 1-155 3C87-393 13-429 1-531c11-87 101-150 165-187 90-52 160-96 290-87 34 2 118 78 115 115-3 35-23 38-55 45-15 4-26-4-33-24-37-64-116-1-164 12-41 11-154 77-154 113 0 15 14 22 41 22 45 0 127-11 165-11" id="ac"/><g id="f"><use transform="matrix(0.022222222222222223,0,0,0.022222222222222223,0,0)" xlink:href="#D"/><use transform="matrix(0.022222222222222223,0,0,0.022222222222222223,11.755555555555556,0)" xlink:href="#Z"/><use transform="matrix(0.022222222222222223,0,0,0.022222222222222223,22.22222222222222,0)" xlink:href="#aa"/><use transform="matrix(0.022222222222222223,0,0,0.022222222222222223,33.62222222222222,0)" xlink:href="#Z"/><use transform="matrix(0.022222222222222223,0,0,0.022222222222222223,46.66666666666667,0)" xlink:href="#ab"/><use transform="matrix(0.022222222222222223,0,0,0.022222222222222223,59.91111111111111,0)" xlink:href="#Z"/><use transform="matrix(0.022222222222222223,0,0,0.022222222222222223,72.4,0)" xlink:href="#ac"/><use transform="matrix(0.022222222222222223,0,0,0.022222222222222223,86.42222222222223,0)" xlink:href="#A"/></g><path fill="#f2f3f5" d="M1121-976c0 225-142 341-344 379L1177 0H957L591-575H353V0H162v-1349h482c281 3 477 100 477 373zM633-726c181-1 296-73 296-247 0-149-101-223-304-223H353v470h280" id="ad"/><path fill="#f2f3f5" d="M162 0v-1349h919v156H353v422h668v154H353v461h769V0H162" id="ae"/><path fill="#f2f3f5" d="M1034 0L896-382H333L196 0H0l510-1349h217L1228 0h-194zM847-531c-77-225-157-447-231-674-69 231-154 451-232 674h463" id="af"/><path fill="#f2f3f5" d="M473-1349c438-1 655 221 652 661C1122-268 945-8 532 0H162v-1349h311zm42 1193c308-4 416-205 418-532 2-330-131-509-459-505H353v1037h162" id="ag"/><g id="g"><use transform="matrix(0.006510416666666667,0,0,0.006510416666666667,0,0)" xlink:href="#ad"/><use transform="matrix(0.006510416666666667,0,0,0.006510416666666667,8.001302083333334,0)" xlink:href="#ae"/><use transform="matrix(0.006510416666666667,0,0,0.006510416666666667,16.002604166666668,0)" xlink:href="#af"/><use transform="matrix(0.006510416666666667,0,0,0.006510416666666667,24.00390625,0)" xlink:href="#ag"/></g><path fill="#f2f3f5" d="M1060-1016c0 191-128 285-295 323v4c154 18 262 91 313 209 14 35 21 72 21 110 0 277-194 390-478 390-292 0-457-129-493-382l186-17c24 161 121 250 307 250 172 1 298-80 291-247-8-208-220-239-446-233v-156c217 9 409-34 409-232 0-152-102-225-264-225-159 0-264 88-278 233l-181-14c33-239 196-367 461-367 264 0 447 102 447 354" id="ah"/><g id="h"><use transform="matrix(0.006510416666666667,0,0,0.006510416666666667,0,0)" xlink:href="#W"/><use transform="matrix(0.006510416666666667,0,0,0.006510416666666667,8.001302083333334,0)" xlink:href="#ah"/><use transform="matrix(0.006510416666666667,0,0,0.006510416666666667,16.002604166666668,0)" xlink:href="#Y"/></g><g id="i"><use transform="matrix(0.022222222222222223,0,0,0.022222222222222223,0,0)" xlink:href="#B"/><use transform="matrix(0.022222222222222223,0,0,0.022222222222222223,14.088888888888889,0)" xlink:href="#L"/><use transform="matrix(0.022222222222222223,0,0,0.022222222222222223,27.822222222222223,0)" xlink:href="#M"/><use transform="matrix(0.022222222222222223,0,0,0.022222222222222223,40.86666666666667,0)" xlink:href="#N"/><use transform="matrix(0.022222222222222223,0,0,0.022222222222222223,60.155555555555544,0)" xlink:href="#O"/><use transform="matrix(0.022222222222222223,0,0,0.022222222222222223,73.82222222222222,0)" xlink:href="#P"/><use transform="matrix(0.022222222222222223,0,0,0.022222222222222223,87.93333333333334,0)" xlink:href="#Q"/><use transform="matrix(0.022222222222222223,0,0,0.022222222222222223,102.17777777777778,0)" xlink:href="#R"/></g><path fill="#333" d="M44-443c79-191 208-366 448-366 141 0 239 118 267 253 46 222-61 413-213 490-83 42-221 78-338 30-55-23-106-43-129-82-26-14-80-140-57-202 2-41 8-89 22-123zm103 115c1 136 75 191 208 191 130 0 180-50 241-135 38-53 55-111 55-169 0-109-73-236-179-227-143 12-260 151-311 271-9 24-14 47-14 69" id="ai"/><path fill="#333" d="M583 1c26 5 52-17 51-41 24-60-22-103-43-144-74-69-132-138-184-228-37-64 44-88 81-120 65-56 138-104 195-168 35-39 5-108-40-113-66 17-104 68-150 105-81 65-158 127-245 187-18 12-48 33-70 13-6-6-8-14-7-23 3-63 18-122 28-181-3-53-39-88-92-91-82 12-51 140-71 216 1 133-13 257-20 381-3 58-27 167 27 193 35 29 78-2 98-20 30-59 16-164 24-251 3-31 38-61 73-59 78 41 118 121 174 184 38 44 71 96 112 139 15 15 32 34 59 21" id="aj"/><g id="j"><use transform="matrix(0.022222222222222223,0,0,0.022222222222222223,0,0)" xlink:href="#N"/><use transform="matrix(0.022222222222222223,0,0,0.022222222222222223,19.288888888888888,0)" xlink:href="#ai"/><use transform="matrix(0.022222222222222223,0,0,0.022222222222222223,37.13333333333333,0)" xlink:href="#L"/><use transform="matrix(0.022222222222222223,0,0,0.022222222222222223,50.86666666666667,0)" xlink:href="#aj"/><use transform="matrix(0.022222222222222223,0,0,0.022222222222222223,66.55555555555556,0)" xlink:href="#J"/><use transform="matrix(0.022222222222222223,0,0,0.022222222222222223,81.35555555555555,0)" xlink:href="#L"/></g><path fill="#f2f3f5" d="M1018 0H810c-67-251-137-496-194-756C558-495 487-250 419 0H211L0-1349h189c48 393 110 772 142 1181 58-262 128-512 197-763h175c69 251 139 500 197 763 37-402 92-789 139-1181h189" id="ak"/><path fill="#f2f3f5" d="M202-1349h823v156H709v1037h316V0H202v-156h316v-1037H202v-156" id="al"/><path fill="#f2f3f5" d="M709-1193V0H519v-1193H76v-156h1076v156H709" id="am"/><g id="k"><use transform="matrix(0.006510416666666667,0,0,0.006510416666666667,0,0)" xlink:href="#ak"/><use transform="matrix(0.006510416666666667,0,0,0.006510416666666667,8.001302083333334,0)" xlink:href="#ad"/><use transform="matrix(0.006510416666666667,0,0,0.006510416666666667,16.002604166666668,0)" xlink:href="#al"/><use transform="matrix(0.006510416666666667,0,0,0.006510416666666667,24.00390625,0)" xlink:href="#am"/><use transform="matrix(0.006510416666666667,0,0,0.006510416666666667,32.005208333333336,0)" xlink:href="#ae"/></g><path fill="#f2f3f5" d="M672-881c271 0 424 163 424 435 0 291-160 466-455 466-367 0-490-287-490-662 0-324 85-568 293-680 129-70 351-59 460 16 73 50 125 123 153 223l-172 31c-31-108-107-172-232-172-259 0-316 252-323 529 59-113 178-186 342-186zm-37 756c186 0 278-124 278-313s-96-304-284-304c-163 0-281 93-281 261 0 157 65 270 168 327 35 19 75 29 119 29" id="an"/><g id="l"><use transform="matrix(0.006510416666666667,0,0,0.006510416666666667,0,0)" xlink:href="#W"/><use transform="matrix(0.006510416666666667,0,0,0.006510416666666667,8.001302083333334,0)" xlink:href="#an"/><use transform="matrix(0.006510416666666667,0,0,0.006510416666666667,16.002604166666668,0)" xlink:href="#Y"/></g><path fill="#f2f3f5" d="M608-642l-20 77c-36 56-69 94-113 138-49 48-58 40-29 81 33 46 69 89 97 147 44 89 52 141 40 147-3 38-20 49-63 52-68 5-97-106-129-160-40-68-56-162-144-164-53-1-27 78-45 121-7 56-12 123-28 170C157-4 113 24 66-1 46-11 40-39 49-87c19-111 19-139 19-313 0-144 1-187-40-242-27-37-13-94 26-108 103-36 250-59 389-41 63 8 182 85 165 149zm-140 11c-10-39-42-58-96-57-53 12-154 21-179 43-5 9-8 31-8 65 0 151 19 135 127 94 94-36 148-79 156-145" id="ao"/><path fill="#f2f3f5" d="M103-24C79 10-2-14 8-59c42-186 129-353 193-524 23-62 63-135 99-197 39-38 106-10 109 47 27 100 51 209 81 307 8 25 72 24 72 63 0 44-26 46-37 75 12 83 46 156 55 243 7 63-106 47-114 11-13-58-36-170-57-231-3-4-7-8-9-14-69 4-134 40-198 52-53 21-53 108-81 160-4 16-8 29-18 43zm215-551c-16 18-92 195-73 208 46 2 100-12 123-31-5-30-32-162-38-171-2-3-6-5-12-6" id="ap"/><path fill="#f2f3f5" d="M68-174c-8-157-1-333-1-488 0-23-21-28-12-60 24-87 141-85 256-77 161 12 317 42 251 258-5 17-40 45-44 60 15 30 85 80 98 123 62 108 25 192-76 258C455-45 341-9 207-4 145-2 19-30 19-85c0-36 51-41 49-89zm137-510c-18 6-26 137-16 192 30 22 66 2 112-6 70-13 158-95 159-132 17-68-169-82-255-54zm-15 330c-15 57-2 155 5 215 6 4 6 12 18 11 101-5 211-32 267-82 52-46 58-91 12-140s-73-73-81-73c-39 14-121 48-173 54-15 2-34 14-48 15" id="aq"/><path fill="#f2f3f5" d="M292-638c-67 2-113 14-176 21-81 9-112-68-58-103 132-46 304-52 470-66l65 5c50 52 43 111-50 111-45 0-75 15-112 18-18 16-19 83-24 152-7 108-21 214-33 322-5 46 36 20 67 20 54 0 81-10 139-16 43 25 50 62 23 110-151 29-311 50-490 79C58 24-8 22 3-44c14-83 161-45 224-90 22-16 24-69 29-107 17-126 33-258 36-397" id="ar"/><path fill="#f2f3f5" d="M593-790c58 0 99 54 77 117-5 13-15 16-35 14-70-7-152-3-229 7-31 20-24 81-26 127-4 138-16 277-16 422 0 32 4 70-21 83-26 36-88 7-103-20 1-182 10-346 21-521 2-27 11-81-18-84-73-7-138 11-206 3-20-18-39-18-32-51-3-78 74-91 145-91 129 0 251 6 369-8 25-3 49 2 74 2" id="as"/><g id="m"><use transform="matrix(0.017777777777777774,0,0,0.017777777777777774,0,0)" xlink:href="#ao"/><use transform="matrix(0.017777777777777774,0,0,0.017777777777777774,10.986666666666665,0)" xlink:href="#ap"/><use transform="matrix(0.017777777777777774,0,0,0.017777777777777774,21.422222222222217,0)" xlink:href="#aq"/><use transform="matrix(0.017777777777777774,0,0,0.017777777777777774,32.853333333333325,0)" xlink:href="#aq"/><use transform="matrix(0.017777777777777774,0,0,0.017777777777777774,44.28444444444444,0)" xlink:href="#ar"/><use transform="matrix(0.017777777777777774,0,0,0.017777777777777774,55.573333333333316,0)" xlink:href="#as"/></g><path fill="#f2f3f5" d="M629-645c28 177 9 401 28 582 3 29-18 50-47 50-97 0-67-194-71-306-1-24-4-66-3-92 1-39-15-57-30-33-49 79-88 161-139 243-9 15-21 23-34 23-33 0-70-69-89-115-10-23-57-152-73-152-28 0-27 119-31 162-9 93-16 174-27 265-2 3-35 21-48 20-71-3-50-117-43-176 24-211 38-410 84-595 39-67 121 2 138 59 22 73 63 167 84 249 7 23 13 34 20 34 17 0 54-75 107-225 17-48 42-155 115-96 31 25 52 57 59 103" id="at"/><path fill="#f2f3f5" d="M697 1c1 28-21 55-50 54-21 0-46-18-77-52-32-35-51-52-56-52C390 2 288 19 176-28 69-73 12-126 13-276c0-184 157-386 282-467 76-50 243-89 339-27 58 37 109 80 135 146 29 74 35 147 3 242-27 79-64 141-111 199-18 23-27 38-27 44 0 19 74 109 63 140zM448-200c12-68-47-222 52-222 51 0 64 41 70 89 9 80 60-19 72-41 20-37 29-84 29-134 1-93-48-165-140-161-161 7-233 84-316 209-53 79-80 143-80 192-1 114 135 154 246 114 40-14 63-27 67-46" id="au"/><g id="n"><use transform="matrix(0.017777777777777774,0,0,0.017777777777777774,0,0)" xlink:href="#at"/><use transform="matrix(0.017777777777777774,0,0,0.017777777777777774,11.946666666666664,0)" xlink:href="#au"/></g><path fill="#f2f3f5" d="M521-275c40-33 108-24 108 34 0 49-75 103-210 183-80 47-247 72-323 10-66-54-95-101-82-218 12-106 41-136 91-224 55-96 145-209 240-278 32-23 68-33 107-33 86 2 108 61 107 158 0 55-15 82-44 82-55 1-25-116-79-110-132 15-229 223-291 334-48 86-31 226 81 218 122-9 217-92 295-156" id="av"/><path fill="#f2f3f5" d="M330-158c82-22 193-18 286-31 38 11 58 81 24 113-25 24-71 25-116 25-135 0-238 34-358 47C61 7 4-52 15-159c12-113 37-213 32-340-2-59 2-121-2-178-2-44 35-62 81-61 104-31 222-52 345-64 68-7 103 34 111 94 2 12-3 22-9 31-33 14-62 15-103 16-100 2-196 10-270 40h-8c-18 23-11 79-15 106-1 13 5 22 16 25 82-10 176-25 264-12 44 7 78 26 71 72-7 49-76 30-125 30-78 0-138 22-210 29-24 1-35 28-36 52-2 41-10 83-8 126-19 84 122 51 181 35" id="aw"/><path fill="#f2f3f5" d="M21-302C-7-136 9 24 196-12c147-28 263-93 386-142 57-23 26-120-26-120-111 32-240 115-378 126-13 1-22-26-25-45 30-174 59-350 88-524 10-62-86-124-120-61-39 73-49 196-69 277-19 77-22 145-31 199" id="ax"/><path fill="#f2f3f5" d="M608-642l-20 77c-36 56-69 94-113 138-49 48-58 40-29 81 33 46 69 89 97 147 44 89 52 141 40 147-3 38-20 49-63 52-68 5-97-106-129-160-40-68-56-162-144-164-53-1-27 78-45 121-7 56-12 123-28 170C157-4 113 24 66-1 46-11 40-39 49-87c19-111 19-139 19-313 0-144 1-187-40-242-27-37-13-94 26-108 103-36 250-59 389-41 63 8 182 85 165 149zm-140 11c-10-39-42-58-96-57-53 12-154 21-179 43-5 9-8 31-8 65 0 151 19 135 127 94 94-36 148-79 156-145" id="ay"/><path fill="#f2f3f5" d="M192-85c-3 48 46 100 89 72 52-75 73-232 102-321 46-139 146-233 278-374 22-37 2-105-46-93-81 20-199 174-252 246-53 73-46 65-110 7-63-57-96-136-132-220-11-25-31-37-54-37-36-1-56 32-56 68 32 142 118 264 224 332 15 16 24 24 21 38" id="az"/><g id="o"><use transform="matrix(0.017777777777777774,0,0,0.017777777777777774,0,0)" xlink:href="#av"/><use transform="matrix(0.017777777777777774,0,0,0.017777777777777774,11.271111111111109,0)" xlink:href="#aw"/><use transform="matrix(0.017777777777777774,0,0,0.017777777777777774,23.111111111111107,0)" xlink:href="#ax"/><use transform="matrix(0.017777777777777774,0,0,0.017777777777777774,34.04444444444444,0)" xlink:href="#aw"/><use transform="matrix(0.017777777777777774,0,0,0.017777777777777774,45.88444444444443,0)" xlink:href="#ay"/><use transform="matrix(0.017777777777777774,0,0,0.017777777777777774,56.8711111111111,0)" xlink:href="#az"/></g><path fill="#f2f3f5" d="M237 0v-1349h191v1193h672V0H237" id="aA"/><g id="p"><use transform="matrix(0.006510416666666666,0,0,0.006510416666666666,0,0)" xlink:href="#S"/><use transform="matrix(0.006510416666666666,0,0,0.006510416666666666,8.001302083333332,0)" xlink:href="#T"/><use transform="matrix(0.006510416666666666,0,0,0.006510416666666666,16.002604166666664,0)" xlink:href="#aA"/><use transform="matrix(0.006510416666666666,0,0,0.006510416666666666,24.003906249999996,0)" xlink:href="#aA"/></g><path fill="#f2f3f5" d="M353-779c69-51 166-92 291-90 218 3 357 100 423 255 21 52 32 109 32 170 0 305-189 464-500 464-268 0-424-116-471-335l182-21c35 130 124 212 293 209 198-4 309-114 309-313 0-182-118-282-305-282-120 0-198 45-262 101H169l47-728h801v145H382" id="aB"/><g id="q"><use transform="matrix(0.006510416666666666,0,0,0.006510416666666666,0,0)" xlink:href="#W"/><use transform="matrix(0.006510416666666666,0,0,0.006510416666666666,8.001302083333332,0)" xlink:href="#aB"/><use transform="matrix(0.006510416666666666,0,0,0.006510416666666666,16.002604166666664,0)" xlink:href="#Y"/></g><g id="r"><use transform="matrix(0.022222222222222223,0,0,0.022222222222222223,0,0)" xlink:href="#z"/><use transform="matrix(0.022222222222222223,0,0,0.022222222222222223,14.177777777777779,0)" xlink:href="#A"/><use transform="matrix(0.022222222222222223,0,0,0.022222222222222223,28.977777777777778,0)" xlink:href="#B"/><use transform="matrix(0.022222222222222223,0,0,0.022222222222222223,43.06666666666667,0)" xlink:href="#C"/><use transform="matrix(0.022222222222222223,0,0,0.022222222222222223,60.91111111111111,0)" xlink:href="#z"/><use transform="matrix(0.022222222222222223,0,0,0.022222222222222223,74.64444444444445,0)" xlink:href="#D"/><use transform="matrix(0.022222222222222223,0,0,0.022222222222222223,86.6,0)" xlink:href="#E"/><use transform="matrix(0.022222222222222223,0,0,0.022222222222222223,101.64444444444445,0)" xlink:href="#F"/><use transform="matrix(0.022222222222222223,0,0,0.022222222222222223,115.8888888888889,0)" xlink:href="#G"/></g><g id="s"><use transform="matrix(0.022222222222222223,0,0,0.022222222222222223,0,0)" xlink:href="#N"/><use transform="matrix(0.022222222222222223,0,0,0.022222222222222223,19.288888888888888,0)" xlink:href="#ai"/><use transform="matrix(0.022222222222222223,0,0,0.022222222222222223,37.13333333333333,0)" xlink:href="#L"/><use transform="matrix(0.022222222222222223,0,0,0.022222222222222223,50.86666666666667,0)" xlink:href="#aj"/><use transform="matrix(0.022222222222222223,0,0,0.022222222222222223,66.55555555555556,0)" xlink:href="#J"/><use transform="matrix(0.022222222222222223,0,0,0.022222222222222223,81.35555555555555,0)" xlink:href="#L"/></g><path fill="#333" d="M722-498c18-70 6-160 6-241 0-38 16-57 49-57 55 0 82 64 82 193 1 204-63 347-126 491-54 125-124 110-196 9-30-42-54-91-82-146-27-53-43-79-49-79-8-17-88 136-114 182C269-106 193 9 170-1 96-15 86-47 66-129 33-267 17-480 18-657c0-70 18-105 54-105 39 0 66 36 68 87 4 137-4 277 12 406 12 100 67-12 84-47 47-96 102-197 139-285 18-41 78-38 96-4 52 97 51 251 110 344 50 78 71 31 104-70 17-53 22-108 37-167" id="aC"/><path fill="#333" d="M23-677c-68-88 127-122 212-122 113 0 253 24 291 82 92 144-48 310-153 365-52 27-102 48-161 69-56 20-53 15-58 80-4 49-8 103-13 153-3 31-19 46-43 46-44 0-65-28-63-81 5-162 8-330 16-486 3-53-4-75-28-106zm415 73c0-44-44-66-132-66-78 0-124 8-135 26-10 16-14 89-14 218 0 44 22 39 57 25 83-34 224-115 224-203" id="aD"/><path fill="#333" d="M19-91c0-222 71-428 58-668-3-62 121-44 170-33 118 27 229 50 293 128 44 53 63 97 63 217 0 165-189 328-383 400-36 13-62 45-108 45-66 0-93-23-93-89zm185-582c-30 151-43 322-58 489 5 39 27 28 60 14 129-54 276-147 276-304 0-155-106-203-278-199" id="aE"/><g id="t"><use transform="matrix(0.022222222222222223,0,0,0.022222222222222223,0,0)" xlink:href="#aC"/><use transform="matrix(0.022222222222222223,0,0,0.022222222222222223,19.288888888888888,0)" xlink:href="#P"/><use transform="matrix(0.022222222222222223,0,0,0.022222222222222223,33.4,0)" xlink:href="#aj"/><use transform="matrix(0.022222222222222223,0,0,0.022222222222222223,49.08888888888889,0)" xlink:href="#P"/><use transform="matrix(0.022222222222222223,0,0,0.022222222222222223,63.2,0)" xlink:href="#aD"/><use transform="matrix(0.022222222222222223,0,0,0.022222222222222223,75.73333333333333,0)" xlink:href="#J"/><use transform="matrix(0.022222222222222223,0,0,0.022222222222222223,90.53333333333333,0)" xlink:href="#aE"/><use transform="matrix(0.022222222222222223,0,0,0.022222222222222223,103.95555555555553,0)" xlink:href="#P"/><use transform="matrix(0.022222222222222223,0,0,0.022222222222222223,118.06666666666668,0)" xlink:href="#M"/></g><path fill="#f2f3f5" d="M102-681c0-398 126-689 513-689 165 0 291 58 379 174s132 287 132 515c-1 318-88 554-298 657-123 61-317 58-438-3-206-104-288-341-288-654zm749 406c94-160 97-656-5-807-57-85-130-132-231-132-104 0-178 47-234 132-101 153-99 655 1 809 57 89 130 138 232 138 109 0 184-49 237-140" id="aF"/><path fill="#f2f3f5" d="M912-211c-10-84-18-177-18-274v-864h172V0H836L316-1130c7 79 16 167 16 254V0H162v-1349h222" id="aG"/><g id="u"><use transform="matrix(0.006510416666666667,0,0,0.006510416666666667,0,0)" xlink:href="#ag"/><use transform="matrix(0.006510416666666667,0,0,0.006510416666666667,8.001302083333334,0)" xlink:href="#aF"/><use transform="matrix(0.006510416666666667,0,0,0.006510416666666667,16.002604166666668,0)" xlink:href="#ak"/><use transform="matrix(0.006510416666666667,0,0,0.006510416666666667,24.00390625,0)" xlink:href="#aG"/><use transform="matrix(0.006510416666666667,0,0,0.006510416666666667,32.005208333333336,0)" xlink:href="#aA"/><use transform="matrix(0.006510416666666667,0,0,0.006510416666666667,40.00651041666667,0)" xlink:href="#aF"/><use transform="matrix(0.006510416666666667,0,0,0.006510416666666667,48.00781250000001,0)" xlink:href="#af"/><use transform="matrix(0.006510416666666667,0,0,0.006510416666666667,56.00911458333335,0)" xlink:href="#ag"/></g><path fill="#f2f3f5" d="M611-1370c266 0 451 106 451 368 0 147-77 243-154 327-132 144-316 255-451 395-42 44-75 87-96 134h723V0H144v-117c124-264 387-411 582-603 73-72 151-147 151-271 0-161-104-231-266-231-163 0-249 90-268 238l-184-17c35-233 185-369 452-369" id="aH"/><g id="v"><use transform="matrix(0.006510416666666667,0,0,0.006510416666666667,0,0)" xlink:href="#W"/><use transform="matrix(0.006510416666666667,0,0,0.006510416666666667,8.001302083333334,0)" xlink:href="#aH"/><use transform="matrix(0.006510416666666667,0,0,0.006510416666666667,16.002604166666668,0)" xlink:href="#Y"/></g><path fill="#f2f3f5" d="M382-556c-3 158-18 304-18 470 0 31 6 72-21 86-20 35-87 21-104-6-1-188 14-367 23-549 1-24 13-80-17-80-77 0-131 31-210 31-15-10-43-18-33-45 0-82 83-94 148-109 103-23 215-12 315-40 43-12 91-17 142-23 62-8 95 53 77 116-8 28-47 14-75 18-68 9-134 10-195 30-32 11-31 60-32 101" id="aI"/><path fill="#f2f3f5" d="M103-24C79 10-2-14 8-59c42-186 129-353 193-524 23-62 63-135 99-197 39-38 106-10 109 47 27 100 51 209 81 307 8 25 72 24 72 63 0 44-26 46-37 75 12 83 46 156 55 243 7 63-106 47-114 11-13-58-36-170-57-231-3-4-7-8-9-14-69 4-134 40-198 52-53 21-53 108-81 160-4 16-8 29-18 43zm215-551c-16 18-92 195-73 208 46 2 100-12 123-31-5-30-32-162-38-171-2-3-6-5-12-6" id="aJ"/><path fill="#f2f3f5" d="M371-533c189 0 256 55 239 237-9 91-67 138-157 205C374-33 301-7 236-7 155-7 13-82 18-160c3-44 62-73 96-38 43 44 152 73 218 29 77-51 166-125 156-169 2-44-67-63-119-62-47 1-108 1-155 3C87-393 13-429 1-531c11-87 101-150 165-187 90-52 160-96 290-87 34 2 118 78 115 115-3 35-23 38-55 45-15 4-26-4-33-24-37-64-116-1-164 12-41 11-154 77-154 113 0 15 14 22 41 22 45 0 127-11 165-11" id="aK"/><path fill="#f2f3f5" d="M508-780c56-58 130 44 81 100-61 70-137 131-212 191-42 33-4 64 19 89 60 64 110 129 162 207 35 52 50 100 50 142 0 27-15 41-44 41-42 9-138-115-174-161S228-368 211-355C63-341 254-45 102-10 17-22 26-133 21-219 11-407 10-619 43-780c35-64 128 9 121 64-7 51-23 126-20 177 3 63 67 10 90-8 114-86 190-146 274-233" id="aL"/><g id="w"><use transform="matrix(0.017777777777777774,0,0,0.017777777777777774,0,0)" xlink:href="#aI"/><use transform="matrix(0.017777777777777774,0,0,0.017777777777777774,9.119999999999997,0)" xlink:href="#aJ"/><use transform="matrix(0.017777777777777774,0,0,0.017777777777777774,19.111111111111107,0)" xlink:href="#aK"/><use transform="matrix(0.017777777777777774,0,0,0.017777777777777774,30.66666666666666,0)" xlink:href="#aL"/></g><path fill="#f2f3f5" d="M690-16c1 27-22 53-49 52-21 0-47-17-78-51-31-35-50-52-55-52C384-16 286 0 174-46 66-91 12-146 12-292c0-165 91-286 178-377 58-61 105-100 201-130 173-55 319 38 370 162 9 21 40 127 19 177-19 105-68 191-126 260-19 22-27 38-27 44 1 18 74 108 63 140zM445-229c4-68-43-207 50-207 52 0 63 37 68 87 8 80 61-19 73-41 58-107 35-292-110-292-94 0-188 52-242 114-50 58-151 211-151 284 0 83 72 131 159 129 48-1 160-25 153-74" id="aM"/><path fill="#f2f3f5" d="M109-754c29-56 120 5 113 55-24 164-73 311-76 498 0 44 17 66 52 66 44 0 193-39 283-82 16-8 27-24 32-45 27-114 44-316 44-439 0-57 27-86 82-86 38 0 57 27 57 82 0 195-35 406-61 587 5 33 20 94-14 106-8 12-30 10-67-7-15-20-33-39-52-56C437-54 255 2 210 0 80-5 5-44 13-182c11-186 48-366 83-531 3-12 5-27 13-41" id="aN"/><path fill="#f2f3f5" d="M330-158c82-22 193-18 286-31 38 11 58 81 24 113-25 24-71 25-116 25-135 0-238 34-358 47C61 7 4-52 15-159c12-113 37-213 32-340-2-59 2-121-2-178-2-44 35-62 81-61 104-31 222-52 345-64 68-7 103 34 111 94 2 12-3 22-9 31-33 14-62 15-103 16-100 2-196 10-270 40h-8c-18 23-11 79-15 106-1 13 5 22 16 25 82-10 176-25 264-12 44 7 78 26 71 72-7 49-76 30-125 30-78 0-138 22-210 29-24 1-35 28-36 52-2 41-10 83-8 126-19 84 122 51 181 35" id="aO"/><g id="x"><use transform="matrix(0.017777777777777774,0,0,0.017777777777777774,0,0)" xlink:href="#aM"/><use transform="matrix(0.017777777777777774,0,0,0.017777777777777774,14.364444444444441,0)" xlink:href="#aN"/><use transform="matrix(0.017777777777777774,0,0,0.017777777777777774,26.897777777777772,0)" xlink:href="#aO"/><use transform="matrix(0.017777777777777774,0,0,0.017777777777777774,38.73777777777777,0)" xlink:href="#aN"/><use transform="matrix(0.017777777777777774,0,0,0.017777777777777774,51.271111111111104,0)" xlink:href="#aO"/></g><path fill="#f2f3f5" d="M148-1120c216-7 379-89 463-229h166v1204h353V0H157v-145h439v-1021c-79 124-254 184-448 194v-148" id="aP"/><g id="y"><use transform="matrix(0.006510416666666666,0,0,0.006510416666666666,0,0)" xlink:href="#W"/><use transform="matrix(0.006510416666666666,0,0,0.006510416666666666,8.001302083333332,0)" xlink:href="#aP"/><use transform="matrix(0.006510416666666666,0,0,0.006510416666666666,16.002604166666664,0)" xlink:href="#Y"/></g></defs></g></svg>